<?xml version="1.0" encoding="UTF-8" standalone="no"?>
<svg
   width="185"
   height="12"
   viewBox="0 0 185 12"
   fill="none"
   version="1.1"
   id="svg4"
   sodipodi:docname="Rectangle 30.svg"
   inkscape:version="1.1 (c68e22c387, 2021-05-23)"
   xmlns:inkscape="http://www.inkscape.org/namespaces/inkscape"
   xmlns:sodipodi="http://sodipodi.sourceforge.net/DTD/sodipodi-0.dtd"
   xmlns="http://www.w3.org/2000/svg"
   xmlns:svg="http://www.w3.org/2000/svg">
  <defs
     id="defs8" />
  <sodipodi:namedview
     id="namedview6"
     pagecolor="#ffffff"
     bordercolor="#080000"
     borderopacity="0"
     inkscape:pageshadow="0"
     inkscape:pageopacity="0"
     inkscape:pagecheckerboard="0"
     showgrid="false"
     inkscape:zoom="0.90509668"
     inkscape:cx="59.109708"
     inkscape:cy="52.480582"
     inkscape:window-width="1920"
     inkscape:window-height="1027"
     inkscape:window-x="-8"
     inkscape:window-y="22"
     inkscape:window-maximized="1"
     inkscape:current-layer="g869" />
  <g
     id="g869">
    <path
       d="m 127.89792,-56.770541 -0.28453,0.09768 0.29981,0.873394 0.2722,-0.882419 z m 6.34168,-20.559308 v -0.300839 h -0.22202 l -0.0655,0.212167 z m 8.33635,0 0.2876,-0.08802 -0.0653,-0.212819 h -0.22232 z m 6.29054,20.559308 -0.28791,0.08803 0.27046,0.883081 0.30174,-0.872793 z m 7.10881,-20.559308 v -0.300839 h -0.2145 l -0.0698,0.202528 z m 8.64309,0 0.28399,0.09915 0.13959,-0.399986 h -0.42358 z m -12.47878,35.748646 v 0.300839 h 0.21359 l 0.0704,-0.201562 z m -5.93254,0 -0.287,0.09025 0.0662,0.210587 h 0.22081 z m -7.82493,-24.85528 0.28694,-0.09034 -0.28787,-0.914489 -0.28619,0.915031 z m -7.77367,24.85528 v 0.300839 h 0.22112 l 0.066,-0.211189 z m -5.93253,0 -0.28402,0.09928 0.0704,0.201562 h 0.21363 z m -12.47878,-35.748646 v -0.300839 h -0.42366 l 0.13962,0.399986 z m 8.64309,0 0.28453,-0.09768 -0.0697,-0.203162 h -0.2148 z m 7.34515,20.647966 6.34168,-20.559294 -0.57497,-0.177344 -6.34167,20.559293 z m 6.0542,-20.347128 h 8.33635 v -0.601677 h -8.33635 z m 8.04845,-0.212819 6.29053,20.559315 0.57551,-0.176051 -6.29054,-20.559303 z m 6.86273,20.569603 7.10881,-20.559311 -0.56858,-0.196622 -7.10912,20.559305 z m 6.82452,-20.356784 h 8.64309 v -0.601677 h -8.64309 z m 8.3588,-0.399986 -12.47878,35.748518 0.56828,0.198553 12.47878,-35.748776 z m -12.19449,35.546956 h -5.93254 v 0.601677 h 5.93254 z m -5.64584,0.210587 -7.82469,-24.855371 -0.57388,0.180684 7.82487,24.85519 z m -8.39875,-24.854829 -7.77367,24.85543 0.57424,0.1793 7.77367,-24.855129 z m -7.48655,24.644242 h -5.93253 v 0.601677 h 5.93253 z m -5.64851,0.201562 -12.47878,-35.748518 -0.56806,0.198295 12.4788,35.748776 z m -12.7628,-35.348532 h 8.64309 v -0.601677 h -8.64309 z m 8.35855,-0.203162 7.05768,20.559315 0.56906,-0.195365 -7.05767,-20.559303 z m 70.48052,-0.09768 v -0.300839 h -0.30084 v 0.300839 z m 7.97823,0 h 0.30084 v -0.300839 h -0.30084 z m 0,35.748646 v 0.300839 h 0.30084 v -0.300839 z m -7.97823,0 h -0.30084 v 0.300839 h 0.30084 z m 0,-14.064201 h 0.30084 v -0.300839 h -0.30084 z m -14.21763,0 v -0.300839 h -0.30084 v 0.300839 z m 0,14.064201 v 0.300839 h 0.30084 v -0.300839 z m -7.97824,0 h -0.30084 v 0.300839 h 0.30084 z m 0,-35.748646 v -0.300839 h -0.30084 v 0.300839 z m 7.97824,0 h 0.30084 v -0.300839 h -0.30084 z m 0,14.933628 h -0.30084 v 0.300838 h 0.30084 z m 14.21763,0 v 0.300838 h 0.30084 v -0.300838 z m 0,-14.63279 h 7.97823 v -0.601677 h -7.97823 z m 7.6774,-0.300838 v 35.748646 h 0.60167 v -35.748646 z m 0.30083,35.447808 h -7.97823 v 0.601677 h 7.97823 z m -7.67739,0.300838 v -14.064201 h -0.60168 v 14.064201 z m -0.30084,-14.36504 H 176.8186 v 0.601677 h 14.21763 z m -14.51847,0.300839 v 14.064201 h 0.60168 v -14.064201 z m 0.30084,13.763363 h -7.97824 v 0.601677 h 7.97824 z m -7.6774,0.300838 v -35.748646 h -0.60168 v 35.748646 z m -0.30084,-35.447808 h 7.97824 v -0.601677 h -7.97824 z m 7.6774,-0.300838 v 14.933628 h 0.60168 v -14.933628 z m 0.30084,15.234466 h 14.21763 V -62.69706 H 176.8186 Z m 14.51847,-0.300838 v -14.933628 h -0.60168 v 14.933628 z m 31.85338,20.815018 v 0.300839 h 0.30084 v -0.300839 z m -7.97824,0 h -0.30084 v 0.300839 h 0.30084 z m 0,-14.115344 h 0.30084 v -0.07996 l -0.0397,-0.06943 z m -12.37649,-21.633302 v -0.300839 h -0.51865 l 0.25752,0.450229 z m 8.64309,0 0.26022,-0.151087 -0.0869,-0.149752 h -0.17328 z m 7.72252,13.297066 -0.26022,0.151081 0.26022,0.447949 0.26023,-0.447949 z m 7.72253,-13.297066 v -0.300839 h -0.17329 l -0.0869,0.149752 z m 8.64309,0 0.26113,0.14939 0.25751,-0.450229 h -0.51864 z m -12.3765,21.633302 -0.26113,-0.149396 -0.0397,0.06943 v 0.07996 z m 0,13.814506 h -7.97824 v 0.601677 h 7.97824 z m -7.6774,0.300838 v -14.115344 h -0.60168 v 14.115344 z m -0.0397,-14.26474 -12.3765,-21.633297 -0.52225,0.298781 12.3765,21.633308 z m -12.63762,-21.183068 h 8.64309 v -0.601677 h -8.64309 z m 8.38286,-0.149751 7.72253,13.29706 0.52045,-0.302162 -7.72253,-13.297072 z m 8.24298,13.29706 7.72252,-13.29706 -0.52045,-0.302174 -7.72252,13.297072 z m 7.4623,-13.147309 h 8.64309 v -0.601677 h -8.64309 z m 8.38196,-0.450229 -12.3765,21.633297 0.52226,0.298792 12.3765,-21.633308 z m -12.41621,21.782693 v 14.115344 h 0.60168 v -14.115344 z m 39.46761,4.909685 -0.23525,0.187362 0.002,0.0023 z m 10.6888,0 -0.23526,-0.187332 -6e-4,6.01e-4 z m 1.99456,-26.542987 v -0.300839 h -0.30084 v 0.300839 z m 7.97823,0 h 0.30084 v -0.300839 h -0.30084 z m -4.29597,31.964097 0.20878,0.216604 0.001,-0.0012 z m -22.04244,-0.05114 -0.20999,0.2154 0.001,0.0012 z m -4.29598,-31.912955 v -0.300839 h -0.30083 v 0.300839 z m 7.97824,0 h 0.30084 v -0.300839 h -0.30084 z m 1.76111,26.732696 c 1.39108,1.712102 3.26951,2.565972 5.60342,2.565972 v -0.601677 c -2.16664,0 -3.86818,-0.782692 -5.13652,-2.343713 z m 5.60342,2.565972 c 2.33391,0 4.1973,-0.854081 5.55468,-2.568951 l -0.47171,-0.373461 c -1.23344,1.558254 -2.91633,2.340735 -5.08297,2.340735 z m 5.55438,-2.568319 c 1.38446,-1.739599 2.05984,-4.080483 2.05984,-6.989321 h -0.60167 c 0,2.819127 -0.65433,5.012872 -1.92898,6.614627 z m 2.05984,-6.989321 v -19.741028 h -0.60167 v 19.741028 z m -0.30083,-19.44019 h 7.97823 v -0.601677 h -7.97823 z m 7.67739,-0.300838 v 19.99674 h 0.60168 v -19.99674 z m 0,19.99674 c 0,5.126439 -1.41484,9.028165 -4.20512,11.751957 l 0.42027,0.430801 c 2.93769,-2.867894 4.38653,-6.944316 4.38653,-12.182758 z m -4.20391,11.750754 c -2.80081,2.700928 -6.38801,4.058312 -10.78687,4.058312 v 0.601677 c 4.53394,0 8.27757,-1.404315 11.20443,-4.226782 z m -10.78687,4.058312 c -4.39766,0 -8.0023,-1.373629 -10.83801,-4.109455 l -0.41756,0.433208 c 2.96055,2.85586 6.72043,4.277924 11.25557,4.277924 z m -10.8365,-4.108252 c -2.79058,-2.724092 -4.20543,-6.609151 -4.20543,-11.700814 h -0.60167 c 0,5.205019 1.44944,9.264022 4.38682,12.131615 z m -4.20543,-11.700814 v -19.99674 h -0.60167 v 19.99674 z m -0.30084,-19.695902 h 7.97824 v -0.601677 h -7.97824 z m 7.6774,-0.300838 v 19.741028 h 0.60168 v -19.741028 z m 0,19.741028 c 0,2.908838 0.67539,5.249722 2.06015,6.989321 l 0.47081,-0.374694 c -1.27495,-1.601755 -1.92928,-3.7955 -1.92928,-6.614627 z m 39.57712,-12.581068 0.19043,0.232849 10e-4,-9.03e-4 z m 0.25571,4.960827 -0.16666,0.250298 0.002,0.0014 0.002,0.0014 z m 6.49511,2.19913 -0.0737,0.291693 0.004,8.43e-4 z m 7.92709,3.733406 -0.20006,0.224637 z m -0.81828,15.138196 0.19194,0.231645 3e-4,-3.01e-4 z m -24.75299,-3.324266 -0.23315,-0.19013 -0.1787,0.21901 0.20758,0.191935 z m 4.75625,-5.830251 0.19826,-0.226291 -0.23436,-0.205322 -0.19705,0.241453 z m 14.11535,4.142547 0.1805,0.24067 0.001,-0.0011 z m -0.0512,-5.114256 -0.17749,0.242897 0.003,0.0023 0.003,0.0022 z m -5.26768,-1.943416 0.0722,-0.292085 -0.003,-6.01e-4 z m -9.15452,-3.835692 -0.19343,0.230442 0.002,0.0019 0.002,0.0018 z m 0.76714,-15.342765 -0.1805,-0.240677 -0.002,0.0012 z m 16.31448,-1.53428 0.0978,-0.284575 z m 6.23939,3.477697 0.24729,0.171357 0.15553,-0.224546 -0.20848,-0.176471 z m -4.04026,5.830251 -0.18171,0.239708 0.2503,0.189708 0.1787,-0.258059 z m -9.6148,-3.829675 c -1.37784,0 -2.5096,0.336157 -3.36248,1.0406 l 0.38327,0.463893 c 0.7157,-0.591147 1.69763,-0.902816 2.97921,-0.902816 z m -3.36127,1.039698 c -0.82671,0.676496 -1.23555,1.600972 -1.23555,2.738834 h 0.60168 c 0,-0.97601 0.34145,-1.72221 1.01473,-2.273136 z m -1.23555,2.738834 c 0,1.132807 0.51865,2.041039 1.51503,2.70514 l 0.33363,-0.500625 c -0.84506,-0.56329 -1.24698,-1.29162 -1.24698,-2.204515 z m 1.51894,2.707908 c 0.50992,0.327673 1.31887,0.673818 2.4061,1.041954 1.09295,0.370001 2.48644,0.768552 4.17805,1.195803 l 0.14741,-0.583386 c -1.68349,-0.425115 -3.06043,-0.819304 -4.13262,-1.182325 -1.0776,-0.364887 -1.82849,-0.69214 -2.27343,-0.978177 z m 6.58776,2.2386 c 3.37932,0.81103 5.97074,2.038301 7.79713,3.665507 l 0.40012,-0.449273 c -1.92386,-1.714118 -4.61727,-2.975774 -8.05676,-3.801305 z m 7.79713,3.665507 c 1.79451,1.598625 2.71206,3.944294 2.71206,7.088748 h 0.60168 c 0,-3.265422 -0.95757,-5.795353 -2.91362,-7.538021 z m 2.71206,7.088748 c 0,3.117379 -1.17206,5.640121 -3.52252,7.593466 l 0.38448,0.462689 c 2.49094,-2.070069 3.73972,-4.763688 3.73972,-8.056155 z m -3.52221,7.593165 c -2.31947,1.922057 -5.39945,2.897075 -9.26944,2.897075 v 0.601677 c 3.97197,0 7.19967,-1.002394 9.65331,-3.035461 z m -9.26944,2.897075 c -5.57695,0 -10.60276,-2.063151 -15.08736,-6.210511 l -0.40853,0.441631 c 4.58478,4.240019 9.75318,6.370557 15.49589,6.370557 z m -15.05847,-5.799565 4.75625,-5.830221 -0.4663,-0.38032 -4.75625,5.830281 z m 4.32485,-5.79409 c 3.87811,3.39758 7.50953,5.13766 10.88705,5.13766 v -0.601677 c -3.16874,0 -6.66298,-1.635328 -10.49054,-4.988565 z m 10.88705,5.13766 c 1.50389,0 2.71837,-0.314376 3.60705,-0.980734 l -0.36101,-0.481341 c -0.74788,0.560943 -1.81766,0.860398 -3.24604,0.860398 z m 3.60855,-0.981877 c 0.92629,-0.703842 1.3974,-1.644263 1.3974,-2.796655 h -0.60168 c 0,0.96151 -0.38116,1.72582 -1.15973,2.3176 z m 1.3974,-2.796655 c 0,-1.188342 -0.49037,-2.133788 -1.45937,-2.804477 l -0.34235,0.494699 c 0.80414,0.556732 1.20004,1.316048 1.20004,2.309778 z m -1.45305,-2.800025 c -0.93952,-0.686694 -2.74967,-1.345259 -5.37298,-1.992604 l -0.1441,0.584169 c 2.62722,0.648247 4.32877,1.285302 5.16209,1.894229 z m -5.37568,-1.993205 c -4.14255,-0.984765 -7.14311,-2.250242 -9.03509,-3.777118 l -0.37785,0.468225 c 1.99486,1.609877 5.09741,2.901527 9.27395,3.894264 z m -9.03058,-3.773448 c -1.81917,-1.526876 -2.75658,-3.916587 -2.75658,-7.23637 h -0.60168 c 0,3.431033 0.97201,6.019207 2.97139,7.697254 z m -2.75658,-7.23637 c 0,-3.328538 1.17628,-5.859703 3.51259,-7.636516 l -0.36431,-0.47889 c -2.50539,1.905466 -3.74996,4.624957 -3.74996,8.115406 z m 3.51079,-7.635282 c 2.39347,-1.795098 5.37839,-2.701534 8.97401,-2.701534 v -0.601677 c -3.70061,0 -6.81881,0.9347 -9.33502,2.821869 z m 8.97401,-2.701534 c 2.35165,0 4.70542,0.403028 7.06249,1.211161 l 0.19524,-0.569153 c -2.41634,-0.828431 -4.83598,-1.243685 -7.25773,-1.243685 z m 7.06249,1.211161 c 2.35436,0.807201 4.40066,1.94876 6.14252,3.422779 l 0.38868,-0.45932 c -1.80383,-1.526365 -3.91722,-2.703251 -6.33596,-3.532612 z m 6.08957,3.021761 -4.04026,5.830251 0.49458,0.342715 4.04026,-5.830251 z m -3.61127,5.7619 c -3.14526,-2.384927 -6.41237,-3.589966 -9.7965,-3.589966 v 0.601677 c 3.2304,0 6.37326,1.147519 9.43309,3.467706 z"
       fill="#c4c4c4"
       id="path836"
       style="stroke-width:0.300839" />
    <path
       d="m 150.04146,-40.223654 h 52.04507 c 1.99365,0 3.61006,1.616279 3.61006,3.610063 h -52.04507 c -1.99378,0 -3.61006,-1.616279 -3.61006,-3.610063 z"
       fill="#d92f30"
       id="path2"
       style="stroke-width:0.300839" />
    <path
       d="m 138.96348,-56.858566 -4.18767,12.63522 h -2.49094 l -3.12271,-9.350062 -3.17685,9.350062 h -2.509 l -4.18767,-12.63522 h 2.43679 l 3.14076,9.602767 3.26711,-9.602767 h 2.16603 l 3.19491,9.656918 3.231,-9.656918 z m 13.13882,0 v 12.63522 h -2.34654 v -5.415094 h -6.53409 v 5.415094 h -2.34654 v -12.63522 h 2.34654 v 5.216541 h 6.53409 v -5.216541 z m 8.83714,8.176792 v 4.458428 h -2.34654 v -4.422327 l -4.96384,-8.212893 h 2.50899 l 3.70032,6.155157 3.73641,-6.155157 h 2.31044 z m 16.90411,4.638931 c -1.74486,0 -3.10465,-0.487359 -4.07937,-1.462076 -0.97471,-0.98675 -1.46207,-2.394674 -1.46207,-4.223773 v -7.129874 h 2.34654 v 7.039623 c 0,2.478909 1.07098,3.718364 3.21295,3.718364 2.12994,0 3.19491,-1.239455 3.19491,-3.718364 v -7.039623 h 2.31044 v 7.129874 c 0,1.829099 -0.48736,3.237023 -1.46208,4.223773 -0.96268,0.974717 -2.31645,1.462076 -4.06132,1.462076 z m 12.72638,0 c -0.97472,0 -1.91935,-0.138386 -2.8339,-0.415157 -0.90252,-0.276772 -1.61851,-0.643795 -2.14799,-1.10107 l 0.81226,-1.823081 c 0.51745,0.40914 1.14921,0.74608 1.89529,1.010817 0.75811,0.252705 1.51622,0.379057 2.27434,0.379057 0.93861,0 1.63656,-0.150419 2.09383,-0.451258 0.46931,-0.300838 0.70397,-0.697945 0.70397,-1.19132 0,-0.361007 -0.13237,-0.655828 -0.39711,-0.884466 -0.25271,-0.240671 -0.57761,-0.42719 -0.97472,-0.559559 -0.39711,-0.132369 -0.93861,-0.282789 -1.62453,-0.451258 -0.96268,-0.228638 -1.74486,-0.457275 -2.34654,-0.685912 -0.58964,-0.228637 -1.10107,-0.583627 -1.53427,-1.064969 -0.42118,-0.493375 -0.63176,-1.15522 -0.63176,-1.985534 0,-0.697945 0.18652,-1.329706 0.55956,-1.895283 0.38507,-0.57761 0.95666,-1.034884 1.71477,-1.371823 0.77015,-0.33694 1.70877,-0.50541 2.81585,-0.50541 0.77015,0 1.52826,0.09627 2.27434,0.288806 0.74608,0.192537 1.38988,0.469308 1.93139,0.830314 l -0.74007,1.823082 c -0.55354,-0.324906 -1.13115,-0.571593 -1.73283,-0.740063 -0.60167,-0.16847 -1.1853,-0.252704 -1.75088,-0.252704 -0.92658,0 -1.61851,0.156436 -2.07578,0.469308 -0.44524,0.312872 -0.66786,0.728029 -0.66786,1.245471 0,0.361006 0.12635,0.655828 0.37905,0.884466 0.26474,0.228637 0.59566,0.40914 0.99277,0.541509 0.39711,0.132369 0.93862,0.282788 1.62453,0.451258 0.93861,0.216603 1.70876,0.445241 2.31044,0.685912 0.60167,0.228637 1.1131,0.583626 1.53427,1.064968 0.43321,0.481342 0.64982,1.131153 0.64982,1.949434 0,0.697945 -0.19254,1.329706 -0.57761,1.895283 -0.37304,0.565576 -0.94464,1.016834 -1.71478,1.353773 -0.77015,0.336939 -1.70877,0.505409 -2.81585,0.505409 z"
       fill="#000000"
       id="path825"
       style="stroke-width:0.300839" />
  </g>
</svg>
