<svg width="255" height="44" viewBox="0 0 255 44" fill="none" xmlns="http://www.w3.org/2000/svg">
<path d="M66.02 0.999997L52.1 43H43.82L33.44 11.92L22.88 43H14.54L0.62 0.999997H8.72L19.16 32.92L30.02 0.999997H37.22L47.84 33.1L58.58 0.999997H66.02ZM109.694 0.999997V43H101.894V25H80.1744V43H72.3744V0.999997H80.1744V18.34H101.894V0.999997H109.694ZM139.069 28.18V43H131.269V28.3L114.769 0.999997H123.109L135.409 21.46L147.829 0.999997H155.509L139.069 28.18ZM195.259 43.6C189.459 43.6 184.939 41.98 181.699 38.74C178.459 35.46 176.839 30.78 176.839 24.7V0.999997H184.639V24.4C184.639 32.64 188.199 36.76 195.319 36.76C202.399 36.76 205.939 32.64 205.939 24.4V0.999997H213.619V24.7C213.619 30.78 211.999 35.46 208.759 38.74C205.559 41.98 201.059 43.6 195.259 43.6ZM237.562 43.6C234.322 43.6 231.182 43.14 228.142 42.22C225.142 41.3 222.762 40.08 221.002 38.56L223.702 32.5C225.422 33.86 227.522 34.98 230.002 35.86C232.522 36.7 235.042 37.12 237.562 37.12C240.682 37.12 243.002 36.62 244.522 35.62C246.082 34.62 246.862 33.3 246.862 31.66C246.862 30.46 246.422 29.48 245.542 28.72C244.702 27.92 243.622 27.3 242.302 26.86C240.982 26.42 239.182 25.92 236.902 25.36C233.702 24.6 231.102 23.84 229.102 23.08C227.142 22.32 225.442 21.14 224.002 19.54C222.602 17.9 221.902 15.7 221.902 12.94C221.902 10.62 222.522 8.52 223.762 6.64C225.042 4.72 226.942 3.2 229.462 2.08C232.022 0.959998 235.142 0.399998 238.822 0.399998C241.382 0.399998 243.902 0.719998 246.382 1.36C248.862 2 251.002 2.92 252.802 4.12L250.342 10.18C248.502 9.1 246.582 8.28 244.582 7.72C242.582 7.16 240.642 6.88 238.762 6.88C235.682 6.88 233.382 7.4 231.862 8.44C230.382 9.48 229.642 10.86 229.642 12.58C229.642 13.78 230.062 14.76 230.902 15.52C231.782 16.28 232.882 16.88 234.202 17.32C235.522 17.76 237.322 18.26 239.602 18.82C242.722 19.54 245.282 20.3 247.282 21.1C249.282 21.86 250.982 23.04 252.382 24.64C253.822 26.24 254.542 28.4 254.542 31.12C254.542 33.44 253.902 35.54 252.622 37.42C251.382 39.3 249.482 40.8 246.922 41.92C244.362 43.04 241.242 43.6 237.562 43.6Z" fill="black"/>
</svg>
