<svg width="685" height="126" viewBox="0 0 685 126" fill="none" xmlns="http://www.w3.org/2000/svg">
<path d="M54.3636 72.51L53.4178 72.8347L54.4144 75.7379L55.3192 72.8047L54.3636 72.51ZM75.4436 4.16999V3.16999H74.7056L74.488 3.87524L75.4436 4.16999ZM103.154 4.16999L104.11 3.87741L103.893 3.16999H103.154V4.16999ZM124.064 72.51L123.107 72.8026L124.006 75.738L125.009 72.8368L124.064 72.51ZM147.694 4.16999V3.16999H146.981L146.749 3.8432L147.694 4.16999ZM176.424 4.16999L177.368 4.49956L177.832 3.16999H176.424V4.16999ZM134.944 123V124H135.654L135.888 123.33L134.944 123ZM115.224 123L114.27 123.3L114.49 124H115.224V123ZM89.2136 40.38L90.1674 40.0797L89.2105 37.0399L88.2592 40.0815L89.2136 40.38ZM63.3736 123V124H64.1086L64.328 123.298L63.3736 123ZM43.6536 123L42.7095 123.33L42.9435 124H43.6536V123ZM2.1736 4.16999V3.16999H0.76535L1.22946 4.49956L2.1736 4.16999ZM30.9036 4.16999L31.8494 3.84531L31.6176 3.16999H30.9036V4.16999ZM55.3192 72.8047L76.3992 4.46474L74.488 3.87524L53.408 72.2152L55.3192 72.8047ZM75.4436 5.16999H103.154V3.16999H75.4436V5.16999ZM102.197 4.46257L123.107 72.8026L125.02 72.2174L104.11 3.87741L102.197 4.46257ZM125.009 72.8368L148.639 4.49678L146.749 3.8432L123.118 72.1832L125.009 72.8368ZM147.694 5.16999H176.424V3.16999H147.694V5.16999ZM175.479 3.84042L133.999 122.67L135.888 123.33L177.368 4.49956L175.479 3.84042ZM134.944 122H115.224V124H134.944V122ZM116.177 122.7L90.1674 40.0797L88.2598 40.6803L114.27 123.3L116.177 122.7ZM88.2592 40.0815L62.4192 122.702L64.328 123.298L90.168 40.6785L88.2592 40.0815ZM63.3736 122H43.6536V124H63.3736V122ZM44.5977 122.67L3.11772 3.84042L1.22946 4.49956L42.7095 123.33L44.5977 122.67ZM2.1736 5.16999H30.9036V3.16999H2.1736V5.16999ZM29.9578 4.49467L53.4178 72.8347L55.3094 72.1853L31.8494 3.84531L29.9578 4.49467ZM264.238 4.16999V3.16999H263.238V4.16999H264.238ZM290.758 4.16999H291.758V3.16999H290.758V4.16999ZM290.758 123V124H291.758V123H290.758ZM264.238 123H263.238V124H264.238V123ZM264.238 76.25H265.238V75.25H264.238V76.25ZM216.978 76.25V75.25H215.978V76.25H216.978ZM216.978 123V124H217.978V123H216.978ZM190.458 123H189.458V124H190.458V123ZM190.458 4.16999V3.16999H189.458V4.16999H190.458ZM216.978 4.16999H217.978V3.16999H216.978V4.16999ZM216.978 53.81H215.978V54.81H216.978V53.81ZM264.238 53.81V54.81H265.238V53.81H264.238ZM264.238 5.16999H290.758V3.16999H264.238V5.16999ZM289.758 4.16999V123H291.758V4.16999H289.758ZM290.758 122H264.238V124H290.758V122ZM265.238 123V76.25H263.238V123H265.238ZM264.238 75.25H216.978V77.25H264.238V75.25ZM215.978 76.25V123H217.978V76.25H215.978ZM216.978 122H190.458V124H216.978V122ZM191.458 123V4.16999H189.458V123H191.458ZM190.458 5.16999H216.978V3.16999H190.458V5.16999ZM215.978 4.16999V53.81H217.978V4.16999H215.978ZM216.978 54.81H264.238V52.81H216.978V54.81ZM265.238 53.81V4.16999H263.238V53.81H265.238ZM371.12 123V124H372.12V123H371.12ZM344.6 123H343.6V124H344.6V123ZM344.6 76.08H345.6V75.8142L345.468 75.5834L344.6 76.08ZM303.46 4.16999V3.16999H301.736L302.592 4.66657L303.46 4.16999ZM332.19 4.16999L333.055 3.66777L332.766 3.16999H332.19V4.16999ZM357.86 48.37L356.995 48.8722L357.86 50.3612L358.725 48.8722L357.86 48.37ZM383.53 4.16999V3.16999H382.954L382.665 3.66777L383.53 4.16999ZM412.26 4.16999L413.128 4.66657L413.984 3.16999H412.26V4.16999ZM371.12 76.08L370.252 75.5834L370.12 75.8142V76.08H371.12ZM371.12 122H344.6V124H371.12V122ZM345.6 123V76.08H343.6V123H345.6ZM345.468 75.5834L304.328 3.67341L302.592 4.66657L343.732 76.5766L345.468 75.5834ZM303.46 5.16999H332.19V3.16999H303.46V5.16999ZM331.325 4.67221L356.995 48.8722L358.725 47.8678L333.055 3.66777L331.325 4.67221ZM358.725 48.8722L384.395 4.67221L382.665 3.66777L356.995 47.8678L358.725 48.8722ZM383.53 5.16999H412.26V3.16999H383.53V5.16999ZM411.392 3.67341L370.252 75.5834L371.988 76.5766L413.128 4.66657L411.392 3.67341ZM370.12 76.08V123H372.12V76.08H370.12ZM501.312 92.4L500.53 93.0228L500.536 93.0306L501.312 92.4ZM536.842 92.4L536.06 91.7773L536.058 91.7793L536.842 92.4ZM543.472 4.16999V3.16999H542.472V4.16999H543.472ZM569.992 4.16999H570.992V3.16999H569.992V4.16999ZM555.712 110.42L556.406 111.14L556.411 111.136L555.712 110.42ZM482.442 110.25L481.744 110.966L481.748 110.97L482.442 110.25ZM468.162 4.16999V3.16999H467.162V4.16999H468.162ZM494.682 4.16999H495.682V3.16999H494.682V4.16999ZM500.536 93.0306C505.16 98.7217 511.404 101.56 519.162 101.56V99.56C511.96 99.56 506.304 96.9583 502.088 91.7694L500.536 93.0306ZM519.162 101.56C526.92 101.56 533.114 98.721 537.626 93.0207L536.058 91.7793C531.958 96.959 526.364 99.56 519.162 99.56V101.56ZM537.625 93.0228C542.227 87.2403 544.472 79.4591 544.472 69.79H542.472C542.472 79.1609 540.297 86.453 536.06 91.7773L537.625 93.0228ZM544.472 69.79V4.16999H542.472V69.79H544.472ZM543.472 5.16999H569.992V3.16999H543.472V5.16999ZM568.992 4.16999V70.64H570.992V4.16999H568.992ZM568.992 70.64C568.992 87.6805 564.289 100.65 555.014 109.704L556.411 111.136C566.176 101.603 570.992 88.0528 570.992 70.64H568.992ZM555.018 109.7C545.708 118.678 533.784 123.19 519.162 123.19V125.19C534.233 125.19 546.677 120.522 556.406 111.14L555.018 109.7ZM519.162 123.19C504.544 123.19 492.562 118.624 483.136 109.53L481.748 110.97C491.589 120.463 504.087 125.19 519.162 125.19V123.19ZM483.141 109.534C473.865 100.479 469.162 87.5649 469.162 70.64H467.162C467.162 87.9417 471.98 101.434 481.744 110.966L483.141 109.534ZM469.162 70.64V4.16999H467.162V70.64H469.162ZM468.162 5.16999H494.682V3.16999H468.162V5.16999ZM493.682 4.16999V69.79H495.682V4.16999H493.682ZM493.682 69.79C493.682 79.4591 495.927 87.2403 500.53 93.0228L502.095 91.7773C497.857 86.453 495.682 79.1609 495.682 69.79H493.682ZM625.238 27.97L625.871 28.744L625.875 28.741L625.238 27.97ZM626.088 44.46L625.534 45.292L625.54 45.2967L625.547 45.3012L626.088 44.46ZM647.678 51.77L647.433 52.7396L647.445 52.7424L647.678 51.77ZM674.028 64.18L673.363 64.9267L674.028 64.18ZM671.308 114.5L671.946 115.27L671.947 115.269L671.308 114.5ZM589.028 103.45L588.253 102.818L587.659 103.546L588.349 104.184L589.028 103.45ZM604.838 84.07L605.497 83.3178L604.718 82.6353L604.063 83.4379L604.838 84.07ZM651.758 97.84L652.358 98.64L652.363 98.6362L651.758 97.84ZM651.588 80.84L650.998 81.6474L651.008 81.6549L651.019 81.6622L651.588 80.84ZM634.078 74.38L634.318 73.4091L634.309 73.4071L634.078 74.38ZM603.648 61.63L603.005 62.396L603.013 62.4022L603.02 62.4082L603.648 61.63ZM606.198 10.63L605.598 9.82998L605.593 9.83405L606.198 10.63ZM660.428 5.52999L660.753 4.58405L660.428 5.52999ZM681.168 17.09L681.99 17.6596L682.507 16.9132L681.814 16.3266L681.168 17.09ZM667.738 36.47L667.134 37.2668L667.966 37.8974L668.56 37.0396L667.738 36.47ZM635.778 23.74C631.198 23.74 627.436 24.8574 624.601 27.199L625.875 28.741C628.254 26.776 631.518 25.74 635.778 25.74V23.74ZM624.605 27.196C621.857 29.4447 620.498 32.5177 620.498 36.3H622.498C622.498 33.0557 623.633 30.5753 625.871 28.744L624.605 27.196ZM620.498 36.3C620.498 40.0655 622.222 43.0845 625.534 45.292L626.643 43.6279C623.834 41.7555 622.498 39.3345 622.498 36.3H620.498ZM625.547 45.3012C627.242 46.3904 629.931 47.541 633.545 48.7647C637.178 49.9946 641.81 51.3194 647.433 52.7396L647.923 50.8004C642.327 49.3873 637.75 48.077 634.186 46.8703C630.604 45.6574 628.108 44.5696 626.629 43.6188L625.547 45.3012ZM647.445 52.7424C658.678 55.4383 667.292 59.5178 673.363 64.9267L674.693 63.4333C668.298 57.7355 659.345 53.5417 647.912 50.7976L647.445 52.7424ZM673.363 64.9267C679.328 70.2406 682.378 78.0377 682.378 88.49H684.378C684.378 77.6356 681.195 69.226 674.693 63.4333L673.363 64.9267ZM682.378 88.49C682.378 98.8523 678.482 107.238 670.669 113.731L671.947 115.269C680.227 108.388 684.378 99.4343 684.378 88.49H682.378ZM670.67 113.73C662.96 120.119 652.722 123.36 639.858 123.36V125.36C653.061 125.36 663.79 122.028 671.946 115.27L670.67 113.73ZM639.858 123.36C621.32 123.36 604.614 116.502 589.707 102.716L588.349 104.184C603.589 118.278 620.769 125.36 639.858 125.36V123.36ZM589.803 104.082L605.613 84.7021L604.063 83.4379L588.253 102.818L589.803 104.082ZM604.179 84.8222C617.07 96.1159 629.141 101.9 640.368 101.9V99.9C629.835 99.9 618.22 94.4641 605.497 83.3178L604.179 84.8222ZM640.368 101.9C645.367 101.9 649.404 100.855 652.358 98.64L651.158 97.04C648.672 98.9046 645.116 99.9 640.368 99.9V101.9ZM652.363 98.6362C655.442 96.2966 657.008 93.1706 657.008 89.34H655.008C655.008 92.5361 653.741 95.0767 651.153 97.0438L652.363 98.6362ZM657.008 89.34C657.008 85.3899 655.378 82.2472 652.157 80.0178L651.019 81.6622C653.692 83.5128 655.008 86.0368 655.008 89.34H657.008ZM652.178 80.0326C649.055 77.75 643.038 75.5609 634.318 73.4091L633.839 75.3509C642.572 77.5057 648.228 79.6233 650.998 81.6474L652.178 80.0326ZM634.309 73.4071C620.539 70.1337 610.565 65.9272 604.276 60.8518L603.02 62.4082C609.651 67.7595 619.964 72.053 633.847 75.3529L634.309 73.4071ZM604.291 60.864C598.244 55.7886 595.128 47.8451 595.128 36.81H593.128C593.128 48.2149 596.359 56.8181 603.005 62.396L604.291 60.864ZM595.128 36.81C595.128 25.7458 599.038 17.3321 606.804 11.4259L605.593 9.83405C597.265 16.1679 593.128 25.2076 593.128 36.81H595.128ZM606.798 11.43C614.754 5.46302 624.676 2.44999 636.628 2.44999V0.449993C624.327 0.449993 613.962 3.55697 605.598 9.83L606.798 11.43ZM636.628 2.44999C644.445 2.44999 652.269 3.78967 660.104 6.47594L660.753 4.58405C652.721 1.83031 644.678 0.449993 636.628 0.449993V2.44999ZM660.104 6.47594C667.93 9.15911 674.732 12.9537 680.522 17.8534L681.814 16.3266C675.818 11.2529 668.793 7.34088 660.753 4.58405L660.104 6.47594ZM680.346 16.5204L666.916 35.9004L668.56 37.0396L681.99 17.6596L680.346 16.5204ZM668.342 35.6732C657.887 27.7456 647.027 23.74 635.778 23.74V25.74C646.516 25.74 656.963 29.5544 667.134 37.2668L668.342 35.6732Z" fill="#C4C4C4"/>
</svg>
