<svg width="986" height="189" viewBox="0 0 986 189" fill="none" xmlns="http://www.w3.org/2000/svg">
<path d="M120.839 125.07L121.557 124.373L120.768 123.561L120.059 124.444L120.839 125.07ZM137.839 142.58L138.587 143.244L139.204 142.55L138.557 141.883L137.839 142.58ZM44.8495 148.02L44.1492 148.734L44.1527 148.737L44.8495 148.02ZM45.1895 60.13L44.4925 59.4129L44.4891 59.4162L45.1895 60.13ZM138.519 64.72L139.27 65.3814L139.854 64.7186L139.268 64.057L138.519 64.72ZM122.029 83.42L121.25 84.0468L121.994 84.9718L122.78 84.0814L122.029 83.42ZM65.0795 77.64L65.7563 78.3762L65.7568 78.3757L65.0795 77.64ZM64.5695 130.51L63.8623 131.217L64.5695 130.51ZM88.8795 141.54C102.221 141.54 113.16 136.242 121.619 125.696L120.059 124.444C111.973 134.525 101.604 139.54 88.8795 139.54V141.54ZM120.122 125.767L137.122 143.277L138.557 141.883L121.557 124.373L120.122 125.767ZM137.092 141.916C123.772 156.914 108.111 164.36 90.0695 164.36V166.36C108.748 166.36 124.933 158.619 138.587 143.244L137.092 141.916ZM90.0695 164.36C72.0546 164.36 57.2402 158.663 45.5462 147.303L44.1527 148.737C56.2587 160.497 71.591 166.36 90.0695 166.36V164.36ZM45.5497 147.306C33.968 135.947 28.1695 121.647 28.1695 104.33H26.1695C26.1695 122.146 32.1576 136.973 44.1492 148.734L45.5497 147.306ZM28.1695 104.33C28.1695 86.9034 34.0787 72.4321 45.8898 60.8438L44.4891 59.4162C32.2736 71.4013 26.1695 86.3966 26.1695 104.33H28.1695ZM45.8864 60.8471C57.8199 49.2482 72.3571 43.45 89.5595 43.45V41.45C71.8551 41.45 56.8123 47.4384 44.4925 59.4129L45.8864 60.8471ZM89.5595 43.45C108.761 43.45 124.81 50.7464 137.771 65.3829L139.268 64.057C125.935 49.0003 109.345 41.45 89.5595 41.45V43.45ZM137.769 64.0586L121.279 82.7586L122.78 84.0814L139.27 65.3814L137.769 64.0586ZM122.809 82.7932C114.248 72.1504 103.544 66.78 90.7495 66.78V68.78C102.889 68.78 113.037 73.8362 121.25 84.0468L122.809 82.7932ZM90.7495 66.78C80.5329 66.78 71.7323 70.1559 64.4021 76.9043L65.7568 78.3757C72.7066 71.9774 81.0194 68.78 90.7495 68.78V66.78ZM64.4027 76.9038C57.1358 83.5847 53.5395 92.6537 53.5395 103.99H55.5395C55.5395 93.113 58.9698 84.6153 65.7563 78.3762L64.4027 76.9038ZM53.5395 103.99C53.5395 115.202 56.9576 124.312 63.8623 131.217L65.2766 129.803C58.808 123.334 55.5395 114.765 55.5395 103.99H53.5395ZM63.8623 131.217C70.738 138.093 79.0962 141.54 88.8795 141.54V139.54C79.6227 139.54 71.7743 136.301 65.2766 129.803L63.8623 131.217ZM179.309 136.63L178.558 137.291L178.567 137.301L178.575 137.31L179.309 136.63ZM211.949 136.63L211.207 135.959L211.206 135.96L211.949 136.63ZM211.949 99.91L211.198 100.571L211.207 100.581L211.949 99.91ZM179.309 99.91L178.567 99.239L178.558 99.249L179.309 99.91ZM230.309 151.76L229.606 151.049L230.309 151.76ZM161.119 151.76L161.822 151.049L161.119 151.76ZM161.119 84.78L161.822 85.4915L161.826 85.4871L161.119 84.78ZM230.309 84.78L229.602 85.4871L229.606 85.4915L230.309 84.78ZM172.019 118.27C172.019 125.947 174.176 132.317 178.558 137.291L180.059 135.969C176.055 131.423 174.019 125.553 174.019 118.27H172.019ZM178.575 137.31C183.079 142.169 188.789 144.6 195.629 144.6V142.6C189.322 142.6 184.152 140.384 180.042 135.95L178.575 137.31ZM195.629 144.6C202.577 144.6 208.294 142.172 212.691 137.3L211.206 135.96C207.217 140.381 202.054 142.6 195.629 142.6V144.6ZM212.69 137.301C217.19 132.327 219.409 125.954 219.409 118.27H217.409C217.409 125.546 215.321 131.413 211.207 135.959L212.69 137.301ZM219.409 118.27C219.409 110.586 217.19 104.213 212.69 99.2391L211.207 100.581C215.321 105.127 217.409 110.994 217.409 118.27H219.409ZM212.699 99.249C208.305 94.2606 202.585 91.77 195.629 91.77V93.77C202.046 93.77 207.206 96.0394 211.198 100.571L212.699 99.249ZM195.629 91.77C188.781 91.77 183.069 94.2639 178.567 99.2391L180.05 100.581C184.162 96.0361 189.33 93.77 195.629 93.77V91.77ZM178.558 99.249C174.176 104.223 172.019 110.593 172.019 118.27H174.019C174.019 110.987 176.055 105.117 180.059 100.571L178.558 99.249ZM243.079 118.27C243.079 131.271 238.59 142.175 229.606 151.049L231.012 152.471C240.388 143.211 245.079 131.789 245.079 118.27H243.079ZM229.606 151.049C220.629 159.915 209.329 164.36 195.629 164.36V166.36C209.809 166.36 221.628 161.739 231.012 152.471L229.606 151.049ZM195.629 164.36C182.044 164.36 170.8 159.916 161.822 151.049L160.416 152.471C169.798 161.737 181.56 166.36 195.629 166.36V164.36ZM161.822 151.049C152.838 142.175 148.349 131.271 148.349 118.27H146.349C146.349 131.789 151.04 143.211 160.416 152.471L161.822 151.049ZM148.349 118.27C148.349 105.269 152.838 94.3645 161.822 85.4915L160.416 84.0685C151.04 93.3288 146.349 104.751 146.349 118.27H148.349ZM161.826 85.4871C170.805 76.5077 182.048 72.01 195.629 72.01V70.01C181.556 70.01 169.792 74.6923 160.412 84.0729L161.826 85.4871ZM195.629 72.01C209.325 72.01 220.624 76.5094 229.602 85.4871L231.016 84.0729C221.634 74.6906 209.812 70.01 195.629 70.01V72.01ZM229.606 85.4915C238.59 94.3645 243.079 105.269 243.079 118.27H245.079C245.079 104.751 240.388 93.3288 231.012 84.0685L229.606 85.4915ZM288.519 164V165H289.519V164H288.519ZM263.019 164H262.019V165H263.019V164ZM263.019 72.54V71.54H262.019V72.54H263.019ZM288.519 72.54H289.519V71.54H288.519V72.54ZM288.519 82.74H287.519V85.1794L289.231 83.4419L288.519 82.74ZM338.669 81.21L337.944 81.8988L337.95 81.905L338.669 81.21ZM348.529 164V165H349.529V164H348.529ZM323.029 164H322.029V165H323.029V164ZM294.129 96.85L294.825 97.5679L294.826 97.5676L294.129 96.85ZM287.519 113V164H289.519V113H287.519ZM288.519 163H263.019V165H288.519V163ZM264.019 164V72.54H262.019V164H264.019ZM263.019 73.54H288.519V71.54H263.019V73.54ZM287.519 72.54V82.74H289.519V72.54H287.519ZM289.231 83.4419C296.779 75.7836 305.202 72.01 314.529 72.01V70.01C304.59 70.01 295.673 74.0564 287.807 82.0381L289.231 83.4419ZM314.529 72.01C323.897 72.01 331.679 75.3035 337.944 81.8987L339.394 80.5212C332.74 73.5165 324.428 70.01 314.529 70.01V72.01ZM337.95 81.905C344.309 88.4826 347.529 97.2812 347.529 108.41H349.529C349.529 96.8721 346.177 87.5374 339.388 80.515L337.95 81.905ZM347.529 108.41V164H349.529V108.41H347.529ZM348.529 163H323.029V165H348.529V163ZM324.029 164V112.32H322.029V164H324.029ZM324.029 112.32C324.029 105.201 322.728 99.6797 319.968 95.9184C317.165 92.0993 312.968 90.24 307.559 90.24V92.24C312.464 92.24 316.002 93.8941 318.356 97.1016C320.752 100.367 322.029 105.386 322.029 112.32H324.029ZM307.559 90.24C302.184 90.24 297.462 92.2219 293.433 96.1324L294.826 97.5676C298.503 93.9981 302.734 92.24 307.559 92.24V90.24ZM293.433 96.1321C289.436 100.008 287.519 105.692 287.519 113H289.519C289.519 106.028 291.343 100.945 294.825 97.5679L293.433 96.1321ZM400.695 90.9V89.9H399.695V90.9H400.695ZM403.415 140.2L402.668 140.864L402.677 140.875L402.687 140.885L403.415 140.2ZM421.945 136.63L422.828 136.159L422.095 134.786L421.15 136.023L421.945 136.63ZM431.465 154.48L432.14 155.218L432.713 154.694L432.348 154.009L431.465 154.48ZM384.035 156.69L383.342 157.411L383.349 157.417L384.035 156.69ZM375.025 90.9H376.025V89.9H375.025V90.9ZM364.315 90.9H363.315V91.9H364.315V90.9ZM364.315 72.54V71.54H363.315V72.54H364.315ZM375.025 72.54V73.54H376.025V72.54H375.025ZM375.025 45.17V44.17H374.025V45.17H375.025ZM400.695 45.17H401.695V44.17H400.695V45.17ZM400.695 72.54H399.695V73.54H400.695V72.54ZM422.795 72.54H423.795V71.54H422.795V72.54ZM422.795 90.9V91.9H423.795V90.9H422.795ZM399.695 90.9V131.87H401.695V90.9H399.695ZM399.695 131.87C399.695 135.556 400.65 138.594 402.668 140.864L404.163 139.536C402.554 137.726 401.695 135.211 401.695 131.87H399.695ZM402.687 140.885C404.676 142.999 407.088 144.09 409.875 144.09V142.09C407.676 142.09 405.781 141.254 404.144 139.515L402.687 140.885ZM409.875 144.09C414.993 144.09 419.294 141.752 422.74 137.237L421.15 136.023C418.023 140.121 414.277 142.09 409.875 142.09V144.09ZM421.063 137.101L430.583 154.951L432.348 154.009L422.828 136.159L421.063 137.101ZM430.791 153.742C423 160.865 414.844 164.36 406.305 164.36V166.36C415.447 166.36 424.064 162.602 432.14 155.218L430.791 153.742ZM406.305 164.36C397.824 164.36 390.649 161.561 384.722 155.963L383.349 157.417C389.662 163.379 397.334 166.36 406.305 166.36V164.36ZM384.729 155.969C378.956 150.414 376.025 142.819 376.025 133.06H374.025C374.025 143.248 377.101 151.406 383.342 157.411L384.729 155.969ZM376.025 133.06V90.9H374.025V133.06H376.025ZM375.025 89.9H364.315V91.9H375.025V89.9ZM365.315 90.9V72.54H363.315V90.9H365.315ZM364.315 73.54H375.025V71.54H364.315V73.54ZM376.025 72.54V45.17H374.025V72.54H376.025ZM375.025 46.17H400.695V44.17H375.025V46.17ZM399.695 45.17V72.54H401.695V45.17H399.695ZM400.695 73.54H422.795V71.54H400.695V73.54ZM421.795 72.54V90.9H423.795V72.54H421.795ZM422.795 89.9H400.695V91.9H422.795V89.9ZM522.828 164V165H523.828V164H522.828ZM498.858 164H497.858V165H498.858V164ZM498.858 152.95H499.858V150.084L498.075 152.328L498.858 152.95ZM450.068 157.03L449.415 157.787L449.423 157.794L450.068 157.03ZM450.408 113.51L450.973 114.336L450.408 113.51ZM497.328 106.54V107.54H498.328V106.54H497.328ZM467.748 94.13L468.078 95.0743L468.09 95.0698L467.748 94.13ZM455.338 100.59L454.516 101.158L455.113 102.023L455.947 101.384L455.338 100.59ZM443.948 84.1L443.361 83.2909L442.571 83.8648L443.126 84.6683L443.948 84.1ZM512.288 79.34L511.668 80.1246L512.288 79.34ZM497.158 124.73H498.158V123.73H497.158V124.73ZM469.448 141.9L468.842 142.695L468.863 142.711L468.885 142.726L469.448 141.9ZM491.888 140.37L492.513 141.151L492.516 141.148L491.888 140.37ZM522.828 163H498.858V165H522.828V163ZM499.858 164V152.95H497.858V164H499.858ZM498.075 152.328C491.673 160.386 483.792 164.36 474.378 164.36V166.36C484.458 166.36 492.897 162.061 499.641 153.572L498.075 152.328ZM474.378 164.36C464.951 164.36 457.085 161.649 450.714 156.266L449.423 157.794C456.199 163.518 464.539 166.36 474.378 166.36V164.36ZM450.721 156.273C444.385 150.811 441.208 143.616 441.208 134.59H439.208C439.208 144.151 442.605 151.916 449.415 157.787L450.721 156.273ZM441.208 134.59C441.208 125.459 444.487 118.767 450.973 114.336L449.844 112.684C442.729 117.546 439.208 124.908 439.208 134.59H441.208ZM450.973 114.336C457.549 109.842 466.62 107.54 478.288 107.54V105.54C466.383 105.54 456.868 107.885 449.844 112.684L450.973 114.336ZM478.288 107.54H497.328V105.54H478.288V107.54ZM498.328 106.54V106.03H496.328V106.54H498.328ZM498.328 106.03C498.328 100.988 496.992 97.0259 494.148 94.3382C491.314 91.6605 487.156 90.41 481.858 90.41V92.41C486.875 92.41 490.451 93.5962 492.774 95.7918C495.087 97.9774 496.328 101.326 496.328 106.03H498.328ZM481.858 90.41C477.301 90.41 472.481 91.3448 467.407 93.1902L468.09 95.0698C472.989 93.2885 477.576 92.41 481.858 92.41V90.41ZM467.419 93.1858C462.465 94.9139 458.23 97.1133 454.73 99.7964L455.947 101.384C459.247 98.8533 463.285 96.7461 468.078 95.0742L467.419 93.1858ZM456.161 100.022L444.771 83.5317L443.126 84.6683L454.516 101.158L456.161 100.022ZM444.536 84.9091C456.372 76.3114 469.878 72.01 485.088 72.01V70.01C469.472 70.01 455.552 74.4352 443.361 83.2909L444.536 84.9091ZM485.088 72.01C496.025 72.01 504.857 74.7416 511.668 80.1246L512.908 78.5554C505.666 72.8317 496.365 70.01 485.088 70.01V72.01ZM511.668 80.1246C518.379 85.4283 521.828 93.8706 521.828 105.69H523.828C523.828 93.4827 520.251 84.3584 512.908 78.5554L511.668 80.1246ZM521.828 105.69V164H523.828V105.69H521.828ZM498.158 129.15V124.73H496.158V129.15H498.158ZM497.158 123.73H481.178V125.73H497.158V123.73ZM481.178 123.73C476.007 123.73 471.959 124.529 469.175 126.261C466.312 128.042 464.878 130.755 464.878 134.25H466.878C466.878 131.399 467.995 129.351 470.232 127.959C472.548 126.518 476.15 125.73 481.178 125.73V123.73ZM464.878 134.25C464.878 137.813 466.187 140.673 468.842 142.695L470.054 141.105C467.949 139.501 466.878 137.26 466.878 134.25H464.878ZM468.885 142.726C471.609 144.583 475.349 145.45 479.988 145.45V143.45C475.561 143.45 472.275 142.617 470.012 141.074L468.885 142.726ZM479.988 145.45C484.739 145.45 488.928 144.019 492.513 141.151L491.264 139.589C488.049 142.161 484.305 143.45 479.988 143.45V145.45ZM492.516 141.148C496.273 138.119 498.158 134.089 498.158 129.15H496.158C496.158 133.505 494.531 136.954 491.261 139.592L492.516 141.148ZM612.886 130L613.633 129.335L612.845 128.45L612.105 129.375L612.886 130ZM628.016 147L628.736 147.694L629.378 147.027L628.763 146.335L628.016 147ZM554.916 152.44L554.236 153.173L554.245 153.182L554.916 152.44ZM555.086 84.27L555.762 85.0071L555.762 85.0068L555.086 84.27ZM609.146 75.09L608.769 76.0163L608.774 76.0185L609.146 75.09ZM626.996 87.16L627.79 87.7674L628.31 87.0871L627.718 86.4684L626.996 87.16ZM613.736 104.5L612.97 105.143L613.772 106.099L614.53 105.107L613.736 104.5ZM602.856 96.34L602.438 97.2487L602.448 97.2528L602.856 96.34ZM572.936 100.08L573.607 100.822L573.608 100.821L572.936 100.08ZM572.936 136.29L572.265 137.032L572.274 137.039L572.936 136.29ZM589.936 143.75C598.822 143.75 606.735 139.29 613.667 130.625L612.105 129.375C605.437 137.71 598.05 141.75 589.936 141.75V143.75ZM612.139 130.665L627.269 147.665L628.763 146.335L613.633 129.335L612.139 130.665ZM627.296 146.306C615.649 158.4 603.145 164.36 589.766 164.36V166.36C603.813 166.36 616.809 160.08 628.736 147.694L627.296 146.306ZM589.766 164.36C576.282 164.36 564.91 160.133 555.587 151.698L554.245 153.182C563.962 161.973 575.823 166.36 589.766 166.36V164.36ZM555.596 151.707C546.412 143.187 541.806 132.129 541.806 118.44H539.806C539.806 132.631 544.606 144.24 554.236 153.173L555.596 151.707ZM541.806 118.44C541.806 104.639 546.468 93.5265 555.762 85.0071L554.41 83.5328C544.664 92.4668 539.806 104.134 539.806 118.44H541.806ZM555.762 85.0068C565.21 76.3371 576.358 72.01 589.256 72.01V70.01C575.86 70.01 564.229 74.5229 554.41 83.5332L555.762 85.0068ZM589.256 72.01C595.688 72.01 602.19 73.3402 608.769 76.0163L609.523 74.1637C602.728 71.3998 595.971 70.01 589.256 70.01V72.01ZM608.774 76.0185C615.441 78.6851 621.272 82.6273 626.274 87.8516L627.718 86.4684C622.52 81.0394 616.451 76.9349 609.517 74.1615L608.774 76.0185ZM626.202 86.5525L612.942 103.893L614.53 105.107L627.79 87.7674L626.202 86.5525ZM614.502 103.857C611.455 100.225 607.705 97.4138 603.264 95.4272L602.448 97.2528C606.62 99.1195 610.123 101.749 612.97 105.143L614.502 103.857ZM603.273 95.4313C598.962 93.4506 594.627 92.45 590.276 92.45V94.45C594.311 94.45 598.363 95.3761 602.438 97.2487L603.273 95.4313ZM590.276 92.45C583.345 92.45 577.325 94.7494 572.264 99.3393L573.608 100.821C578.294 96.5706 583.833 94.45 590.276 94.45V92.45ZM572.265 99.3385C567.251 103.875 564.796 110.234 564.796 118.27H566.796C566.796 110.666 569.101 104.898 573.607 100.822L572.265 99.3385ZM564.796 118.27C564.796 126.198 567.254 132.498 572.265 137.032L573.607 135.548C569.098 131.469 566.796 125.756 566.796 118.27H564.796ZM572.274 137.039C577.328 141.506 583.23 143.75 589.936 143.75V141.75C583.722 141.75 578.29 139.687 573.598 135.541L572.274 137.039ZM675.451 90.9V89.9H674.451V90.9H675.451ZM678.171 140.2L677.424 140.864L677.433 140.875L677.443 140.885L678.171 140.2ZM696.701 136.63L697.584 136.159L696.851 134.786L695.906 136.023L696.701 136.63ZM706.221 154.48L706.896 155.218L707.469 154.694L707.104 154.009L706.221 154.48ZM658.791 156.69L658.098 157.411L658.105 157.417L658.791 156.69ZM649.781 90.9H650.781V89.9H649.781V90.9ZM639.071 90.9H638.071V91.9H639.071V90.9ZM639.071 72.54V71.54H638.071V72.54H639.071ZM649.781 72.54V73.54H650.781V72.54H649.781ZM649.781 45.17V44.17H648.781V45.17H649.781ZM675.451 45.17H676.451V44.17H675.451V45.17ZM675.451 72.54H674.451V73.54H675.451V72.54ZM697.551 72.54H698.551V71.54H697.551V72.54ZM697.551 90.9V91.9H698.551V90.9H697.551ZM674.451 90.9V131.87H676.451V90.9H674.451ZM674.451 131.87C674.451 135.556 675.405 138.594 677.424 140.864L678.919 139.536C677.31 137.726 676.451 135.211 676.451 131.87H674.451ZM677.443 140.885C679.432 142.999 681.844 144.09 684.631 144.09V142.09C682.432 142.09 680.537 141.254 678.899 139.515L677.443 140.885ZM684.631 144.09C689.749 144.09 694.05 141.752 697.496 137.237L695.906 136.023C692.779 140.121 689.033 142.09 684.631 142.09V144.09ZM695.819 137.101L705.339 154.951L707.104 154.009L697.584 136.159L695.819 137.101ZM705.546 153.742C697.756 160.865 689.6 164.36 681.061 164.36V166.36C690.202 166.36 698.82 162.602 706.896 155.218L705.546 153.742ZM681.061 164.36C672.579 164.36 665.405 161.561 659.478 155.963L658.105 157.417C664.418 163.379 672.09 166.36 681.061 166.36V164.36ZM659.485 155.969C653.712 150.414 650.781 142.819 650.781 133.06H648.781C648.781 143.248 651.857 151.406 658.098 157.411L659.485 155.969ZM650.781 133.06V90.9H648.781V133.06H650.781ZM649.781 89.9H639.071V91.9H649.781V89.9ZM640.071 90.9V72.54H638.071V90.9H640.071ZM639.071 73.54H649.781V71.54H639.071V73.54ZM650.781 72.54V45.17H648.781V72.54H650.781ZM649.781 46.17H675.451V44.17H649.781V46.17ZM674.451 45.17V72.54H676.451V45.17H674.451ZM675.451 73.54H697.551V71.54H675.451V73.54ZM696.551 72.54V90.9H698.551V72.54H696.551ZM697.551 89.9H675.451V91.9H697.551V89.9ZM798.718 133.4L797.936 134.023L797.942 134.031L798.718 133.4ZM834.248 133.4L833.466 132.777L833.464 132.779L834.248 133.4ZM840.878 45.17V44.17H839.878V45.17H840.878ZM867.398 45.17H868.398V44.17H867.398V45.17ZM853.118 151.42L853.813 152.14L853.817 152.136L853.118 151.42ZM779.848 151.25L779.15 151.966L779.154 151.97L779.848 151.25ZM765.568 45.17V44.17H764.568V45.17H765.568ZM792.088 45.17H793.088V44.17H792.088V45.17ZM797.942 134.031C802.566 139.722 808.81 142.56 816.568 142.56V140.56C809.366 140.56 803.711 137.958 799.495 132.769L797.942 134.031ZM816.568 142.56C824.327 142.56 830.52 139.721 835.032 134.021L833.464 132.779C829.364 137.959 823.77 140.56 816.568 140.56V142.56ZM835.031 134.023C839.633 128.24 841.878 120.459 841.878 110.79H839.878C839.878 120.161 837.704 127.453 833.466 132.777L835.031 134.023ZM841.878 110.79V45.17H839.878V110.79H841.878ZM840.878 46.17H867.398V44.17H840.878V46.17ZM866.398 45.17V111.64H868.398V45.17H866.398ZM866.398 111.64C866.398 128.68 861.695 141.65 852.42 150.704L853.817 152.136C863.582 142.603 868.398 129.053 868.398 111.64H866.398ZM852.424 150.7C843.114 159.678 831.191 164.19 816.568 164.19V166.19C831.64 166.19 844.083 161.522 853.813 152.14L852.424 150.7ZM816.568 164.19C801.95 164.19 789.969 159.624 780.543 150.53L779.154 151.97C788.995 161.463 801.494 166.19 816.568 166.19V164.19ZM780.547 150.534C771.271 141.479 766.568 128.565 766.568 111.64H764.568C764.568 128.942 769.386 142.434 779.15 151.966L780.547 150.534ZM766.568 111.64V45.17H764.568V111.64H766.568ZM765.568 46.17H792.088V44.17H765.568V46.17ZM791.088 45.17V110.79H793.088V45.17H791.088ZM791.088 110.79C791.088 120.459 793.334 128.24 797.936 134.023L799.501 132.777C795.263 127.453 793.088 120.161 793.088 110.79H791.088ZM948.88 157.2L948.249 156.424L948.243 156.43L948.88 157.2ZM902.47 161.79L902.15 162.737L902.163 162.742L902.47 161.79ZM882.58 150.91L881.762 150.335L881.225 151.101L881.952 151.688L882.58 150.91ZM893.8 134.93L894.412 134.139L893.584 133.498L892.982 134.355L893.8 134.93ZM932.05 144.11L932.594 144.95L932.61 144.939L932.627 144.927L932.05 144.11ZM930.86 132.89L930.289 133.711L930.297 133.717L930.306 133.722L930.86 132.89ZM919.3 127.79L918.997 128.743L919.003 128.745L919.3 127.79ZM907.74 123.71L907.341 124.627L907.349 124.63L907.356 124.633L907.74 123.71ZM898.73 118.78L899.265 117.935L899.259 117.931L898.73 118.78ZM898.56 79L899.177 79.7872L898.56 79ZM957.21 81.89L958.083 82.3786L958.533 81.5751L957.769 81.0606L957.21 81.89ZM947.69 98.89L947.125 99.7147L948.028 100.334L948.563 99.3786L947.69 98.89ZM940.55 111.81L940.156 112.729L940.182 112.74L940.208 112.75L940.55 111.81ZM949.39 116.23L949.909 115.375L949.905 115.373L949.39 116.23ZM957.91 135.61C957.91 144.276 954.692 151.183 948.249 156.424L949.511 157.976C956.442 152.337 959.91 144.851 959.91 135.61H957.91ZM948.243 156.43C941.882 161.694 933.735 164.36 923.72 164.36V166.36C934.106 166.36 942.732 163.586 949.518 157.97L948.243 156.43ZM923.72 164.36C917.038 164.36 910.059 163.191 902.778 160.838L902.163 162.742C909.615 165.149 916.803 166.36 923.72 166.36V164.36ZM902.791 160.843C895.533 158.386 889.008 154.816 883.209 150.132L881.952 151.688C887.939 156.524 894.674 160.207 902.15 162.737L902.791 160.843ZM883.399 151.485L894.619 135.505L892.982 134.355L881.762 150.335L883.399 151.485ZM893.188 135.721C902.862 143.206 913.216 146.98 924.23 146.98V144.98C913.711 144.98 903.779 141.387 894.412 134.139L893.188 135.721ZM924.23 146.98C927.63 146.98 930.449 146.337 932.594 144.95L931.507 143.27C929.798 144.376 927.403 144.98 924.23 144.98V146.98ZM932.627 144.927C934.789 143.4 935.94 141.353 935.94 138.84H933.94C933.94 140.634 933.164 142.1 931.474 143.293L932.627 144.927ZM935.94 138.84C935.94 136.204 934.261 133.956 931.415 132.058L930.306 133.722C932.899 135.451 933.94 137.17 933.94 138.84H935.94ZM931.431 132.069C928.703 130.171 924.738 128.434 919.597 126.835L919.003 128.745C924.062 130.319 927.804 131.982 930.289 133.711L931.431 132.069ZM919.603 126.837C914.627 125.254 910.805 123.904 908.125 122.787L907.356 124.633C910.115 125.783 914 127.153 918.997 128.743L919.603 126.837ZM908.139 122.793C905.594 121.687 902.638 120.071 899.265 117.935L898.195 119.625C901.622 121.795 904.673 123.467 907.341 124.627L908.139 122.793ZM899.259 117.931C892.649 113.814 889.36 107.794 889.36 99.74H887.36C887.36 108.46 890.985 115.133 898.201 119.629L899.259 117.931ZM889.36 99.74C889.36 91.5532 892.614 84.9279 899.177 79.7872L897.944 78.2128C890.906 83.7254 887.36 90.9268 887.36 99.74H889.36ZM899.177 79.7872C905.761 74.6295 914.311 72.01 924.91 72.01V70.01C913.976 70.01 904.959 72.7171 897.944 78.2128L899.177 79.7872ZM924.91 72.01C935.44 72.01 946.016 75.554 956.651 82.7194L957.769 81.0606C946.872 73.7193 935.914 70.01 924.91 70.01V72.01ZM956.338 81.4014L946.818 98.4014L948.563 99.3786L958.083 82.3786L956.338 81.4014ZM948.256 98.0653C940.192 92.5357 932.065 89.73 923.89 89.73V91.73C931.582 91.73 939.322 94.3643 947.125 99.7147L948.256 98.0653ZM923.89 89.73C919.921 89.73 916.786 90.2708 914.61 91.469C913.507 92.0765 912.633 92.8631 912.038 93.8459C911.442 94.8306 911.16 95.957 911.16 97.19H913.16C913.16 96.2697 913.367 95.5119 913.749 94.8816C914.131 94.2494 914.723 93.6902 915.575 93.2209C917.309 92.2659 920.039 91.73 923.89 91.73V89.73ZM911.16 97.19C911.16 100.013 912.681 102.183 915.421 103.678L916.379 101.922C914.133 100.697 913.16 99.1266 913.16 97.19H911.16ZM915.421 103.678C918.006 105.088 922.222 106.698 928.011 108.514L928.61 106.606C922.838 104.795 918.781 103.232 916.379 101.922L915.421 103.678ZM928.011 108.514C933.79 110.327 937.827 111.731 940.156 112.729L940.944 110.891C938.513 109.849 934.391 108.42 928.61 106.606L928.011 108.514ZM940.208 112.75C942.62 113.627 945.507 115.066 948.876 117.087L949.905 115.373C946.474 113.314 943.467 111.807 940.892 110.87L940.208 112.75ZM948.871 117.085C954.85 120.715 957.91 126.803 957.91 135.61H959.91C959.91 126.284 956.624 119.452 949.909 115.375L948.871 117.085Z" fill="#C4C4C4"/>
<path d="M243 177H474C480.627 177 486 182.373 486 189H255C248.373 189 243 183.627 243 177Z" fill="#D92F30"/>
<path d="M54.08 158.6C49.84 158.6 46 157.68 42.56 155.84C39.16 153.96 36.48 151.38 34.52 148.1C32.6 144.82 31.64 141.12 31.64 137C31.64 132.88 32.62 129.18 34.58 125.9C36.54 122.62 39.22 120.06 42.62 118.22C46.06 116.34 49.9 115.4 54.14 115.4C57.58 115.4 60.72 116 63.56 117.2C66.4 118.4 68.8 120.14 70.76 122.42L65.72 127.16C62.68 123.88 58.94 122.24 54.5 122.24C51.62 122.24 49.04 122.88 46.76 124.16C44.48 125.4 42.7 127.14 41.42 129.38C40.14 131.62 39.5 134.16 39.5 137C39.5 139.84 40.14 142.38 41.42 144.62C42.7 146.86 44.48 148.62 46.76 149.9C49.04 151.14 51.62 151.76 54.5 151.76C58.94 151.76 62.68 150.1 65.72 146.78L70.76 151.58C68.8 153.86 66.38 155.6 63.5 156.8C60.66 158 57.52 158.6 54.08 158.6ZM90.7419 158.42C87.5019 158.42 84.5819 157.72 81.9819 156.32C79.3819 154.92 77.3419 152.98 75.8619 150.5C74.4219 147.98 73.7019 145.14 73.7019 141.98C73.7019 138.82 74.4219 136 75.8619 133.52C77.3419 131.04 79.3819 129.1 81.9819 127.7C84.5819 126.3 87.5019 125.6 90.7419 125.6C94.0219 125.6 96.9619 126.3 99.5619 127.7C102.162 129.1 104.182 131.04 105.622 133.52C107.102 136 107.842 138.82 107.842 141.98C107.842 145.14 107.102 147.98 105.622 150.5C104.182 152.98 102.162 154.92 99.5619 156.32C96.9619 157.72 94.0219 158.42 90.7419 158.42ZM90.7419 152C93.5019 152 95.7819 151.08 97.5819 149.24C99.3819 147.4 100.282 144.98 100.282 141.98C100.282 138.98 99.3819 136.56 97.5819 134.72C95.7819 132.88 93.5019 131.96 90.7419 131.96C87.9819 131.96 85.7019 132.88 83.9019 134.72C82.1419 136.56 81.2619 138.98 81.2619 141.98C81.2619 144.98 82.1419 147.4 83.9019 149.24C85.7019 151.08 87.9819 152 90.7419 152ZM133.194 125.6C137.234 125.6 140.474 126.78 142.914 129.14C145.354 131.5 146.574 135 146.574 139.64V158H139.074V140.6C139.074 137.8 138.414 135.7 137.094 134.3C135.774 132.86 133.894 132.14 131.454 132.14C128.694 132.14 126.514 132.98 124.914 134.66C123.314 136.3 122.514 138.68 122.514 141.8V158H115.014V125.96H122.154V130.1C123.394 128.62 124.954 127.5 126.834 126.74C128.714 125.98 130.834 125.6 133.194 125.6ZM175.348 156.26C174.468 156.98 173.388 157.52 172.108 157.88C170.868 158.24 169.548 158.42 168.148 158.42C164.628 158.42 161.908 157.5 159.988 155.66C158.068 153.82 157.108 151.14 157.108 147.62V132.2H151.828V126.2H157.108V118.88H164.608V126.2H173.188V132.2H164.608V147.44C164.608 149 164.988 150.2 165.748 151.04C166.508 151.84 167.608 152.24 169.048 152.24C170.728 152.24 172.128 151.8 173.248 150.92L175.348 156.26ZM193.758 125.6C198.478 125.6 202.078 126.74 204.558 129.02C207.078 131.26 208.338 134.66 208.338 139.22V158H201.258V154.1C200.338 155.5 199.018 156.58 197.298 157.34C195.618 158.06 193.578 158.42 191.178 158.42C188.778 158.42 186.678 158.02 184.878 157.22C183.078 156.38 181.678 155.24 180.678 153.8C179.718 152.32 179.238 150.66 179.238 148.82C179.238 145.94 180.298 143.64 182.418 141.92C184.578 140.16 187.958 139.28 192.558 139.28H200.838V138.8C200.838 136.56 200.158 134.84 198.798 133.64C197.478 132.44 195.498 131.84 192.858 131.84C191.058 131.84 189.278 132.12 187.518 132.68C185.798 133.24 184.338 134.02 183.138 135.02L180.198 129.56C181.878 128.28 183.898 127.3 186.258 126.62C188.618 125.94 191.118 125.6 193.758 125.6ZM192.738 152.96C194.618 152.96 196.278 152.54 197.718 151.7C199.198 150.82 200.238 149.58 200.838 147.98V144.26H193.098C188.778 144.26 186.618 145.68 186.618 148.52C186.618 149.88 187.158 150.96 188.238 151.76C189.318 152.56 190.818 152.96 192.738 152.96ZM232.956 158.42C229.636 158.42 226.656 157.72 224.016 156.32C221.376 154.92 219.316 152.98 217.836 150.5C216.356 147.98 215.616 145.14 215.616 141.98C215.616 138.82 216.356 136 217.836 133.52C219.316 131.04 221.356 129.1 223.956 127.7C226.596 126.3 229.596 125.6 232.956 125.6C236.116 125.6 238.876 126.24 241.236 127.52C243.636 128.8 245.436 130.64 246.636 133.04L240.876 136.4C239.956 134.92 238.796 133.82 237.396 133.1C236.036 132.34 234.536 131.96 232.896 131.96C230.096 131.96 227.776 132.88 225.936 134.72C224.096 136.52 223.176 138.94 223.176 141.98C223.176 145.02 224.076 147.46 225.876 149.3C227.716 151.1 230.056 152 232.896 152C234.536 152 236.036 151.64 237.396 150.92C238.796 150.16 239.956 149.04 240.876 147.56L246.636 150.92C245.396 153.32 243.576 155.18 241.176 156.5C238.816 157.78 236.076 158.42 232.956 158.42ZM272.789 156.26C271.909 156.98 270.829 157.52 269.549 157.88C268.309 158.24 266.989 158.42 265.589 158.42C262.069 158.42 259.349 157.5 257.429 155.66C255.509 153.82 254.549 151.14 254.549 147.62V132.2H249.269V126.2H254.549V118.88H262.049V126.2H270.629V132.2H262.049V147.44C262.049 149 262.429 150.2 263.189 151.04C263.949 151.84 265.049 152.24 266.489 152.24C268.169 152.24 269.569 151.8 270.689 150.92L272.789 156.26ZM314.321 158.6C308.521 158.6 304.001 156.98 300.761 153.74C297.521 150.46 295.901 145.78 295.901 139.7V116H303.701V139.4C303.701 147.64 307.261 151.76 314.381 151.76C321.461 151.76 325.001 147.64 325.001 139.4V116H332.681V139.7C332.681 145.78 331.061 150.46 327.821 153.74C324.621 156.98 320.121 158.6 314.321 158.6ZM352.785 158.42C350.185 158.42 347.645 158.08 345.165 157.4C342.685 156.72 340.705 155.86 339.225 154.82L342.105 149.12C343.545 150.08 345.265 150.86 347.265 151.46C349.305 152.02 351.305 152.3 353.265 152.3C357.745 152.3 359.985 151.12 359.985 148.76C359.985 147.64 359.405 146.86 358.245 146.42C357.125 145.98 355.305 145.56 352.785 145.16C350.145 144.76 347.985 144.3 346.305 143.78C344.665 143.26 343.225 142.36 341.985 141.08C340.785 139.76 340.185 137.94 340.185 135.62C340.185 132.58 341.445 130.16 343.965 128.36C346.525 126.52 349.965 125.6 354.285 125.6C356.485 125.6 358.685 125.86 360.885 126.38C363.085 126.86 364.885 127.52 366.285 128.36L363.405 134.06C360.685 132.46 357.625 131.66 354.225 131.66C352.025 131.66 350.345 132 349.185 132.68C348.065 133.32 347.505 134.18 347.505 135.26C347.505 136.46 348.105 137.32 349.305 137.84C350.545 138.32 352.445 138.78 355.005 139.22C357.565 139.62 359.665 140.08 361.305 140.6C362.945 141.12 364.345 142 365.505 143.24C366.705 144.48 367.305 146.24 367.305 148.52C367.305 151.52 366.005 153.92 363.405 155.72C360.805 157.52 357.265 158.42 352.785 158.42Z" fill="black"/>
</svg>
