<svg width="1247" height="183" viewBox="0 0 1247 183" fill="none" xmlns="http://www.w3.org/2000/svg">
<path d="M92.99 50.27L92.5752 51.1799L92.5802 51.1822L92.99 50.27ZM111.01 111.13L111.849 111.674L111.853 111.668L111.01 111.13ZM92.99 126.09L93.3937 127.005L93.3998 127.002L92.99 126.09ZM41.65 131.19V130.19H40.65V131.19H41.65ZM41.65 164V165H42.65V164H41.65ZM14.11 164H13.11V165H14.11V164ZM14.11 45V44H13.11V45H14.11ZM82.96 103.48L83.5921 104.255L83.5982 104.25L83.6041 104.245L82.96 103.48ZM82.96 72.88L82.3159 73.6449L82.3218 73.6499L82.3279 73.6549L82.96 72.88ZM41.65 67.44V66.44H40.65V67.44H41.65ZM41.65 108.75H40.65V109.75H41.65V108.75ZM65.62 46C76.0509 46 85.0265 47.7386 92.5752 51.1799L93.4048 49.3601C85.5402 45.7747 76.2691 44 65.62 44V46ZM92.5802 51.1822C100.245 54.6259 106.094 59.4936 110.171 65.7745L111.849 64.6855C107.539 58.0464 101.375 52.9407 93.3998 49.3578L92.5802 51.1822ZM110.171 65.7745C114.244 72.0494 116.3 79.5039 116.3 88.18H118.3C118.3 79.176 116.162 71.3306 111.849 64.6855L110.171 65.7745ZM116.3 88.18C116.3 96.7395 114.246 104.198 110.167 110.592L111.853 111.668C116.161 104.915 118.3 97.0738 118.3 88.18H116.3ZM110.171 110.586C106.094 116.866 100.245 121.734 92.5802 125.178L93.3998 127.002C101.375 123.419 107.539 118.314 111.849 111.674L110.171 110.586ZM92.5864 125.175C85.0346 128.507 76.0548 130.19 65.62 130.19V132.19C76.2652 132.19 85.5321 130.473 93.3936 127.005L92.5864 125.175ZM65.62 130.19H41.65V132.19H65.62V130.19ZM40.65 131.19V164H42.65V131.19H40.65ZM41.65 163H14.11V165H41.65V163ZM15.11 164V45H13.11V164H15.11ZM14.11 46H65.62V44H14.11V46ZM64.09 109.75C72.4853 109.75 79.038 107.97 83.5921 104.255L82.3279 102.705C78.2687 106.017 72.2414 107.75 64.09 107.75V109.75ZM83.6041 104.245C88.1753 100.396 90.42 94.9934 90.42 88.18H88.42C88.42 94.5132 86.3581 99.3111 82.3159 102.715L83.6041 104.245ZM90.42 88.18C90.42 81.2604 88.1793 75.8473 83.5921 72.1051L82.3279 73.6549C86.354 76.9394 88.42 81.7263 88.42 88.18H90.42ZM83.6041 72.1151C79.0492 68.2793 72.4915 66.44 64.09 66.44V68.44C72.2352 68.44 78.2575 70.2273 82.3159 73.6449L83.6041 72.1151ZM64.09 66.44H41.65V68.44H64.09V66.44ZM40.65 67.44V108.75H42.65V67.44H40.65ZM41.65 109.75H64.09V107.75H41.65V109.75ZM136.962 45V44H135.962V45H136.962ZM164.502 45H165.502V44H164.502V45ZM164.502 141.56H163.502V142.56H164.502V141.56ZM224.172 141.56H225.172V140.56H224.172V141.56ZM224.172 164V165H225.172V164H224.172ZM136.962 164H135.962V165H136.962V164ZM136.962 46H164.502V44H136.962V46ZM163.502 45V141.56H165.502V45H163.502ZM164.502 142.56H224.172V140.56H164.502V142.56ZM223.172 141.56V164H225.172V141.56H223.172ZM224.172 163H136.962V165H224.172V163ZM137.962 164V45H135.962V164H137.962ZM318.925 138.5L319.849 138.118L319.594 137.5H318.925V138.5ZM263.675 138.5V137.5H263.007L262.751 138.118L263.675 138.5ZM253.135 164V165H253.804L254.059 164.382L253.135 164ZM224.915 164L224.002 163.593L223.375 165H224.915V164ZM277.955 45V44H277.306L277.042 44.5929L277.955 45ZM305.155 45L306.068 44.5918L305.804 44H305.155V45ZM358.365 164V165H359.908L359.278 163.592L358.365 164ZM329.465 164L328.541 164.382L328.797 165H329.465V164ZM310.255 117.59V118.59H311.752L311.179 117.207L310.255 117.59ZM291.385 72.03L292.309 71.6473L291.385 69.4167L290.461 71.6473L291.385 72.03ZM272.515 117.59L271.591 117.207L271.019 118.59H272.515V117.59ZM318.925 137.5H263.675V139.5H318.925V137.5ZM262.751 138.118L252.211 163.618L254.059 164.382L264.599 138.882L262.751 138.118ZM253.135 163H224.915V165H253.135V163ZM225.829 164.407L278.869 45.4071L277.042 44.5929L224.002 163.593L225.829 164.407ZM277.955 46H305.155V44H277.955V46ZM304.242 45.4082L357.452 164.408L359.278 163.592L306.068 44.5918L304.242 45.4082ZM358.365 163H329.465V165H358.365V163ZM330.389 163.618L319.849 138.118L318.001 138.882L328.541 164.382L330.389 163.618ZM311.179 117.207L292.309 71.6473L290.461 72.4127L309.331 117.973L311.179 117.207ZM290.461 71.6473L271.591 117.207L273.439 117.973L292.309 72.4127L290.461 71.6473ZM272.515 118.59H310.255V116.59H272.515V118.59ZM393.021 158.22L392.542 159.098L392.554 159.104L393.021 158.22ZM369.901 136.29L369.04 136.798L369.044 136.805L369.048 136.811L369.901 136.29ZM369.901 72.88L369.045 72.364L369.043 72.367L369.901 72.88ZM393.021 50.95L393.493 51.8318L393.497 51.8298L393.021 50.95ZM454.051 48.4L453.65 49.3159L453.654 49.3179L454.051 48.4ZM475.131 64.04L475.81 64.7748L476.508 64.1301L475.9 63.3998L475.131 64.04ZM457.451 80.36L456.695 81.0146L457.371 81.795L458.13 81.0948L457.451 80.36ZM407.811 71.35L408.293 72.2266L408.299 72.223L408.306 72.2193L407.811 71.35ZM394.211 84.78L393.342 84.2857L393.338 84.2922L393.335 84.2987L394.211 84.78ZM394.211 124.22L393.335 124.701L393.338 124.708L393.342 124.714L394.211 124.22ZM407.811 137.82L407.317 138.689L407.324 138.693L407.33 138.697L407.811 137.82ZM457.451 128.47L458.13 127.735L457.367 127.031L456.692 127.82L457.451 128.47ZM475.131 144.79L475.905 145.424L476.503 144.695L475.81 144.055L475.131 144.79ZM454.051 160.6L453.654 159.682L453.654 159.682L454.051 160.6ZM426.001 165.04C414.023 165.04 403.192 162.467 393.489 157.336L392.554 159.104C402.57 164.4 413.726 167.04 426.001 167.04V165.04ZM393.501 157.342C383.905 152.098 376.329 144.91 370.755 135.769L369.048 136.811C374.808 146.257 382.645 153.689 392.542 159.098L393.501 157.342ZM370.763 135.782C365.307 126.541 362.571 116.122 362.571 104.5H360.571C360.571 116.451 363.389 127.226 369.04 136.798L370.763 135.782ZM362.571 104.5C362.571 92.8774 365.307 82.5176 370.76 73.393L369.043 72.367C363.389 81.8291 360.571 92.5493 360.571 104.5H362.571ZM370.758 73.396C376.331 64.1448 383.904 56.9607 393.493 51.8318L392.55 50.0682C382.645 55.366 374.805 62.8019 369.045 72.364L370.758 73.396ZM393.497 51.8298C403.198 46.5892 414.082 43.96 426.171 43.96V41.96C413.781 41.96 402.565 44.6575 392.546 50.0702L393.497 51.8298ZM426.171 43.96C436.366 43.96 445.52 45.752 453.65 49.3159L454.453 47.4841C446.036 43.7946 436.603 41.96 426.171 41.96V43.96ZM453.654 49.3179C461.902 52.8844 468.8 58.0045 474.363 64.6802L475.9 63.3998C470.129 56.4755 462.974 51.1689 454.448 47.4821L453.654 49.3179ZM474.453 63.3052L456.773 79.6252L458.13 81.0948L475.81 64.7748L474.453 63.3052ZM458.207 79.7054C449.978 70.201 439.732 65.42 427.531 65.42V67.42C439.13 67.42 448.832 71.9323 456.695 81.0146L458.207 79.7054ZM427.531 65.42C420.011 65.42 413.264 67.0994 407.317 70.4807L408.306 72.2193C413.919 69.0273 420.319 67.42 427.531 67.42V65.42ZM407.33 70.4734C401.386 73.7366 396.719 78.3462 393.342 84.2857L395.081 85.2743C398.277 79.6537 402.676 75.3101 408.293 72.2266L407.33 70.4734ZM393.335 84.2987C390.071 90.2429 388.451 96.9852 388.451 104.5H390.451C390.451 97.2815 392.005 90.8771 395.088 85.2613L393.335 84.2987ZM388.451 104.5C388.451 112.015 390.071 118.757 393.335 124.701L395.088 123.739C392.005 118.123 390.451 111.718 390.451 104.5H388.451ZM393.342 124.714C396.718 130.651 401.381 135.314 407.317 138.689L408.306 136.951C402.682 133.753 398.278 129.349 395.081 123.726L393.342 124.714ZM407.33 138.697C413.274 141.96 420.017 143.58 427.531 143.58V141.58C420.313 141.58 413.909 140.027 408.293 136.943L407.33 138.697ZM427.531 143.58C439.737 143.58 449.983 138.739 458.211 129.12L456.692 127.82C448.826 137.015 439.126 141.58 427.531 141.58V143.58ZM456.773 129.205L474.453 145.525L475.81 144.055L458.13 127.735L456.773 129.205ZM474.358 144.156C468.795 150.943 461.898 156.117 453.654 159.682L454.448 161.518C462.978 157.829 470.135 152.463 475.905 145.424L474.358 144.156ZM453.654 159.682C445.408 163.248 436.196 165.04 426.001 165.04V167.04C436.434 167.04 445.921 165.205 454.448 161.518L453.654 159.682ZM585.869 141.9H586.869V140.9H585.869V141.9ZM585.869 164V165H586.869V164H585.869ZM493.729 164H492.729V165H493.729V164ZM493.729 45V44H492.729V45H493.729ZM583.659 45H584.659V44H583.659V45ZM583.659 67.1V68.1H584.659V67.1H583.659ZM521.099 67.1V66.1H520.099V67.1H521.099ZM521.099 92.94H520.099V93.94H521.099V92.94ZM576.349 92.94H577.349V91.94H576.349V92.94ZM576.349 114.36V115.36H577.349V114.36H576.349ZM521.099 114.36V113.36H520.099V114.36H521.099ZM521.099 141.9H520.099V142.9H521.099V141.9ZM584.869 141.9V164H586.869V141.9H584.869ZM585.869 163H493.729V165H585.869V163ZM494.729 164V45H492.729V164H494.729ZM493.729 46H583.659V44H493.729V46ZM582.659 45V67.1H584.659V45H582.659ZM583.659 66.1H521.099V68.1H583.659V66.1ZM520.099 67.1V92.94H522.099V67.1H520.099ZM521.099 93.94H576.349V91.94H521.099V93.94ZM575.349 92.94V114.36H577.349V92.94H575.349ZM576.349 113.36H521.099V115.36H576.349V113.36ZM520.099 114.36V141.9H522.099V114.36H520.099ZM521.099 142.9H585.869V140.9H521.099V142.9ZM716.072 164L715.072 164.002L715.074 165H716.072V164ZM715.902 92.6L716.902 92.5976L716.893 88.9801L715.043 92.0884L715.902 92.6ZM680.882 151.42V152.42H681.45L681.741 151.932L680.882 151.42ZM668.472 151.42L667.618 151.94L667.91 152.42H668.472V151.42ZM633.622 94.13L634.476 93.6103L632.622 90.5619V94.13H633.622ZM633.622 164V165H634.622V164H633.622ZM607.782 164H606.782V165H607.782V164ZM607.782 45V44H606.782V45H607.782ZM630.562 45L631.418 44.484L631.127 44H630.562V45ZM675.102 118.95L674.245 119.466L675.108 120.899L675.962 119.46L675.102 118.95ZM718.962 45V44H718.392L718.102 44.4899L718.962 45ZM741.572 45L742.572 44.9971L742.569 44H741.572V45ZM741.912 164V165H742.915L742.912 163.997L741.912 164ZM717.072 163.998L716.902 92.5976L714.902 92.6024L715.072 164.002L717.072 163.998ZM715.043 92.0884L680.023 150.908L681.741 151.932L716.761 93.1116L715.043 92.0884ZM680.882 150.42H668.472V152.42H680.882V150.42ZM669.326 150.9L634.476 93.6103L632.768 94.6497L667.618 151.94L669.326 150.9ZM632.622 94.13V164H634.622V94.13H632.622ZM633.622 163H607.782V165H633.622V163ZM608.782 164V45H606.782V164H608.782ZM607.782 46H630.562V44H607.782V46ZM629.705 45.5159L674.245 119.466L675.959 118.434L631.418 44.484L629.705 45.5159ZM675.962 119.46L719.822 45.5101L718.102 44.4899L674.242 118.44L675.962 119.46ZM718.962 46H741.572V44H718.962V46ZM740.572 45.0028L740.912 164.003L742.912 163.997L742.572 44.9971L740.572 45.0028ZM741.912 163H716.072V165H741.912V163ZM862.285 141.9H863.285V140.9H862.285V141.9ZM862.285 164V165H863.285V164H862.285ZM770.145 164H769.145V165H770.145V164ZM770.145 45V44H769.145V45H770.145ZM860.075 45H861.075V44H860.075V45ZM860.075 67.1V68.1H861.075V67.1H860.075ZM797.515 67.1V66.1H796.515V67.1H797.515ZM797.515 92.94H796.515V93.94H797.515V92.94ZM852.765 92.94H853.765V91.94H852.765V92.94ZM852.765 114.36V115.36H853.765V114.36H852.765ZM797.515 114.36V113.36H796.515V114.36H797.515ZM797.515 141.9H796.515V142.9H797.515V141.9ZM861.285 141.9V164H863.285V141.9H861.285ZM862.285 163H770.145V165H862.285V163ZM771.145 164V45H769.145V164H771.145ZM770.145 46H860.075V44H770.145V46ZM859.075 45V67.1H861.075V45H859.075ZM860.075 66.1H797.515V68.1H860.075V66.1ZM796.515 67.1V92.94H798.515V67.1H796.515ZM797.515 93.94H852.765V91.94H797.515V93.94ZM851.765 92.94V114.36H853.765V92.94H851.765ZM852.765 113.36H797.515V115.36H852.765V113.36ZM796.515 114.36V141.9H798.515V114.36H796.515ZM797.515 142.9H862.285V140.9H797.515V142.9ZM993.338 45H994.338V44H993.338V45ZM993.338 164V165H994.338V164H993.338ZM970.728 164L969.955 164.635L970.255 165H970.728V164ZM911.398 91.75L912.171 91.1154L910.398 88.9565V91.75H911.398ZM911.398 164V165H912.398V164H911.398ZM884.198 164H883.198V165H884.198V164ZM884.198 45V44H883.198V45H884.198ZM906.978 45L907.752 44.3665L907.452 44H906.978V45ZM966.138 117.25L965.364 117.884L967.138 120.05V117.25H966.138ZM966.138 45V44H965.138V45H966.138ZM992.338 45V164H994.338V45H992.338ZM993.338 163H970.728V165H993.338V163ZM971.501 163.365L912.171 91.1154L910.625 92.3846L969.955 164.635L971.501 163.365ZM910.398 91.75V164H912.398V91.75H910.398ZM911.398 163H884.198V165H911.398V163ZM885.198 164V45H883.198V164H885.198ZM884.198 46H906.978V44H884.198V46ZM906.204 45.6335L965.364 117.884L966.912 116.616L907.752 44.3665L906.204 45.6335ZM967.138 117.25V45H965.138V117.25H967.138ZM966.138 46H993.338V44H966.138V46ZM1046.14 67.44H1047.14V66.44H1046.14V67.44ZM1008.06 67.44H1007.06V68.44H1008.06V67.44ZM1008.06 45V44H1007.06V45H1008.06ZM1111.76 45H1112.76V44H1111.76V45ZM1111.76 67.44V68.44H1112.76V67.44H1111.76ZM1073.68 67.44V66.44H1072.68V67.44H1073.68ZM1073.68 164V165H1074.68V164H1073.68ZM1046.14 164H1045.14V165H1046.14V164ZM1046.14 66.44H1008.06V68.44H1046.14V66.44ZM1009.06 67.44V45H1007.06V67.44H1009.06ZM1008.06 46H1111.76V44H1008.06V46ZM1110.76 45V67.44H1112.76V45H1110.76ZM1111.76 66.44H1073.68V68.44H1111.76V66.44ZM1072.68 67.44V164H1074.68V67.44H1072.68ZM1073.68 163H1046.14V165H1073.68V163ZM1047.14 164V67.44H1045.14V164H1047.14ZM1137.48 162.3L1137.19 163.258L1137.2 163.26L1137.21 163.262L1137.48 162.3ZM1116.4 152.27L1115.49 151.859L1115.16 152.582L1115.79 153.064L1116.4 152.27ZM1125.75 131.53L1126.34 130.724L1125.35 129.993L1124.84 131.119L1125.75 131.53ZM1143.94 140.54L1144.25 139.588L1144.25 139.588L1143.94 140.54ZM1182.36 140.54L1182.88 141.395L1182.89 141.39L1182.9 141.384L1182.36 140.54ZM1184.57 124.22L1183.9 124.965L1183.92 124.984L1183.95 125.001L1184.57 124.22ZM1176.07 119.63L1175.75 120.579L1175.76 120.582L1176.07 119.63ZM1162.13 115.89L1161.9 116.863L1161.91 116.864L1162.13 115.89ZM1139.86 109.43L1140.21 108.493L1140.21 108.493L1139.86 109.43ZM1124.9 99.06L1124.14 99.7108L1124.15 99.721L1124.9 99.06ZM1124.39 61.32L1125.22 61.8786L1125.23 61.8708L1124.39 61.32ZM1141.22 47.89L1140.82 46.9723L1140.82 46.9745L1141.22 47.89ZM1191.2 45.68L1191.44 44.7099L1191.44 44.7099L1191.2 45.68ZM1210.24 53.5L1211.17 53.8766L1211.48 53.0976L1210.77 52.652L1210.24 53.5ZM1201.74 74.41L1201.25 75.2799L1202.24 75.8416L1202.67 74.7866L1201.74 74.41ZM1151.59 68.8L1151.04 67.9679L1151.03 67.9719L1151.02 67.976L1151.59 68.8ZM1152.44 87.84L1152 88.7392L1152.02 88.7463L1152.03 88.7528L1152.44 87.84ZM1171.99 93.62L1172.22 92.6471L1172.21 92.6452L1172.21 92.6435L1171.99 93.62ZM1194.26 100.08L1194.61 99.1429L1194.61 99.1429L1194.26 100.08ZM1209.05 110.28L1208.3 110.94L1208.31 110.95L1209.05 110.28ZM1209.56 147.85L1208.73 147.288L1208.73 147.291L1209.56 147.85ZM1192.56 161.11L1192.16 160.192L1192.16 160.192L1192.56 161.11ZM1164.85 165.04C1155.53 165.04 1146.5 163.805 1137.75 161.338L1137.21 163.262C1146.14 165.781 1155.35 167.04 1164.85 167.04V165.04ZM1137.77 161.342C1129.12 158.758 1122.21 155.461 1117.01 151.476L1115.79 153.064C1121.24 157.239 1128.39 160.628 1137.19 163.258L1137.77 161.342ZM1117.31 152.681L1126.66 131.941L1124.84 131.119L1115.49 151.859L1117.31 152.681ZM1125.16 132.336C1130.36 136.149 1136.52 139.198 1143.63 141.492L1144.25 139.588C1137.31 137.349 1131.34 134.391 1126.34 130.724L1125.16 132.336ZM1143.63 141.492C1150.75 143.789 1157.88 144.94 1165.02 144.94V142.94C1158.1 142.94 1151.18 141.825 1144.25 139.588L1143.63 141.492ZM1165.02 144.94C1172.9 144.94 1178.9 143.805 1182.88 141.395L1181.84 139.685C1178.34 141.808 1172.78 142.94 1165.02 142.94V144.94ZM1182.9 141.384C1186.87 138.853 1188.97 135.442 1188.97 131.19H1186.97C1186.97 134.645 1185.33 137.467 1181.82 139.696L1182.9 141.384ZM1188.97 131.19C1188.97 128.044 1187.69 125.437 1185.2 123.439L1183.95 125.001C1185.98 126.63 1186.97 128.669 1186.97 131.19H1188.97ZM1185.24 123.475C1182.96 121.433 1179.99 119.843 1176.38 118.678L1175.76 120.582C1179.18 121.684 1181.88 123.154 1183.9 124.965L1185.24 123.475ZM1176.39 118.681C1172.94 117.533 1168.26 116.279 1162.36 114.916L1161.91 116.864C1167.79 118.221 1172.4 119.46 1175.75 120.579L1176.39 118.681ZM1162.36 114.917C1153.32 112.769 1145.94 110.627 1140.21 108.493L1139.51 110.367C1145.34 112.54 1152.81 114.704 1161.9 116.863L1162.36 114.917ZM1140.21 108.493C1134.59 106.399 1129.74 103.039 1125.65 98.399L1124.15 99.721C1128.45 104.601 1133.57 108.155 1139.51 110.367L1140.21 108.493ZM1125.66 98.4092C1121.77 93.8744 1119.78 87.7798 1119.78 80.02H1117.78C1117.78 88.1269 1119.87 94.7255 1124.14 99.7108L1125.66 98.4092ZM1119.78 80.02C1119.78 73.2988 1121.6 67.2612 1125.22 61.8786L1123.56 60.7614C1119.71 66.4854 1117.78 72.9145 1117.78 80.02H1119.78ZM1125.23 61.8708C1128.84 56.3949 1134.28 52.0307 1141.62 48.8055L1140.82 46.9745C1133.2 50.3227 1127.42 54.9118 1123.56 60.7692L1125.23 61.8708ZM1141.62 48.8077C1149.05 45.5895 1158.15 43.96 1168.93 43.96V41.96C1157.95 41.96 1148.57 43.6171 1140.82 46.9723L1141.62 48.8077ZM1168.93 43.96C1176.44 43.96 1183.79 44.8569 1190.96 46.6501L1191.44 44.7099C1184.11 42.8764 1176.6 41.96 1168.93 41.96V43.96ZM1190.96 46.6501C1198.13 48.4422 1204.37 51.0118 1209.71 54.348L1210.77 52.652C1205.23 49.1882 1198.78 46.5445 1191.44 44.7099L1190.96 46.6501ZM1209.31 53.1234L1200.81 74.0334L1202.67 74.7866L1211.17 53.8766L1209.31 53.1234ZM1202.23 73.5401C1191.11 67.2344 1179.95 64.06 1168.76 64.06V66.06C1179.56 66.06 1190.38 69.1189 1201.25 75.2799L1202.23 73.5401ZM1168.76 64.06C1160.98 64.06 1155.02 65.3118 1151.04 67.9679L1152.15 69.632C1155.64 67.3016 1161.13 66.06 1168.76 66.06V64.06ZM1151.02 67.976C1147.15 70.6385 1145.15 74.2213 1145.15 78.66H1147.15C1147.15 74.9387 1148.78 71.9481 1152.16 69.624L1151.02 67.976ZM1145.15 78.66C1145.15 80.8807 1145.72 82.8672 1146.9 84.5802C1148.07 86.2856 1149.79 87.6626 1152 88.7392L1152.88 86.9408C1150.9 85.9774 1149.48 84.8044 1148.55 83.4498C1147.63 82.1028 1147.15 80.5193 1147.15 78.66H1145.15ZM1152.03 88.7528C1156.43 90.7218 1163.03 92.6657 1171.78 94.5965L1172.21 92.6435C1163.5 90.721 1157.06 88.8116 1152.85 86.9272L1152.03 88.7528ZM1171.76 94.5929C1180.8 96.741 1188.18 98.8834 1193.91 101.017L1194.61 99.1429C1188.78 96.9699 1181.31 94.8056 1172.22 92.6471L1171.76 94.5929ZM1193.91 101.017C1199.54 103.113 1204.33 106.417 1208.3 110.94L1209.8 109.62C1205.61 104.85 1200.55 101.354 1194.61 99.1429L1193.91 101.017ZM1208.31 110.95C1212.29 115.368 1214.34 121.396 1214.34 129.15H1216.34C1216.34 121.038 1214.19 114.486 1209.79 109.61L1208.31 110.95ZM1214.34 129.15C1214.34 135.748 1212.48 141.785 1208.73 147.288L1210.39 148.412C1214.35 142.581 1216.34 136.152 1216.34 129.15H1214.34ZM1208.73 147.291C1205.12 152.652 1199.62 156.964 1192.16 160.192L1192.96 162.028C1200.69 158.683 1206.52 154.154 1210.39 148.409L1208.73 147.291ZM1192.16 160.192C1184.73 163.41 1175.63 165.04 1164.85 165.04V167.04C1175.83 167.04 1185.21 165.383 1192.96 162.028L1192.16 160.192Z" fill="#C4C4C4"/>
<path d="M153.947 168.767H336.812C344.258 168.767 350.294 174.803 350.294 182.249V182.249H167.429C159.983 182.249 153.947 176.213 153.947 168.767V168.767Z" fill="#D92F30"/>
<path d="M28.92 122.356C32.56 122.356 35.72 122.956 38.4 124.156C41.12 125.356 43.2 127.076 44.64 129.316C46.08 131.556 46.8 134.216 46.8 137.296C46.8 140.336 46.08 142.996 44.64 145.276C43.2 147.516 41.12 149.236 38.4 150.436C35.72 151.636 32.56 152.236 28.92 152.236H19.44V164.356H11.64V122.356H28.92ZM28.56 145.636C31.96 145.636 34.54 144.916 36.3 143.476C38.06 142.036 38.94 139.976 38.94 137.296C38.94 134.616 38.06 132.556 36.3 131.116C34.54 129.676 31.96 128.956 28.56 128.956H19.44V145.636H28.56ZM54.5892 122.356H62.3892V157.756H84.3492V164.356H54.5892V122.356ZM118.04 154.636H97.0402L92.9002 164.356H84.8602L103.76 122.356H111.44L130.4 164.356H122.24L118.04 154.636ZM115.46 148.516L107.54 130.156L99.6802 148.516H115.46ZM154.596 164.956C150.356 164.956 146.516 164.036 143.076 162.196C139.676 160.316 136.996 157.736 135.036 154.456C133.116 151.176 132.156 147.476 132.156 143.356C132.156 139.236 133.136 135.536 135.096 132.256C137.056 128.976 139.736 126.416 143.136 124.576C146.576 122.696 150.416 121.756 154.656 121.756C158.096 121.756 161.236 122.356 164.076 123.556C166.916 124.756 169.316 126.496 171.276 128.776L166.236 133.516C163.196 130.236 159.456 128.596 155.016 128.596C152.136 128.596 149.556 129.236 147.276 130.516C144.996 131.756 143.216 133.496 141.936 135.736C140.656 137.976 140.016 140.516 140.016 143.356C140.016 146.196 140.656 148.736 141.936 150.976C143.216 153.216 144.996 154.976 147.276 156.256C149.556 157.496 152.136 158.116 155.016 158.116C159.456 158.116 163.196 156.456 166.236 153.136L171.276 157.936C169.316 160.216 166.896 161.956 164.016 163.156C161.176 164.356 158.036 164.956 154.596 164.956ZM210.249 157.816V164.356H178.749V122.356H209.409V128.896H186.549V139.816H206.829V146.236H186.549V157.816H210.249ZM257.525 164.356L257.465 136.516L243.665 159.556H240.185L226.385 136.876V164.356H218.945V122.356H225.365L242.045 150.196L258.425 122.356H264.845L264.905 164.356H257.525ZM307.749 157.816V164.356H276.249V122.356H306.909V128.896H284.049V139.816H304.329V146.236H284.049V157.816H307.749ZM353.765 122.356V164.356H347.345L324.185 135.916V164.356H316.445V122.356H322.865L346.025 150.796V122.356H353.765ZM373.539 128.956H359.619V122.356H395.259V128.956H381.339V164.356H373.539V128.956ZM413.723 164.956C410.483 164.956 407.343 164.496 404.303 163.576C401.303 162.656 398.923 161.436 397.163 159.916L399.863 153.856C401.583 155.216 403.683 156.336 406.163 157.216C408.683 158.056 411.203 158.476 413.723 158.476C416.843 158.476 419.163 157.976 420.683 156.976C422.243 155.976 423.023 154.656 423.023 153.016C423.023 151.816 422.583 150.836 421.703 150.076C420.863 149.276 419.783 148.656 418.463 148.216C417.143 147.776 415.343 147.276 413.063 146.716C409.863 145.956 407.263 145.196 405.263 144.436C403.303 143.676 401.603 142.496 400.163 140.896C398.763 139.256 398.063 137.056 398.063 134.296C398.063 131.976 398.683 129.876 399.923 127.996C401.203 126.076 403.103 124.556 405.623 123.436C408.183 122.316 411.303 121.756 414.983 121.756C417.543 121.756 420.063 122.076 422.543 122.716C425.023 123.356 427.163 124.276 428.962 125.476L426.503 131.536C424.663 130.456 422.743 129.636 420.743 129.076C418.743 128.516 416.803 128.236 414.923 128.236C411.843 128.236 409.543 128.756 408.023 129.796C406.543 130.836 405.803 132.216 405.803 133.936C405.803 135.136 406.223 136.116 407.063 136.876C407.943 137.636 409.043 138.236 410.363 138.676C411.683 139.116 413.483 139.616 415.763 140.176C418.883 140.896 421.443 141.656 423.443 142.456C425.443 143.216 427.143 144.396 428.543 145.996C429.983 147.596 430.703 149.756 430.703 152.476C430.703 154.796 430.063 156.896 428.783 158.776C427.543 160.656 425.643 162.156 423.083 163.276C420.523 164.396 417.403 164.956 413.723 164.956Z" fill="black"/>
</svg>
