<?xml version="1.0" encoding="UTF-8" standalone="no"?>
<svg
   width="986"
   height="183"
   viewBox="0 0 986 183"
   fill="none"
   version="1.1"
   id="svg27"
   sodipodi:docname="g2 (2).svg"
   inkscape:version="1.1 (c68e22c387, 2021-05-23)"
   xmlns:inkscape="http://www.inkscape.org/namespaces/inkscape"
   xmlns:sodipodi="http://sodipodi.sourceforge.net/DTD/sodipodi-0.dtd"
   xmlns="http://www.w3.org/2000/svg"
   xmlns:svg="http://www.w3.org/2000/svg">
  <defs
     id="defs31" />
  <sodipodi:namedview
     id="namedview29"
     pagecolor="#505050"
     bordercolor="#eeeeee"
     borderopacity="1"
     inkscape:pageshadow="0"
     inkscape:pageopacity="0"
     inkscape:pagecheckerboard="0"
     showgrid="false"
     inkscape:zoom="1.2555781"
     inkscape:cx="517.68982"
     inkscape:cy="91.193053"
     inkscape:window-width="1920"
     inkscape:window-height="1027"
     inkscape:window-x="-8"
     inkscape:window-y="22"
     inkscape:window-maximized="1"
     inkscape:current-layer="svg27" />
  <path
     d="m 92.752245,147.69522 -0.991131,0.68607 0.359315,0.51968 h 0.631816 z m -27.67209,-39.97079 0.991131,-0.68608 -0.359315,-0.51968 h -0.631816 z m -30.541789,0 v -1.20576 h -1.205755 v 1.20576 z m 0,39.97079 v 1.20575 h 1.205756 v -1.20575 z m -33.206749,0 H 0.12586139 v 1.20575 H 1.331617 Z m 0,-143.4849089 V 3.0045556 H 0.12586139 v 1.2057555 z m 95.11024,6.3543319 -0.500388,1.097117 0.006,0.0028 z m 21.522733,73.382284 -1.00318,-0.669195 -0.004,0.0048 z m -21.727711,17.628143 -0.481097,-1.10567 -1.351652,0.5872 0.844029,1.20817 z m 32.181611,46.12015 v 1.20575 h 2.31144 l -1.32272,-1.89544 z M 84.348129,37.826776 l -0.776507,0.922283 0.0072,0.006 0.0072,0.006 z M 34.538366,31.267466 V 30.06171 h -1.205755 v 1.205756 z m 0,50.014741 h -1.205755 v 1.205756 h 1.205755 z m 49.809763,-6.55931 0.776506,0.922403 z m 9.395247,72.286243 -27.67209,-39.97079 -1.982262,1.37215 27.67209,39.97079 z M 65.080155,106.51867 h -1.639828 v 2.41151 h 1.639828 z m -1.639828,0 H 34.538366 v 2.41151 h 28.901961 z m -30.107716,1.20576 v 39.97079 h 2.411511 v -39.97079 z m 1.205755,38.76503 H 1.331617 v 2.41151 H 34.538366 Z M 2.5373725,147.69522 V 4.2103111 H 0.12586139 V 147.69522 Z M 1.331617,5.4160667 h 62.10871 V 3.0045556 H 1.331617 Z m 62.10871,0 c 12.577236,0 23.398893,2.0963266 32.501142,6.2456933 L 96.942246,9.467526 C 87.458978,5.14441 76.280418,3.0045556 63.440327,3.0045556 Z m 32.50717,6.2484663 c 9.242113,4.15226 16.294583,10.021517 21.210443,17.594747 l 2.02326,-1.313068 C 113.98439,19.94108 106.55091,13.784854 96.936217,9.4647528 Z M 117.15794,29.25928 c 4.91104,7.565996 7.39008,16.554301 7.39008,27.015556 h 2.41151 c 0,-10.856623 -2.57791,-20.316257 -7.77833,-28.328624 z m 7.39008,27.015556 c 0,10.454866 -2.54415,19.439192 -7.58661,27.002896 l 2.00637,1.338389 c 5.3427,-8.014657 7.99175,-17.478391 7.99175,-28.341285 z m -7.59023,27.00772 C 112.04554,90.717244 104.9979,96.450612 95.755782,100.4694 l 0.960987,2.21135 C 106.33388,98.500397 113.76977,92.482471 118.97019,84.611298 Z m -21.709631,18.982214 32.181611,46.12014 1.97744,-1.37938 -32.181612,-46.12015 z m 33.170331,44.22469 H 92.752245 v 2.41151 H 128.41849 Z M 93.343065,56.274836 c 0,-8.343346 -2.702098,-14.870221 -8.232899,-19.3824 l -1.524075,1.86868 c 4.854372,3.960304 7.345463,9.732136 7.345463,17.51372 z M 85.124635,36.904494 C 79.632419,32.279457 71.725074,30.06171 61.595521,30.06171 v 2.411511 c 9.820879,0 17.081939,2.155047 21.976101,6.275838 z M 61.595521,30.06171 H 34.538366 v 2.411511 h 27.057155 z m -28.26291,1.205756 v 50.014741 h 2.411511 V 31.267466 Z m 1.205755,51.220497 H 61.595521 V 80.076451 H 34.538366 Z m 27.057155,0 c 10.129553,0 18.036898,-2.217385 23.529114,-6.842663 L 83.571622,73.800494 C 78.67746,77.921766 71.4164,80.076451 61.595521,80.076451 Z M 85.124635,75.6453 c 5.511509,-4.640953 8.21843,-11.155169 8.21843,-19.370464 h -2.411511 c 0,7.636292 -2.486268,13.421386 -7.359932,17.525658 z m 178.037045,45.40272 h 1.20575 v -1.20575 h -1.20575 z m 0,26.6472 v 1.20575 h 1.20575 v -1.20575 z m -111.09832,0 h -1.20576 v 1.20575 h 1.20576 z m 0,-143.4849089 V 3.0045556 h -1.20576 v 1.2057555 z m 108.4336,0 h 1.20575 V 3.0045556 h -1.20575 z m 0,26.6471979 v 1.205756 h 1.20575 v -1.205756 z m -75.43207,0 v -1.205756 h -1.20576 v 1.205756 z m 0,31.156724 h -1.20576 v 1.205756 h 1.20576 z m 66.618,0 h 1.20575 v -1.205756 h -1.20575 z m 0,25.827284 v 1.205756 h 1.20575 v -1.205756 z m -66.618,0 v -1.205755 h -1.20576 v 1.205755 z m 0,33.206503 h -1.20576 v 1.20576 h 1.20576 z m 76.89103,0 v 26.6472 h 2.41151 v -26.6472 z m 1.20576,25.44144 H 152.06336 v 2.41151 h 111.09832 z m -109.89256,1.20576 V 4.2103111 H 150.8576 V 147.69522 Z M 152.06336,5.4160667 h 108.4336 V 3.0045556 H 152.06336 Z M 259.2912,4.2103111 V 30.857509 h 2.41151 V 4.2103111 Z m 1.20576,25.4414419 h -75.43207 v 2.411512 h 75.43207 z m -76.63783,1.205756 v 31.156724 h 2.41152 V 30.857509 Z m 1.20576,32.36248 h 66.618 v -2.411512 h -66.618 z m 65.41224,-1.205756 v 25.827284 h 2.41151 V 62.014233 Z m 1.20576,24.621529 h -66.618 v 2.411511 h 66.618 z m -67.82376,1.205755 v 33.206503 h 2.41152 V 87.841517 Z m 1.20576,34.412263 h 78.09679 v -2.41151 H 185.06489 Z M 425.53114,4.2103111 l 1.10688,0.4789261 0.72948,-1.6846816 h -1.83636 z M 363.42267,147.69522 v 1.20575 h 0.79218 l 0.3147,-0.72707 z m -32.79656,0 -1.10688,0.47748 0.3135,0.72827 h 0.79338 z M 268.72262,4.2103111 V 3.0045556 h -1.83275 l 0.72587,1.6833553 z m 35.87123,0 1.1093,-0.4725356 -0.31229,-0.7332199 h -0.79701 z m 43.66041,102.4892189 -1.10929,0.47266 1.10206,2.58514 1.11411,-2.57911 z M 392.52961,4.2103111 V 3.0045556 h -0.79219 l -0.3147,0.7275529 z M 424.42425,3.731385 362.31578,147.21653 364.52955,148.1739 426.63802,4.6892372 Z M 363.42267,146.48946 h -32.79656 v 2.41151 h 32.79656 z M 331.733,147.21774 269.82951,3.7327114 267.61574,4.6879109 329.51923,148.1727 Z M 268.72262,5.4160667 h 35.87123 V 3.0045556 h -35.87123 z m 34.76194,-0.73322 43.66041,102.4893433 2.21859,-0.94531 L 305.70315,3.7377755 Z M 349.36114,107.17822 393.63649,4.6885138 391.42272,3.7321085 347.14738,106.22085 Z M 392.52961,5.4160667 h 33.00153 V 3.0045556 H 392.52961 Z M 437.51152,4.2103111 V 3.0045556 h -1.20575 v 1.2057555 z m 33.20651,0 h 1.20576 V 3.0045556 h -1.20576 z m 0,143.4849089 v 1.20575 h 1.20576 v -1.20575 z m -33.20651,0 h -1.20575 v 1.20575 h 1.20575 z m 0,-142.2791533 h 33.20651 V 3.0045556 H 437.51152 Z M 469.51228,4.2103111 V 147.69522 h 2.41151 V 4.2103111 Z m 1.20575,142.2791489 h -33.20651 v 2.41151 h 33.20651 z m -32.00075,1.20576 V 4.2103111 h -2.41151 V 147.69522 Z m 177.15081,-26.6472 h 1.20576 v -1.20575 h -1.20576 z m 0,26.6472 v 1.20575 h 1.20576 v -1.20575 z m -111.09832,0 h -1.20575 v 1.20575 h 1.20575 z m 0,-143.4849089 V 3.0045556 h -1.20575 v 1.2057555 z m 108.4336,0 h 1.20576 V 3.0045556 h -1.20576 z m 0,26.6471979 v 1.205756 h 1.20576 v -1.205756 z m -75.43207,0 v -1.205756 h -1.20575 v 1.205756 z m 0,31.156724 h -1.20575 v 1.205756 h 1.20575 z m 66.618,0 h 1.20576 v -1.205756 h -1.20576 z m 0,25.827284 v 1.205756 h 1.20576 v -1.205756 z m -66.618,0 v -1.205755 h -1.20575 v 1.205755 z m 0,33.206503 h -1.20575 v 1.20576 h 1.20575 z m 76.89104,0 v 26.6472 h 2.41151 v -26.6472 z m 1.20575,25.44144 H 504.76977 v 2.41151 h 111.09832 z m -109.89256,1.20576 V 4.2103111 h -2.41151 V 147.69522 Z M 504.76977,5.4160667 h 108.4336 V 3.0045556 H 504.76977 Z M 611.99762,4.2103111 V 30.857509 h 2.41151 V 4.2103111 Z m 1.20575,25.4414419 H 537.7713 v 2.411512 h 75.43207 z m -76.63782,1.205756 v 31.156724 h 2.41151 V 30.857509 Z m 1.20575,32.36248 h 66.618 v -2.411512 h -66.618 z m 65.41224,-1.205756 v 25.827284 h 2.41152 V 62.014233 Z m 1.20576,24.621529 h -66.618 v 2.411511 h 66.618 z m -67.82375,1.205755 v 33.206503 h 2.41151 V 87.841517 Z m 1.20575,34.412263 h 78.09679 v -2.41151 H 537.7713 Z M 857.15546,4.2103111 l 1.14547,0.3748694 0.51726,-1.5806249 h -1.66273 z M 810.21539,147.69522 v 1.20575 h 0.87418 l 0.27129,-0.83076 z m -35.66625,0 -1.14667,0.37258 0.27009,0.83317 h 0.87658 z m -31.56668,-97.15978 1.14668,-0.372579 -1.12859,-3.473299 -1.16114,3.462448 z m -32.59157,97.15978 v 1.20575 h 0.86694 l 0.27612,-0.82232 z m -35.46127,0 -1.14547,0.37619 0.2725,0.82956 h 0.87297 z M 627.78458,4.2103111 V 3.0045556 h -1.66636 l 0.52089,1.5820718 z m 34.43637,0 1.14788,-0.36872 -0.26888,-0.8370355 h -0.879 z m 32.3866,100.8493989 -1.14788,0.36896 1.12256,3.49669 1.16838,-3.48222 z M 728.42899,4.2103111 V 3.0045556 h -0.86814 l -0.27491,0.8223253 z m 30.74677,0 1.14667,-0.3701669 -0.26888,-0.8355886 h -0.87779 z m 32.79655,101.6693089 -1.14788,0.37017 1.13703,3.52442 1.15632,-3.51839 z M 825.3838,4.2103111 V 3.0045556 h -0.87297 l -0.2725,0.8293186 z M 856.00878,3.8354417 809.06872,147.32023 811.36086,148.07021 858.30093,4.5851805 Z M 810.21539,146.48946 h -35.66625 v 2.41151 h 35.66625 z m -34.51957,0.83318 -31.56668,-97.159779 -2.29335,0.745157 31.56668,97.159782 z m -33.85641,-97.17063 -32.59158,97.15978 2.28612,0.76686 32.59157,-97.15978 z m -31.44852,96.33745 h -35.46127 v 2.41151 h 35.46127 z m -34.3158,0.82956 L 628.93004,3.8338742 626.63911,4.5866274 673.78415,148.07141 Z M 627.78458,5.4160667 h 34.43637 V 3.0045556 h -34.43637 z m 33.28849,-0.8370355 32.3866,100.8496388 2.29576,-0.73792 L 663.36883,3.8415911 Z M 695.75061,105.44314 729.57205,4.5937414 727.28594,3.8268809 693.46449,104.67628 Z M 728.42899,5.4160667 h 30.74677 V 3.0045556 H 728.42899 Z M 758.02788,4.5804781 790.82443,106.24979 793.11898,105.50945 760.32243,3.8401442 Z M 793.11778,106.25582 826.52927,4.586748 824.23833,3.8338742 790.82684,105.50342 Z M 825.3838,5.4160667 h 31.77166 V 3.0045556 H 825.3838 Z m 64.45246,140.2293633 -0.34485,1.15512 0.008,0.002 0.01,0.002 z m -25.41733,-12.09372 -1.09965,-0.49557 -0.39187,0.87176 0.75842,0.58118 z m 11.27381,-25.00737 0.71261,-0.97184 -1.19973,-0.88141 -0.61253,1.35768 z m 21.9327,10.86386 0.37016,-1.14788 z m 46.32513,0 0.62458,1.03092 0.0121,-0.006 0.0109,-0.007 z m 2.66472,-19.677933 -0.80424,0.898293 0.0253,0.0229 0.0253,0.0205 z m -10.24893,-5.534418 -0.38101,1.144262 0.0109,0.0036 z m -16.80823,-4.509526 -0.27853,1.173201 0.007,0.0012 z m -26.85218,-7.789181 0.42081,-1.129793 z m -18.0381,-12.503685 -0.91517,0.784706 0.0108,0.0123 z m -0.61493,-45.505215 0.99957,0.673535 0.007,-0.0094 z m 20.29286,-16.1932973 -0.47868,-1.1065219 -0.006,0.00265 z m 60.26367,-2.6647198 0.29299,-1.1697035 z m 22.95758,9.4290081 1.11653,0.454088 0.38223,-0.939284 -0.85971,-0.537284 z m -10.24892,25.212349 -0.59444,1.048887 1.1937,0.677273 0.51727,-1.272072 z m -60.46864,-6.764289 -0.6692,-1.003309 -0.007,0.0048 -0.006,0.0049 z m 1.02489,22.957587 -0.52692,1.084215 0.0169,0.0086 0.0181,0.0078 z m 23.57252,6.969267 0.27853,-1.17308 -0.01,-0.0023 -0.008,-0.0021 z m 26.85218,7.789181 0.42081,-1.129914 z m 17.83312,12.298707 -0.90552,0.795798 0.0109,0.01206 z m 0.61494,45.300235 -0.99716,-0.67764 -0.002,0.004 z m -20.49785,15.98832 -0.47868,-1.10689 z m -33.41148,4.73861 c -11.23403,0 -22.12441,-1.4891 -32.67477,-4.4637 l -0.65352,2.31987 c 10.76739,3.0373 21.87843,4.55535 33.32829,4.55535 z m -32.65669,-4.45888 c -10.42858,-3.11567 -18.75553,-7.09105 -25.02907,-11.89598 l -1.4662,1.91474 c 6.57257,5.03403 15.19011,9.12033 25.80558,12.29147 z m -24.66252,-10.44305 11.27381,-25.00736 -2.1993,-0.99114 -11.27381,25.00737 z m 9.46156,-24.53109 c 6.26873,4.59755 13.6998,8.27389 22.27513,11.03989 l 0.74033,-2.29575 c -8.36915,-2.69969 -15.56027,-6.26631 -21.59025,-10.68782 z m 22.27513,11.03989 c 8.58619,2.76962 17.18322,4.15745 25.78749,4.15745 v -2.41151 c -8.34021,0 -16.68765,-1.34442 -25.04716,-4.04169 z m 25.78749,4.15745 c 9.49895,0 16.7383,-1.36853 21.53239,-4.2744 l -1.24916,-2.06184 c -4.22497,2.55981 -10.92415,3.92473 -20.28323,3.92473 z m 21.5553,-4.28766 c 4.79529,-3.05177 7.32255,-7.1646 7.32255,-12.29148 h -2.41151 c 0,4.16589 -1.98226,7.56853 -6.20602,10.25616 z m 7.32255,-12.29148 c 0,-3.7933 -1.54095,-6.93671 -4.55173,-9.345808 l -1.50719,1.883388 c 2.45612,1.96418 3.64741,4.42271 3.64741,7.46242 z m -4.50108,-9.302401 c -2.75154,-2.462153 -6.32902,-4.379304 -10.683,-5.784009 l -0.74033,2.295758 c 4.11886,1.328743 7.3744,3.101204 9.81485,5.284832 z m -10.67215,-5.780392 c -4.15141,-1.384207 -9.79676,-2.896225 -16.91795,-4.53967 l -0.54259,2.348812 c 7.08984,1.636211 12.65078,3.130142 16.69851,4.479382 z M 919.83666,88.513123 C 908.9306,85.92316 900.03213,83.340432 893.12676,80.767349 l -0.84161,2.259586 c 7.03317,2.620107 16.03534,5.229362 26.99445,7.832589 z m -26.7099,-7.745774 C 886.34921,78.242497 880.5013,74.191158 875.57217,68.596453 l -1.80864,1.594009 c 5.18355,5.884087 11.36063,10.169342 18.52162,12.836473 z M 875.58302,68.608751 c -4.68677,-5.467739 -7.08864,-12.816458 -7.08864,-22.17288 h -2.41151 c 0,9.77494 2.51762,17.731239 7.66981,23.742292 z m -7.08864,-22.17288 c 0,-8.104124 2.18724,-15.383994 6.55811,-21.874094 l -1.99915,-1.34707 c -4.64818,6.901745 -6.97047,14.653668 -6.97047,23.221164 z m 6.56534,-21.883499 c 4.3576,-6.602597 10.92053,-11.864755 19.77078,-15.753558 L 893.86107,6.5910755 C 884.67321,10.628186 877.70756,16.161519 873.04611,23.224112 Z M 894.82447,8.8014666 C 903.78926,4.921104 914.7544,2.9563253 927.75727,2.9563253 V 0.54481422 c -13.23437,0 -24.54436,1.99805758 -33.89017,6.04360858 z m 32.9328,-5.8451413 c 9.05884,0 17.9115,1.0814422 26.55918,3.2436031 l 0.58599,-2.339407 C 946.05943,1.6497686 937.01024,0.54481422 927.75727,0.54481422 Z m 26.55918,3.2436031 c 8.64406,2.1608346 16.17521,5.2591436 22.61153,9.2817856 l 1.2781,-2.044961 c -6.6823,-4.1764964 -14.4558,-7.3641524 -23.30364,-9.5762316 z m 22.13405,7.8052176 -10.24892,25.212349 2.23306,0.908175 10.24892,-25.212349 z m -8.53795,24.617549 C 954.50334,31.019563 941.0459,27.192012 927.55229,27.192012 v 2.411511 c 13.01734,0 26.06964,3.688286 39.17138,11.116946 z M 927.55229,27.192012 c -9.37957,0 -16.56708,1.509365 -21.37202,4.711972 l 1.33839,2.006498 c 4.21412,-2.809893 10.82889,-4.306959 20.03363,-4.306959 z m -21.38528,4.721739 c -4.66989,3.210324 -7.08261,7.530305 -7.08261,12.882292 h 2.41151 c 0,-4.486978 1.96056,-8.09291 6.03722,-10.895207 z m -7.08261,12.882292 c 0,2.677622 0.69211,5.072855 2.10766,7.138315 1.40832,2.056295 3.48584,3.716621 6.15538,5.014737 l 1.05504,-2.168431 c -2.3886,-1.161625 -4.10198,-2.575976 -5.22213,-4.209293 -1.1117,-1.624152 -1.68444,-3.533466 -1.68444,-5.775328 z m 8.29801,12.16945 c 5.30653,2.374133 13.2597,4.718001 23.80403,7.046074 l 0.52088,-2.354841 c -10.49972,-2.318065 -18.26116,-4.620334 -23.34101,-6.89246 z m 23.78594,7.041733 c 10.90606,2.590084 19.80454,5.173295 26.7099,7.745895 l 0.84162,-2.259707 c -7.03318,-2.620107 -16.03535,-5.229723 -26.99446,-7.832347 z m 26.7099,7.745895 c 6.78237,2.527263 12.55915,6.51108 17.34841,11.964712 l 1.81105,-1.591597 C 971.988,76.374782 965.87723,72.15946 958.71987,69.493414 Z m 17.35926,11.97677 c 4.80614,5.327028 7.27312,12.595323 7.27312,21.944749 h 2.41151 c 0,-9.781087 -2.58996,-17.681197 -7.89529,-23.560462 z m 7.27312,21.944749 c 0,7.95558 -2.24873,15.23472 -6.76067,21.86999 l 1.99432,1.35527 c 4.78082,-7.03076 7.17786,-14.78256 7.17786,-23.22526 z m -6.76308,21.87361 c -4.35399,6.46405 -10.98323,11.66327 -19.97696,15.55545 l 0.95737,2.21377 c 9.31808,-4.03325 16.35366,-9.49412 21.01873,-16.42119 z m -19.97696,15.55545 c -8.96479,3.88012 -19.92994,5.8455 -32.9328,5.8455 v 2.41152 c 13.23437,0 24.54436,-1.99794 33.89017,-6.04325 z"
     fill="#c4c4c4"
     id="path21"
     style="stroke-width:1.20576" />
  <path
     d="m 166.12488,156.13551 h 215.83025 c 7.99054,0 14.46907,6.47852 14.46907,14.46906 v 0 H 180.59395 c -7.99054,0 -14.46907,-6.47852 -14.46907,-14.46906 z"
     fill="#d92f30"
     id="path23"
     style="stroke-width:1.20576" />
  <path
     d="M 36.047972,139.25493 25.702589,124.42414 c -0.434072,0.0482 -1.08518,0.0723 -1.953324,0.0723 H 12.318702 v 14.75845 H 2.9138094 V 88.613201 H 23.749265 c 4.388951,0 8.199138,0.723453 11.430563,2.17036 3.279655,1.446907 5.787627,3.520806 7.523915,6.221699 1.736288,2.700892 2.604432,5.9082 2.604432,9.62193 0,3.81019 -0.94049,7.08984 -2.821468,9.83896 -1.832749,2.74913 -4.485411,4.79891 -7.957987,6.14935 l 11.647599,16.63943 z m -0.217036,-32.62774 c 0,-3.23143 -1.061065,-5.71528 -3.183195,-7.45157 -2.122129,-1.736288 -5.232979,-2.604432 -9.332548,-2.604432 H 12.318702 v 20.184352 h 10.996491 c 4.099569,0 7.210419,-0.86815 9.332548,-2.60444 2.12213,-1.78451 3.183195,-4.29249 3.183195,-7.52391 z m 57.981168,24.7421 v 7.88564 h -37.9813 V 88.613201 H 92.79927 v 7.885641 H 65.235697 V 109.66569 H 89.68842 v 7.74095 H 65.235697 v 13.96265 z M 149.89059,88.613201 127.82526,139.25493 h -9.2602 L 96.427388,88.613201 h 10.200692 l 16.85646,39.066479 17.00116,-39.066479 z m 5.34391,0 h 9.40489 v 50.641729 h -9.40489 z m 61.08357,42.756089 v 7.88564 h -37.9813 V 88.613201 h 36.96847 v 7.885641 h -27.56357 v 13.166848 h 24.45272 v 7.74095 h -24.45272 v 13.96265 z m 83.78796,-42.756089 -16.78412,50.641729 h -9.98365 l -12.51575,-37.47488 -12.73278,37.47488 h -10.056 L 221.24962,88.613201 h 9.76662 l 12.58808,38.487709 13.09451,-38.487709 h 8.68144 l 12.80512,38.704749 12.94982,-38.704749 z m 23.36031,51.365179 c -3.90665,0 -7.69272,-0.55464 -11.35822,-1.66394 -3.61727,-1.10929 -6.48696,-2.58032 -8.60909,-4.41306 l 3.25554,-7.30688 c 2.0739,1.63982 4.60598,2.99027 7.59626,4.05134 3.0385,1.01283 6.077,1.51925 9.11551,1.51925 3.76196,0 6.55931,-0.60288 8.39206,-1.80864 1.88098,-1.20575 2.82146,-2.79735 2.82146,-4.77479 0,-1.4469 -0.53053,-2.62855 -1.59159,-3.54492 -1.01284,-0.9646 -2.31505,-1.71217 -3.90665,-2.2427 -1.5916,-0.53053 -3.76196,-1.13341 -6.51108,-1.80863 -3.85842,-0.91638 -6.99338,-1.83275 -9.40489,-2.74913 -2.36329,-0.91637 -4.41307,-2.33916 -6.14936,-4.26837 -1.68806,-1.97744 -2.53208,-4.6301 -2.53208,-7.95799 0,-2.79735 0.74756,-5.329437 2.2427,-7.596258 1.54337,-2.31505 3.8343,-4.147799 6.87281,-5.498245 3.08673,-1.350446 6.84869,-2.025669 11.28587,-2.025669 3.08673,0 6.12524,0.385841 9.11551,1.157525 2.99028,0.771683 5.57059,1.880979 7.74095,3.327885 l -2.96616,7.306879 c -2.21859,-1.302216 -4.53364,-2.290936 -6.94515,-2.966159 -2.41151,-0.675223 -4.75067,-1.012834 -7.0175,-1.012834 -3.71372,0 -6.48696,0.626993 -8.31971,1.880978 -1.78452,1.253986 -2.67678,2.917928 -2.67678,4.991828 0,1.44691 0.50642,2.62855 1.51926,3.54492 1.06106,0.91638 2.38739,1.63983 3.97899,2.17036 1.5916,0.53053 3.76196,1.13341 6.51108,1.80864 3.76196,0.86814 6.84869,1.78451 9.2602,2.74912 2.41151,0.91637 4.4613,2.33916 6.14936,4.26837 1.73628,1.92921 2.60443,4.53364 2.60443,7.81329 0,2.79736 -0.77169,5.32944 -2.31505,7.59626 -1.49514,2.26682 -3.78608,4.07546 -6.87281,5.4259 -3.08673,1.35045 -6.84869,2.02567 -11.28587,2.02567 z"
     fill="#000000"
     id="path25"
     style="stroke-width:1.20576" />
</svg>
