<svg width="953" height="183" viewBox="0 0 953 183" fill="none" xmlns="http://www.w3.org/2000/svg">
<path d="M167.364 113.51L166.418 113.835L167.414 116.738L168.319 113.805L167.364 113.51ZM188.444 45.17V44.17H187.706L187.488 44.8752L188.444 45.17ZM216.154 45.17L217.11 44.8774L216.893 44.17H216.154V45.17ZM237.064 113.51L236.107 113.803L237.006 116.738L238.009 113.837L237.064 113.51ZM260.694 45.17V44.17H259.981L259.749 44.8432L260.694 45.17ZM289.424 45.17L290.368 45.4996L290.832 44.17H289.424V45.17ZM247.944 164V165H248.654L248.888 164.33L247.944 164ZM228.224 164L227.27 164.3L227.49 165H228.224V164ZM202.214 81.38L203.167 81.0797L202.21 78.0399L201.259 81.0815L202.214 81.38ZM176.374 164V165H177.109L177.328 164.298L176.374 164ZM156.654 164L155.709 164.33L155.943 165H156.654V164ZM115.174 45.17V44.17H113.765L114.229 45.4996L115.174 45.17ZM143.904 45.17L144.849 44.8453L144.618 44.17H143.904V45.17ZM168.319 113.805L189.399 45.4647L187.488 44.8752L166.408 113.215L168.319 113.805ZM188.444 46.17H216.154V44.17H188.444V46.17ZM215.197 45.4626L236.107 113.803L238.02 113.217L217.11 44.8774L215.197 45.4626ZM238.009 113.837L261.639 45.4968L259.749 44.8432L236.118 113.183L238.009 113.837ZM260.694 46.17H289.424V44.17H260.694V46.17ZM288.479 44.8404L246.999 163.67L248.888 164.33L290.368 45.4996L288.479 44.8404ZM247.944 163H228.224V165H247.944V163ZM229.177 163.7L203.167 81.0797L201.26 81.6803L227.27 164.3L229.177 163.7ZM201.259 81.0815L175.419 163.702L177.328 164.298L203.168 81.6785L201.259 81.0815ZM176.374 163H156.654V165H176.374V163ZM157.598 163.67L116.118 44.8404L114.229 45.4996L155.709 164.33L157.598 163.67ZM115.174 46.17H143.904V44.17H115.174V46.17ZM142.958 45.4947L166.418 113.835L168.309 113.185L144.849 44.8453L142.958 45.4947ZM377.238 45.17V44.17H376.238V45.17H377.238ZM403.758 45.17H404.758V44.17H403.758V45.17ZM403.758 164V165H404.758V164H403.758ZM377.238 164H376.238V165H377.238V164ZM377.238 117.25H378.238V116.25H377.238V117.25ZM329.978 117.25V116.25H328.978V117.25H329.978ZM329.978 164V165H330.978V164H329.978ZM303.458 164H302.458V165H303.458V164ZM303.458 45.17V44.17H302.458V45.17H303.458ZM329.978 45.17H330.978V44.17H329.978V45.17ZM329.978 94.81H328.978V95.81H329.978V94.81ZM377.238 94.81V95.81H378.238V94.81H377.238ZM377.238 46.17H403.758V44.17H377.238V46.17ZM402.758 45.17V164H404.758V45.17H402.758ZM403.758 163H377.238V165H403.758V163ZM378.238 164V117.25H376.238V164H378.238ZM377.238 116.25H329.978V118.25H377.238V116.25ZM328.978 117.25V164H330.978V117.25H328.978ZM329.978 163H303.458V165H329.978V163ZM304.458 164V45.17H302.458V164H304.458ZM303.458 46.17H329.978V44.17H303.458V46.17ZM328.978 45.17V94.81H330.978V45.17H328.978ZM329.978 95.81H377.238V93.81H329.978V95.81ZM378.238 94.81V45.17H376.238V94.81H378.238ZM484.12 164V165H485.12V164H484.12ZM457.6 164H456.6V165H457.6V164ZM457.6 117.08H458.6V116.814L458.468 116.583L457.6 117.08ZM416.46 45.17V44.17H414.736L415.592 45.6666L416.46 45.17ZM445.19 45.17L446.055 44.6678L445.766 44.17H445.19V45.17ZM470.86 89.37L469.995 89.8722L470.86 91.3612L471.725 89.8722L470.86 89.37ZM496.53 45.17V44.17H495.954L495.665 44.6678L496.53 45.17ZM525.26 45.17L526.128 45.6666L526.984 44.17H525.26V45.17ZM484.12 117.08L483.252 116.583L483.12 116.814V117.08H484.12ZM484.12 163H457.6V165H484.12V163ZM458.6 164V117.08H456.6V164H458.6ZM458.468 116.583L417.328 44.6734L415.592 45.6666L456.732 117.577L458.468 116.583ZM416.46 46.17H445.19V44.17H416.46V46.17ZM444.325 45.6722L469.995 89.8722L471.725 88.8678L446.055 44.6678L444.325 45.6722ZM471.725 89.8722L497.395 45.6722L495.665 44.6678L469.995 88.8678L471.725 89.8722ZM496.53 46.17H525.26V44.17H496.53V46.17ZM524.392 44.6734L483.252 116.583L484.988 117.577L526.128 45.6666L524.392 44.6734ZM483.12 117.08V164H485.12V117.08H483.12ZM614.312 133.4L613.53 134.023L613.536 134.031L614.312 133.4ZM649.842 133.4L649.06 132.777L649.058 132.779L649.842 133.4ZM656.472 45.17V44.17H655.472V45.17H656.472ZM682.992 45.17H683.992V44.17H682.992V45.17ZM668.712 151.42L669.406 152.14L669.411 152.136L668.712 151.42ZM595.442 151.25L594.744 151.966L594.748 151.97L595.442 151.25ZM581.162 45.17V44.17H580.162V45.17H581.162ZM607.682 45.17H608.682V44.17H607.682V45.17ZM613.536 134.031C618.16 139.722 624.404 142.56 632.162 142.56V140.56C624.96 140.56 619.304 137.958 615.088 132.769L613.536 134.031ZM632.162 142.56C639.92 142.56 646.114 139.721 650.626 134.021L649.058 132.779C644.958 137.959 639.364 140.56 632.162 140.56V142.56ZM650.625 134.023C655.227 128.24 657.472 120.459 657.472 110.79H655.472C655.472 120.161 653.297 127.453 649.06 132.777L650.625 134.023ZM657.472 110.79V45.17H655.472V110.79H657.472ZM656.472 46.17H682.992V44.17H656.472V46.17ZM681.992 45.17V111.64H683.992V45.17H681.992ZM681.992 111.64C681.992 128.68 677.289 141.65 668.014 150.704L669.411 152.136C679.176 142.603 683.992 129.053 683.992 111.64H681.992ZM668.018 150.7C658.708 159.678 646.784 164.19 632.162 164.19V166.19C647.233 166.19 659.677 161.522 669.406 152.14L668.018 150.7ZM632.162 164.19C617.544 164.19 605.562 159.624 596.136 150.53L594.748 151.97C604.589 161.463 617.087 166.19 632.162 166.19V164.19ZM596.141 150.534C586.865 141.479 582.162 128.565 582.162 111.64H580.162C580.162 128.942 584.98 142.434 594.744 151.966L596.141 150.534ZM582.162 111.64V45.17H580.162V111.64H582.162ZM581.162 46.17H607.682V44.17H581.162V46.17ZM606.682 45.17V110.79H608.682V45.17H606.682ZM606.682 110.79C606.682 120.459 608.927 128.24 613.53 134.023L615.095 132.777C610.857 127.453 608.682 120.161 608.682 110.79H606.682ZM738.238 68.97L738.871 69.744L738.875 69.741L738.238 68.97ZM739.088 85.46L738.534 86.292L738.54 86.2967L738.547 86.3012L739.088 85.46ZM760.678 92.77L760.433 93.7396L760.445 93.7424L760.678 92.77ZM787.028 105.18L786.363 105.927L787.028 105.18ZM784.308 155.5L784.946 156.27L784.947 156.269L784.308 155.5ZM702.028 144.45L701.253 143.818L700.659 144.546L701.349 145.184L702.028 144.45ZM717.838 125.07L718.497 124.318L717.718 123.635L717.063 124.438L717.838 125.07ZM764.758 138.84L765.358 139.64L765.363 139.636L764.758 138.84ZM764.588 121.84L763.998 122.647L764.008 122.655L764.019 122.662L764.588 121.84ZM747.078 115.38L747.318 114.409L747.309 114.407L747.078 115.38ZM716.648 102.63L716.005 103.396L716.013 103.402L716.02 103.408L716.648 102.63ZM719.198 51.63L718.598 50.83L718.593 50.8341L719.198 51.63ZM773.428 46.53L773.753 45.584L773.428 46.53ZM794.168 58.09L794.99 58.6596L795.507 57.9132L794.814 57.3266L794.168 58.09ZM780.738 77.47L780.134 78.2668L780.966 78.8974L781.56 78.0396L780.738 77.47ZM748.778 64.74C744.198 64.74 740.436 65.8574 737.601 68.199L738.875 69.741C741.254 67.776 744.518 66.74 748.778 66.74V64.74ZM737.605 68.196C734.857 70.4447 733.498 73.5177 733.498 77.3H735.498C735.498 74.0557 736.633 71.5753 738.871 69.744L737.605 68.196ZM733.498 77.3C733.498 81.0655 735.222 84.0845 738.534 86.292L739.643 84.6279C736.834 82.7555 735.498 80.3345 735.498 77.3H733.498ZM738.547 86.3012C740.242 87.3904 742.931 88.541 746.545 89.7647C750.178 90.9946 754.81 92.3194 760.433 93.7396L760.923 91.8004C755.327 90.3873 750.75 89.077 747.186 87.8703C743.604 86.6574 741.108 85.5696 739.629 84.6188L738.547 86.3012ZM760.445 93.7424C771.678 96.4383 780.292 100.518 786.363 105.927L787.693 104.433C781.298 98.7355 772.345 94.5417 760.912 91.7976L760.445 93.7424ZM786.363 105.927C792.328 111.241 795.378 119.038 795.378 129.49H797.378C797.378 118.636 794.195 110.226 787.693 104.433L786.363 105.927ZM795.378 129.49C795.378 139.852 791.482 148.238 783.669 154.731L784.947 156.269C793.227 149.388 797.378 140.434 797.378 129.49H795.378ZM783.67 154.73C775.96 161.119 765.722 164.36 752.858 164.36V166.36C766.061 166.36 776.79 163.028 784.946 156.27L783.67 154.73ZM752.858 164.36C734.32 164.36 717.614 157.502 702.707 143.716L701.349 145.184C716.589 159.278 733.769 166.36 752.858 166.36V164.36ZM702.803 145.082L718.613 125.702L717.063 124.438L701.253 143.818L702.803 145.082ZM717.179 125.822C730.07 137.116 742.141 142.9 753.368 142.9V140.9C742.835 140.9 731.22 135.464 718.497 124.318L717.179 125.822ZM753.368 142.9C758.367 142.9 762.404 141.855 765.358 139.64L764.158 138.04C761.672 139.905 758.116 140.9 753.368 140.9V142.9ZM765.363 139.636C768.442 137.297 770.008 134.171 770.008 130.34H768.008C768.008 133.536 766.741 136.077 764.153 138.044L765.363 139.636ZM770.008 130.34C770.008 126.39 768.378 123.247 765.157 121.018L764.019 122.662C766.692 124.513 768.008 127.037 768.008 130.34H770.008ZM765.178 121.033C762.055 118.75 756.038 116.561 747.318 114.409L746.839 116.351C755.572 118.506 761.228 120.623 763.998 122.647L765.178 121.033ZM747.309 114.407C733.539 111.134 723.565 106.927 717.276 101.852L716.02 103.408C722.651 108.759 732.964 113.053 746.847 116.353L747.309 114.407ZM717.291 101.864C711.244 96.7886 708.128 88.8451 708.128 77.81H706.128C706.128 89.2149 709.359 97.8181 716.005 103.396L717.291 101.864ZM708.128 77.81C708.128 66.7458 712.038 58.3321 719.804 52.4259L718.593 50.8341C710.265 57.1679 706.128 66.2076 706.128 77.81H708.128ZM719.798 52.43C727.754 46.463 737.676 43.45 749.628 43.45V41.45C737.327 41.45 726.962 44.557 718.598 50.83L719.798 52.43ZM749.628 43.45C757.445 43.45 765.269 44.7897 773.104 47.4759L773.753 45.584C765.721 42.8303 757.678 41.45 749.628 41.45V43.45ZM773.104 47.4759C780.93 50.1591 787.732 53.9537 793.522 58.8534L794.814 57.3266C788.818 52.2529 781.793 48.3409 773.753 45.584L773.104 47.4759ZM793.346 57.5204L779.916 76.9004L781.56 78.0396L794.99 58.6596L793.346 57.5204ZM781.342 76.6732C770.887 68.7456 760.027 64.74 748.778 64.74V66.74C759.516 66.74 769.963 70.5544 780.134 78.2668L781.342 76.6732Z" fill="#C4C4C4"/>
<path d="M242 171H415C421.627 171 427 176.373 427 183H254C247.373 183 242 177.627 242 171Z" fill="#D92F30"/>
<path d="M203.02 117L189.1 159H180.82L170.44 127.92L159.88 159H151.54L137.62 117H145.72L156.16 148.92L167.02 117H174.22L184.84 149.1L195.58 117H203.02ZM246.694 117V159H238.894V141H217.174V159H209.374V117H217.174V134.34H238.894V117H246.694ZM276.069 144.18V159H268.269V144.3L251.769 117H260.109L272.409 137.46L284.829 117H292.509L276.069 144.18ZM332.259 159.6C326.459 159.6 321.939 157.98 318.699 154.74C315.459 151.46 313.839 146.78 313.839 140.7V117H321.639V140.4C321.639 148.64 325.199 152.76 332.319 152.76C339.399 152.76 342.939 148.64 342.939 140.4V117H350.619V140.7C350.619 146.78 348.999 151.46 345.759 154.74C342.559 157.98 338.059 159.6 332.259 159.6ZM374.562 159.6C371.322 159.6 368.182 159.14 365.142 158.22C362.142 157.3 359.762 156.08 358.002 154.56L360.702 148.5C362.422 149.86 364.522 150.98 367.002 151.86C369.522 152.7 372.042 153.12 374.562 153.12C377.682 153.12 380.002 152.62 381.522 151.62C383.082 150.62 383.862 149.3 383.862 147.66C383.862 146.46 383.422 145.48 382.542 144.72C381.702 143.92 380.622 143.3 379.302 142.86C377.982 142.42 376.182 141.92 373.902 141.36C370.702 140.6 368.102 139.84 366.102 139.08C364.142 138.32 362.442 137.14 361.002 135.54C359.602 133.9 358.902 131.7 358.902 128.94C358.902 126.62 359.522 124.52 360.762 122.64C362.042 120.72 363.942 119.2 366.462 118.08C369.022 116.96 372.142 116.4 375.822 116.4C378.382 116.4 380.902 116.72 383.382 117.36C385.862 118 388.002 118.92 389.802 120.12L387.342 126.18C385.502 125.1 383.582 124.28 381.582 123.72C379.582 123.16 377.642 122.88 375.762 122.88C372.682 122.88 370.382 123.4 368.862 124.44C367.382 125.48 366.642 126.86 366.642 128.58C366.642 129.78 367.062 130.76 367.902 131.52C368.782 132.28 369.882 132.88 371.202 133.32C372.522 133.76 374.322 134.26 376.602 134.82C379.722 135.54 382.282 136.3 384.282 137.1C386.282 137.86 387.982 139.04 389.382 140.64C390.822 142.24 391.542 144.4 391.542 147.12C391.542 149.44 390.902 151.54 389.622 153.42C388.382 155.3 386.482 156.8 383.922 157.92C381.362 159.04 378.242 159.6 374.562 159.6Z" fill="black"/>
</svg>
