<?xml version="1.0" encoding="UTF-8" standalone="no"?>
<svg
   width="953"
   height="183"
   viewBox="0 0 953 183"
   fill="none"
   version="1.1"
   id="svg8"
   sodipodi:docname="G2.svg"
   inkscape:version="1.1 (c68e22c387, 2021-05-23)"
   xmlns:inkscape="http://www.inkscape.org/namespaces/inkscape"
   xmlns:sodipodi="http://sodipodi.sourceforge.net/DTD/sodipodi-0.dtd"
   xmlns="http://www.w3.org/2000/svg"
   xmlns:svg="http://www.w3.org/2000/svg">
  <defs
     id="defs12" />
  <sodipodi:namedview
     id="namedview10"
     pagecolor="#505050"
     bordercolor="#eeeeee"
     borderopacity="1"
     inkscape:pageshadow="0"
     inkscape:pageopacity="0"
     inkscape:pagecheckerboard="0"
     showgrid="false"
     inkscape:zoom="1.1563484"
     inkscape:cx="476.0676"
     inkscape:cy="91.235481"
     inkscape:window-width="1920"
     inkscape:window-height="1027"
     inkscape:window-x="-8"
     inkscape:window-y="22"
     inkscape:window-maximized="1"
     inkscape:current-layer="svg8" />
  <path
     d="m 70.774024,93.495771 -1.194918,0.410516 1.258074,3.666855 1.143129,-3.704749 z M 97.400727,7.1737128 V 5.9105864 H 96.46854 l -0.275362,0.8907567 z m 35.001233,0 1.20755,-0.3695908 -0.2741,-0.8935356 h -0.93345 z m 26.41198,86.3220582 -1.20882,0.370096 1.13555,3.707275 1.26692,-3.664329 z M 188.66161,7.1737128 V 5.9105864 H 187.761 l -0.29304,0.8503367 z m 36.28962,0 1.19239,0.4163264 0.58609,-1.6794528 h -1.77848 z M 172.55675,157.27102 v 1.26313 h 0.89682 l 0.29557,-0.8463 z m -24.90885,0 -1.20502,0.37894 0.27788,0.88419 h 0.92714 z m -32.85392,-104.359502 1.20376,-0.379317 -1.20882,-3.839652 -1.20123,3.841925 z M 82.154792,157.27102 v 1.26313 h 0.928398 l 0.276625,-0.88672 z m -24.908851,0 -1.193655,0.41683 0.295572,0.8463 h 0.898083 z M 4.8514601,7.1737128 V 5.9105864 h -1.779745 l 0.5860906,1.6794528 z m 36.2896199,0 1.193654,-0.4101372 -0.291782,-0.8529892 H 41.14108 Z M 71.980309,93.868393 98.607013,7.5459561 96.193178,6.8013431 69.566475,93.123148 Z M 97.400727,8.4368391 H 132.40196 V 5.9105864 H 97.400727 Z M 131.19315,7.5433035 157.60512,93.865867 160.02148,93.125675 133.60951,6.804122 Z M 160.00759,93.908813 189.85527,7.5865024 187.46796,6.7609231 157.61902,93.082728 Z M 188.66161,8.4368391 h 36.28962 V 5.9105864 H 188.66161 Z M 223.75758,6.7573863 171.3631,156.85419 173.74914,157.68785 226.14362,7.5900392 Z M 172.55675,156.00789 H 147.6479 v 2.52626 h 24.90885 z m -23.70509,0.88419 -32.85392,-104.359879 -2.40879,0.758633 32.85393,104.359126 z M 113.58769,52.534474 80.948506,156.89461 83.359815,157.64743 115.999,53.288561 Z M 82.154792,156.00789 H 57.245941 v 2.52626 h 24.908851 z m -23.71646,0.8463 L 6.0438514,6.7573863 3.6578057,7.5900392 56.052286,157.68785 Z M 4.8514601,8.4368391 H 41.14108 V 5.9105864 H 4.8514601 Z M 39.946162,7.5838499 69.579106,93.906287 71.967678,93.085255 42.334734,6.7635756 Z M 335.87141,7.1737128 V 5.9105864 h -1.26313 v 1.2631264 z m 33.49811,0 h 1.26312 V 5.9105864 h -1.26312 z m 0,150.0973072 v 1.26313 h 1.26312 v -1.26313 z m -33.49811,0 h -1.26313 v 1.26313 h 1.26313 z m 0,-59.051157 h 1.26312 v -1.263126 h -1.26312 z m -59.69535,0 v -1.263126 h -1.26313 v 1.263126 z m 0,59.051157 v 1.26313 h 1.26312 v -1.26313 z m -33.49811,0 h -1.26313 v 1.26313 h 1.26313 z m 0,-150.0973072 V 5.9105864 h -1.26313 v 1.2631264 z m 33.49811,0 h 1.26312 V 5.9105864 h -1.26312 z m 0,62.7015912 h -1.26313 v 1.263127 h 1.26313 z m 59.69535,0 v 1.263127 h 1.26312 v -1.263127 z m 0,-61.4384649 h 33.49811 V 5.9105864 H 335.87141 Z M 368.10639,7.1737128 V 157.27102 h 2.52625 V 7.1737128 Z m 1.26313,148.8341772 h -33.49811 v 2.52626 h 33.49811 z m -32.23499,1.26313 V 98.219863 h -2.52625 v 59.051157 z m -1.26312,-60.314283 h -59.69535 v 2.526252 h 59.69535 z m -60.95848,1.263126 v 59.051157 h 2.52625 V 98.219863 Z m 1.26313,57.788027 h -33.49811 v 2.52626 h 33.49811 z m -32.23499,1.26313 V 7.1737128 h -2.52625 V 157.27102 Z M 242.67795,8.4368391 h 33.49811 V 5.9105864 H 242.67795 Z M 274.91293,7.1737128 V 69.875304 h 2.52625 V 7.1737128 Z m 1.26313,63.9647182 h 59.69535 v -2.526253 h -59.69535 z m 60.95847,-1.263127 V 7.1737128 h -2.52625 V 69.875304 Z m 133.74235,87.395716 v 1.26313 H 472.14 v -1.26313 z m -33.49811,0 h -1.26313 v 1.26313 h 1.26313 z m 0,-59.265888 h 1.26312 V 97.66914 l -0.16673,-0.291782 z M 385.41375,7.1737128 V 5.9105864 h -2.17763 l 1.08124,1.8903949 z m 36.28962,0 1.0926,-0.6343421 -0.36504,-0.6287843 h -0.72756 z m 32.42445,55.8301842 -1.0926,0.634342 1.0926,1.880795 1.09261,-1.880795 z M 486.55227,7.1737128 V 5.9105864 h -0.72756 l -0.36504,0.6287843 z m 36.28962,0 1.0964,0.6272685 1.08123,-1.8903949 h -2.17763 z m -51.96501,90.8314192 -1.0964,-0.627774 -0.16673,0.291782 v 0.335992 z m 0,58.002758 h -33.49811 v 2.52626 h 33.49811 z m -32.23499,1.26313 V 98.005132 h -2.52625 V 157.27102 Z M 438.47516,97.377358 386.51014,6.5464442 384.31736,7.8009813 436.28237,98.632905 Z M 385.41375,8.4368391 h 36.28962 V 5.9105864 H 385.41375 Z M 420.61076,7.8080548 453.03522,63.638239 455.22043,62.369555 422.79597,6.5393707 Z M 455.22043,63.638239 487.64488,7.8080548 485.45967,6.5393707 453.03522,62.369555 Z M 486.55227,8.4368391 h 36.28962 V 5.9105864 H 486.55227 Z M 521.7455,6.5464442 469.78048,97.377358 471.97327,98.632905 523.93829,7.8009813 Z M 469.61375,98.005132 V 157.27102 H 472.14 V 98.005132 Z m 165.71207,20.614218 -0.98776,0.78693 0.008,0.0101 z m 44.87888,0 -0.98776,-0.78692 -0.003,0.003 z M 688.57923,7.1737128 V 5.9105864 h -1.26313 v 1.2631264 z m 33.49811,0 h 1.26312 V 5.9105864 h -1.26312 z m -18.03745,134.2071772 0.87661,0.90945 0.006,-0.005 z m -92.54926,-0.21473 -0.88166,0.9044 0.005,0.005 z M 593.45318,7.1737128 V 5.9105864 h -1.26312 v 1.2631264 z m 33.49811,0 h 1.26313 V 5.9105864 h -1.26313 z m 7.39435,112.2426772 c 5.84069,7.18845 13.72765,10.7732 23.52699,10.7732 v -2.52625 c -9.09704,0 -16.24128,-3.28666 -21.56662,-9.84102 z m 23.52699,10.7732 c 9.79933,0 17.62314,-3.58601 23.32236,-10.78584 l -1.98058,-1.5688 c -5.17882,6.543 -12.24475,9.82839 -21.34178,9.82839 z m 23.3211,-10.78331 c 5.81291,-7.30466 8.64862,-17.13304 8.64862,-29.346213 h -2.52625 c 0,11.836753 -2.7473,21.047473 -8.09916,27.772363 z m 8.64862,-29.346213 V 7.1737128 H 687.3161 V 90.060067 Z M 688.57923,8.4368391 h 33.49811 V 5.9105864 H 688.57923 Z M 720.81421,7.1737128 V 91.133724 h 2.52625 V 7.1737128 Z m 0,83.9600112 c 0,21.523676 -5.94048,37.906426 -17.65598,49.342766 l 1.76459,1.8088 c 12.33443,-12.04138 18.41764,-29.15675 18.41764,-51.151566 z m -17.65093,49.337716 c -11.7597,11.34035 -26.82122,17.03957 -45.29065,17.03957 v 2.52626 c 19.03657,0 34.75492,-5.89628 47.04387,-17.74693 z m -45.29065,17.03957 c -18.46438,0 -33.59916,-5.76743 -45.50539,-17.2543 l -1.75322,1.8189 c 12.43042,11.99086 28.21698,17.96166 47.25861,17.96166 z M 612.37355,140.26176 C 600.65679,128.82415 594.71631,112.51214 594.71631,91.133724 h -2.52625 c 0,21.854616 6.08574,38.896716 18.41891,50.936836 z M 594.71631,91.133724 V 7.1737128 h -2.52625 V 91.133724 Z M 593.45318,8.4368391 h 33.49811 V 5.9105864 H 593.45318 Z M 625.68817,7.1737128 V 90.060067 h 2.52625 V 7.1737128 Z m 0,82.8863542 c 0,12.213173 2.83572,22.041553 8.64989,29.346213 l 1.97679,-1.57385 c -5.35313,-6.72489 -8.10043,-15.93561 -8.10043,-27.772363 z m 166.17185,-52.823947 0.79956,0.977659 0.005,-0.0038 z m 1.07365,20.828953 -0.69977,1.050921 0.008,0.0059 0.009,0.0057 z m 27.2709,9.233454 -0.30946,1.224727 0.0151,0.0035 z m 33.28338,15.675401 -0.83998,0.943556 z m -3.4357,63.560522 0.80587,0.9726 10e-4,-0.001 z m -103.93004,-13.95755 -0.97892,-0.7983 -0.7503,0.91956 0.87156,0.80587 z m 19.97003,-24.47939 0.8324,-0.94987 -0.98398,-0.86272 -0.82734,1.0143 z m 59.26589,17.39325 0.75787,1.0105 0.006,-0.005 z m -0.21473,-21.47315 -0.74525,1.01935 0.0126,0.0101 0.0139,0.009 z m -22.11735,-8.159793 0.30315,-1.226496 -0.0114,-0.0025 z m -38.43693,-16.104861 -0.81219,0.967555 0.0101,0.0076 0.009,0.0076 z m 3.22097,-64.419447 -0.75788,-1.010501 -0.006,0.0052 z m 68.49934,-6.4419444 0.41052,-1.1949175 z m 26.19724,14.6017404 1.03829,0.719477 0.65304,-0.942798 -0.87535,-0.74095 z m -16.96378,24.479389 -0.76293,1.006459 1.05092,0.796527 0.7503,-1.08351 z M 805.17337,31.893095 c -5.78512,0 -10.537,1.411418 -14.11797,4.369154 l 1.60923,1.947741 c 3.00498,-2.482043 7.12782,-3.790642 12.50874,-3.790642 z m -14.11291,4.365365 c -3.47107,2.840392 -5.18766,6.721979 -5.18766,11.499502 h 2.52625 c 0,-4.097961 1.43365,-7.231019 4.26053,-9.544183 z m -5.18766,11.499502 c 0,4.756302 2.17763,8.569681 6.3611,11.358032 l 1.40081,-2.101968 c -3.54812,-2.365078 -5.23566,-5.423107 -5.23566,-9.256064 z m 6.37752,11.369653 c 2.141,1.375797 5.53755,2.82915 10.10249,4.374838 4.58893,1.553519 10.43974,3.226909 17.5423,5.020801 l 0.61893,-2.449455 c -7.06846,-1.784924 -12.84979,-3.439998 -17.35157,-4.964213 -4.52452,-1.532046 -7.67728,-2.906074 -9.54544,-4.107055 z m 27.65994,9.399176 c 14.1887,3.405262 25.06927,8.558438 32.73771,15.390693 l 1.67996,-1.887111 C 846.25024,74.833707 834.94147,69.536407 820.50014,66.070262 Z m 32.73771,15.390693 c 7.53455,6.712253 11.38709,16.560846 11.38709,29.763046 h 2.52625 c 0,-13.709974 -4.02053,-24.332866 -12.23338,-31.650157 z m 11.38709,29.763046 c 0,13.08851 -4.92114,23.68109 -14.78995,31.88257 l 1.61427,1.94269 c 10.45869,-8.69157 15.70193,-20.00161 15.70193,-33.82526 z m -14.78869,31.88131 c -9.7387,8.07011 -22.67059,12.16391 -38.91945,12.16391 v 2.52625 c 16.67706,0 30.22914,-4.20874 40.5312,-12.74495 z m -38.91945,12.16391 c -23.41583,0 -44.51762,-8.66253 -63.34705,-26.07599 l -1.71532,1.85427 c 19.25004,17.80251 40.95055,26.74797 65.06237,26.74797 z m -63.22579,-24.35055 19.97003,-24.47939 -1.95784,-1.59659 -19.97003,24.47938 z m 18.15871,-24.32782 c 16.28296,14.26575 31.53016,21.57167 45.71128,21.57167 v -2.52625 c -13.30451,0 -27.97572,-6.86635 -44.04648,-20.94516 z m 45.71128,21.57167 c 6.31437,0 11.41361,-1.31996 15.14488,-4.11779 l -1.51575,-2.021 c -3.14013,2.35573 -7.63181,3.61254 -13.62913,3.61254 z m 15.1512,-4.12284 c 3.88916,-2.95445 5.86722,-6.90299 5.86722,-11.74202 h -2.52625 c 0,4.03695 -1.60038,7.24655 -4.86935,9.73112 z m 5.86722,-11.74202 c 0,-4.98935 -2.0589,-8.95936 -6.12743,-11.77487 l -1.43743,2.07658 c 3.37633,2.33805 5.03861,5.52618 5.03861,9.69829 z m -6.1009,-11.75592 c -3.94474,-2.88372 -11.54497,-5.648701 -22.55944,-8.366949 l -0.60503,2.452992 c 11.03088,2.722037 18.17512,5.396077 21.67398,7.952647 z m -22.5708,-8.369475 C 785.92459,90.494582 773.32616,85.18061 765.38236,78.770244 l -1.58648,1.965424 c 8.37579,6.758989 21.40241,12.182854 38.93839,16.351171 z M 765.40131,78.785401 C 757.76318,72.374526 753.82728,62.340882 753.82728,48.402156 h -2.52625 c 0,14.40583 4.08116,25.272759 12.4759,32.318355 z M 753.82728,48.402156 c 0,-13.975482 4.93883,-24.603048 14.74827,-32.063325 l -1.52965,-2.010644 c -10.51932,8.000389 -15.74487,19.418672 -15.74487,34.073969 z M 768.56797,16.34401 C 778.6174,8.8069351 791.15014,5.0011355 806.24703,5.0011355 V 2.4748828 c -15.53772,0 -28.63003,3.9245335 -39.19482,11.8481252 z M 806.24703,5.0011355 c 9.87385,0 19.75655,1.6922103 29.65315,5.0852205 l 0.81977,-2.3897089 C 826.57452,4.2183761 816.41519,2.4748828 806.24703,2.4748828 Z m 29.65315,5.0852205 c 9.88523,3.38922 18.47701,8.18228 25.79051,14.37122 l 1.63196,-1.928542 C 855.74895,16.12031 846.87548,11.17896 836.71995,7.6966471 Z m 25.5682,12.687472 -16.96378,24.479389 2.07658,1.438953 16.96378,-24.479388 z M 846.30581,46.966234 C 833.09983,36.952674 819.38228,31.893095 805.17337,31.893095 v 2.526253 c 13.56345,0 26.75933,4.818069 39.60659,14.559805 z"
     fill="#c4c4c4"
     id="path2"
     style="stroke-width:1.26313" />
  <path
     d="m 165.04873,166.1129 h 218.52085 c 8.37074,0 15.15752,6.78678 15.15752,15.15752 H 180.20624 c -8.37073,0 -15.15751,-6.78678 -15.15751,-15.15752 z"
     fill="#d92f30"
     id="path4"
     style="stroke-width:1.26313" />
  <path
     d="M 115.81206,97.904082 98.229338,150.95539 H 87.770652 L 74.6594,111.69742 61.320786,150.95539 H 50.786312 L 33.203594,97.904082 H 43.434917 L 56.621956,138.22307 70.339508,97.904082 h 9.09451 L 92.84842,138.45044 106.4144,97.904082 Z m 55.16578,0 v 53.051308 h -9.85238 v -22.73628 h -27.43511 v 22.73628 h -9.85239 V 97.904082 h 9.85239 v 21.902608 h 27.43511 V 97.904082 Z m 37.10434,34.331778 v 18.71953 h -9.85239 V 132.38743 L 177.38821,97.904082 h 10.53447 l 15.53646,25.843568 15.68803,-25.843568 h 9.70081 z m 70.97507,19.4774 c -7.32613,0 -13.03547,-2.04626 -17.128,-6.13879 -4.09252,-4.14305 -6.13879,-10.05449 -6.13879,-17.73429 V 97.904082 h 9.85239 v 29.557158 c 0,10.40816 4.49673,15.61224 13.49019,15.61224 8.94293,0 13.4144,-5.20408 13.4144,-15.61224 V 97.904082 h 9.70081 v 29.936098 c 0,7.6798 -2.04627,13.59124 -6.1388,17.73429 -4.042,4.09253 -9.72607,6.13879 -17.0522,6.13879 z m 53.43403,0 c -4.09253,0 -8.05874,-0.58103 -11.89865,-1.74311 -3.78938,-1.16208 -6.79562,-2.70309 -9.01872,-4.62304 l 3.41044,-7.65455 c 2.17258,1.71785 4.82514,3.13255 7.9577,4.24411 3.18307,1.06102 6.36615,1.59153 9.54923,1.59153 3.94096,0 6.87141,-0.63156 8.79136,-1.89468 1.97048,-1.26313 2.95572,-2.93046 2.95572,-5.00198 0,-1.51576 -0.55578,-2.75362 -1.66733,-3.7136 -1.06103,-1.0105 -2.4252,-1.79364 -4.09253,-2.34941 -1.66733,-0.55578 -3.94095,-1.18734 -6.82088,-1.89469 -4.04201,-0.95998 -7.32613,-1.91995 -9.85239,-2.87993 -2.47573,-0.95997 -4.62304,-2.45046 -6.44194,-4.47147 -1.76838,-2.07152 -2.65257,-4.8504 -2.65257,-8.33663 0,-2.93045 0.78314,-5.58302 2.34942,-7.9577 1.6168,-2.4252 4.01674,-4.34515 7.19982,-5.759852 3.2336,-1.414701 7.17456,-2.122052 11.82286,-2.122052 3.2336,0 6.41668,0.4042 9.54924,1.212601 3.13255,0.808401 5.83564,1.970473 8.10927,3.486233 l -3.10729,7.65454 c -2.32416,-1.36418 -4.74936,-2.39994 -7.27561,-3.10729 -2.52625,-0.70735 -4.97672,-1.06103 -7.3514,-1.06103 -3.89043,0 -6.79562,0.65683 -8.71557,1.97048 -1.86943,1.31365 -2.80414,3.05677 -2.80414,5.22934 0,1.51576 0.53051,2.75362 1.59154,3.7136 1.11155,0.95997 2.50099,1.71785 4.16832,2.27362 1.66732,0.55578 3.94095,1.18734 6.82088,1.89469 3.94095,0.90945 7.17456,1.86943 9.70081,2.87993 2.52625,0.95998 4.67357,2.45047 6.44194,4.47147 1.81891,2.021 2.72836,4.74935 2.72836,8.18506 0,2.93045 -0.8084,5.58302 -2.42521,7.95769 -1.56627,2.37468 -3.96621,4.26937 -7.19982,5.68407 -3.2336,1.4147 -7.17455,2.12205 -11.82286,2.12205 z"
     fill="#000000"
     id="path6"
     style="stroke-width:1.26313" />
</svg>
