<?xml version="1.0" encoding="UTF-8" standalone="no"?>
<svg
   width="1228"
   height="162"
   viewBox="0 0 1228 162"
   fill="none"
   version="1.1"
   id="svg8"
   sodipodi:docname="hall.svg"
   inkscape:version="1.1 (c68e22c387, 2021-05-23)"
   xmlns:inkscape="http://www.inkscape.org/namespaces/inkscape"
   xmlns:sodipodi="http://sodipodi.sourceforge.net/DTD/sodipodi-0.dtd"
   xmlns="http://www.w3.org/2000/svg"
   xmlns:svg="http://www.w3.org/2000/svg">
  <defs
     id="defs12" />
  <sodipodi:namedview
     id="namedview10"
     pagecolor="#505050"
     bordercolor="#eeeeee"
     borderopacity="1"
     inkscape:pageshadow="0"
     inkscape:pageopacity="0"
     inkscape:pagecheckerboard="0"
     showgrid="false"
     inkscape:zoom="0.89739414"
     inkscape:cx="613.44283"
     inkscape:cy="80.789474"
     inkscape:window-width="1920"
     inkscape:window-height="1027"
     inkscape:window-x="-8"
     inkscape:window-y="22"
     inkscape:window-maximized="1"
     inkscape:current-layer="svg8" />
  <path
     d="m 65.965299,39.344 v -1 h -1 v 1 z m 22.464,0 h 1 v -1 h -1 z m 0,100.656 v 1 h 1 v -1 z m -22.464,0 h -1 v 1 h 1 z m 0,-39.6 h 1 v -1 h -1 z m -40.032,0 v -1 h -1 v 1 z m 0,39.6 v 1 h 1 v -1 z m -22.4639995,0 h -1 v 1 h 1 z m 0,-100.656 v -1 h -1 v 1 z m 22.4639995,0 h 1 v -1 h -1 z m 0,42.048 h -1 v 1 h 1 z m 40.032,0 v 1 h 1 v -1 z m 0,-41.048 h 22.464 v -2 h -22.464 z m 21.464,-1 V 140 h 2 V 39.344 Z m 1,99.656 h -22.464 v 2 h 22.464 z m -21.464,1 v -39.6 h -2 V 140 Z m -1,-40.6 h -40.032 v 2 h 40.032 z m -41.032,1 V 140 h 2 v -39.6 z m 1,38.6 H 3.4692995 v 2 H 25.933299 Z M 4.4692995,140 V 39.344 h -2 V 140 Z m -1,-99.656 H 25.933299 v -2 H 3.4692995 Z m 21.4639995,-1 v 42.048 h 2 V 39.344 Z m 1,43.048 h 40.032 v -2 h -40.032 z m 41.032,-1 V 39.344 h -2 V 81.392 Z M 184.8693,140 l -0.919,0.395 0.26,0.605 h 0.659 z m -9.36,-21.744 0.918,-0.395 -0.26,-0.605 h -0.658 z m -42.192,0 v -1 h -0.659 l -0.26,0.605 z m -9.36,21.744 v 1 h 0.658 l 0.26,-0.605 z m -23.905,0 -0.917001,-0.397 -0.604,1.397 h 1.521001 z m 43.489,-100.656 v -1 h -0.658 l -0.26,0.6034 z m 21.744,0 0.917,-0.3966 -0.26,-0.6034 h -0.657 z M 208.7733,140 v 1 h 1.521 l -0.604,-1.397 z m -54.288,-70.704 0.919,-0.3939 -0.914,-2.1325 -0.923,2.1287 z m -12.672,29.232 -0.918,-0.3977 -0.606,1.3977 h 1.524 z m 25.2,0 v 1 h 1.516 l -0.597,-1.3939 z m 18.774,41.077 -9.36,-21.744 -1.837,0.79 9.36,21.744 z m -10.278,-22.349 h -42.192 v 2 h 42.192 z m -43.111,0.605 -9.36,21.744 1.837,0.79 9.36,-21.744 z M 123.9573,139 h -23.905 v 2 h 23.905 z m -22.987,1.397 43.488,-100.6564 -1.835,-0.7932 -43.488001,100.6556 z m 42.571,-100.053 h 21.744 v -2 h -21.744 z m 20.826,-0.6034 43.488,100.6564 1.835,-0.794 -43.488,-100.6556 z M 208.7733,139 h -23.904 v 2 h 23.904 z m -55.206,-70.1017 -12.672,29.232 1.835,0.7954 12.672,-29.232 z m -11.754,30.6297 h 25.2 v -2 h -25.2 z m 26.119,-1.3939 -12.528,-29.232 -1.839,0.7878 12.528,29.232 z M 220.4533,140 h -1 v 1 h 1 z m 0,-100.656 v -1 h -1 v 1 z m 22.464,0 h 1 v -1 h -1 z m 0,80.64 h -1 v 1 h 1 z m 42.912,0 h 1 v -1 h -1 z m 0,20.016 v 1 h 1 v -1 z m -64.376,0 V 39.344 h -2 V 140 Z m -1,-99.656 h 22.464 v -2 h -22.464 z m 21.464,-1 v 80.64 h 2 v -80.64 z m 1,81.64 h 42.912 v -2 h -42.912 z m 41.912,-1 V 140 h 2 v -20.016 z m 1,19.016 h -65.376 v 2 h 65.376 z m 16.468,1 h -1 v 1 h 1 z m 0,-100.656 v -1 h -1 v 1 z m 22.464,0 h 1 v -1 h -1 z m 0,80.64 h -1 v 1 h 1 z m 42.912,0 h 1 v -1 h -1 z m 0,20.016 v 1 h 1 v -1 z m -64.376,0 V 39.344 h -2 V 140 Z m -1,-99.656 h 22.464 v -2 h -22.464 z m 21.464,-1 v 80.64 h 2 v -80.64 z m 1,81.64 h 42.912 v -2 h -42.912 z m 41.912,-1 V 140 h 2 v -20.016 z m 1,19.016 h -65.376 v 2 h 65.376 z m 122.837,-72.872 -0.74,0.6727 v 0 z m -42.48,0 0.74,0.6727 v 0 z m 0,45.936 -0.74,0.673 0.005,0.005 z m 42.48,0 0.734,0.678 0.006,-0.005 z m 16.272,14.112 0.697,0.717 0.003,-0.003 z m -75.168,0 -0.701,0.714 0.004,0.003 z m 0,-74.16 0.697,0.7172 0.003,-0.0034 z m 75.168,0 -0.701,0.7138 0.004,0.0034 z m -6.632,37.152 c 0,-9.2581 -2.963,-17.182 -8.9,-23.7127 l -1.48,1.3454 c 5.583,6.1413 8.38,13.5774 8.38,22.3673 z m -8.9,-23.7127 c -5.947,-6.5412 -13.318,-9.8313 -22.052,-9.8313 v 2 c 8.162,0 14.998,3.0459 20.572,9.1767 z m -22.052,-9.8313 c -8.642,0 -15.964,3.2928 -21.908,9.8313 l 1.48,1.3454 c 5.575,-6.1335 12.365,-9.1767 20.428,-9.1767 z m -21.908,9.8313 c -5.937,6.5307 -8.9,14.4546 -8.9,23.7127 h 2 c 0,-8.7899 2.797,-16.226 8.38,-22.3673 z m -8.9,23.7127 c 0,9.1651 2.965,17.04 8.9,23.569 l 1.48,-1.346 c -5.585,-6.143 -8.38,-13.5321 -8.38,-22.223 z m 8.905,23.574 c 5.946,6.441 13.266,9.682 21.903,9.682 v -2 c -8.068,0 -14.859,-2.999 -20.434,-9.038 z m 21.903,9.682 c 8.728,0 16.098,-3.238 22.046,-9.682 l -1.469,-1.356 c -5.572,6.036 -12.41,9.038 -20.577,9.038 z m 22.052,-9.687 c 5.935,-6.529 8.9,-14.4039 8.9,-23.569 h -2 c 0,8.6909 -2.795,16.08 -8.38,22.223 z m 14.835,12.722 c -9.98,9.697 -22.254,14.549 -36.887,14.549 v 2 c 15.126,0 27.908,-5.036 38.281,-15.115 z m -36.887,14.549 c -14.634,0 -26.908,-4.852 -36.887,-14.549 l -1.394,1.434 c 10.372,10.079 23.154,15.115 38.281,15.115 z m -36.884,-14.546 c -9.977,-9.788 -14.964,-21.911 -14.964,-36.438 h -2 c 0,15.041 5.188,27.686 15.563,37.866 z m -14.964,-36.438 c 0,-14.5265 4.987,-26.5998 14.961,-36.2908 l -1.394,-1.4344 c -10.379,10.085 -15.567,22.6837 -15.567,37.7252 z m 14.964,-36.2942 c 9.98,-9.7918 22.253,-14.6898 36.884,-14.6898 v -2 c -15.13,0 -27.913,5.086 -38.285,15.2622 z M 469.1983,38.04 c 14.63,0 26.903,4.898 36.883,14.6898 l 1.401,-1.4276 C 497.1103,41.126 484.3273,36.04 469.1983,36.04 Z m 36.887,14.6932 c 9.973,9.691 14.961,21.7643 14.961,36.2908 h 2 c 0,-15.0415 -5.189,-27.6402 -15.567,-37.7252 z m 14.961,36.2908 c 0,14.527 -4.988,26.65 -14.965,36.438 l 1.401,1.428 c 10.375,-10.18 15.564,-22.825 15.564,-37.866 z m 89.152,-49.68 h 1 v -1 h -1 z m 0,19.728 v 1 h 1 v -1 z m -46.656,0 v -1 h -1 v 1 z m 0,21.744 h -1 v 1 h 1 z m 44.352,0 h 1 v -1 h -1 z m 0,19.728 v 1 h 1 v -1 z m -44.352,0 v -1 h -1 v 1 z m 0,39.456 v 1 h 1 v -1 z m -22.464,0 h -1 v 1 h 1 z m 0,-100.656 v -1 h -1 v 1 z m 68.12,0 v 19.728 h 2 V 39.344 Z m 1,18.728 h -46.656 v 2 h 46.656 z m -47.656,1 v 21.744 h 2 V 59.072 Z m 1,22.744 h 44.352 v -2 h -44.352 z m 43.352,-1 v 19.728 h 2 V 80.816 Z m 1,18.728 h -44.352 v 2 h 44.352 z m -45.352,1 V 140 h 2 v -39.456 z m 1,38.456 h -22.464 v 2 h 22.464 z m -21.464,1 V 39.344 h -2 V 140 Z m -1,-99.656 h 69.12 v -2 h -69.12 z m 195.261,-1 h 1 v -1 h -1 z m 0,19.728 v 1 h 1 v -1 z m -46.656,0 v -1 h -1 v 1 z m 0,21.744 h -1 v 1 h 1 z m 44.352,0 h 1 v -1 h -1 z m 0,19.728 v 1 h 1 v -1 z m -44.352,0 v -1 h -1 v 1 z m 0,39.456 v 1 h 1 v -1 z m -22.464,0 h -1 v 1 h 1 z m 0,-100.656 v -1 h -1 v 1 z m 68.12,0 v 19.728 h 2 V 39.344 Z m 1,18.728 h -46.656 v 2 h 46.656 z m -47.656,1 v 21.744 h 2 V 59.072 Z m 1,22.744 h 44.352 v -2 h -44.352 z m 43.352,-1 v 19.728 h 2 V 80.816 Z m 1,18.728 h -44.352 v 2 h 44.352 z m -45.352,1 V 140 h 2 v -39.456 z m 1,38.456 h -22.464 v 2 h 22.464 z m -21.464,1 V 39.344 h -2 V 140 Z m -1,-99.656 h 69.12 v -2 h -69.12 z m 154.4,99.656 -0.919,0.395 0.26,0.605 h 0.659 z m -9.36,-21.744 0.918,-0.395 -0.26,-0.605 h -0.658 z m -42.192,0 v -1 h -0.659 l -0.26,0.605 z m -9.36,21.744 v 1 h 0.658 l 0.26,-0.605 z m -23.905,0 -0.917,-0.397 -0.604,1.397 h 1.521 z m 43.489,-100.656 v -1 h -0.658 l -0.26,0.6034 z m 21.744,0 0.917,-0.3966 -0.26,-0.6034 h -0.657 z M 845.5233,140 v 1 h 1.521 l -0.604,-1.397 z m -54.288,-70.704 0.919,-0.3939 -0.914,-2.1325 -0.923,2.1287 z m -12.672,29.232 -0.918,-0.3977 -0.606,1.3977 h 1.524 z m 25.2,0 v 1 h 1.516 l -0.597,-1.3939 z m 18.774,41.077 -9.36,-21.744 -1.837,0.79 9.36,21.744 z m -10.278,-22.349 h -42.192 v 2 h 42.192 z m -43.111,0.605 -9.36,21.744 1.837,0.79 9.36,-21.744 z M 760.7073,139 h -23.905 v 2 h 23.905 z m -22.987,1.397 43.488,-100.6564 -1.835,-0.7932 -43.488,100.6556 z m 42.571,-100.053 h 21.744 v -2 h -21.744 z m 20.826,-0.6034 43.488,100.6564 1.835,-0.794 -43.488,-100.6556 z M 845.5233,139 h -23.904 v 2 h 23.904 z m -55.206,-70.1017 -12.672,29.232 1.835,0.7954 12.672,-29.232 z m -11.754,30.6297 h 25.2 v -2 h -25.2 z m 26.119,-1.3939 -12.528,-29.232 -1.839,0.7878 12.528,29.232 z M 947.3473,76.64 h 1 l -1.896,-0.4435 z m -27.216,55.008 v 1 h 0.621 l 0.276,-0.557 z m -13.392,0 -0.897,0.442 0.275,0.558 h 0.622 z m -27.072,-55.008 0.898,-0.4416 -1.898,0.4416 z m 0,63.36 v 1 h 1 v -1 z m -22.464,0 h -1 v 1 h 1 z m 0,-100.656 v -1 h -1 v 1 z m 30.384,0 0.906,-0.4244 -0.27,-0.5756 h -0.636 z m 25.92,55.296 -0.905,0.4244 0.903,1.9263 0.907,-1.9243 z m 26.064,-55.296 v -1 h -0.634 l -0.27,0.5736 z m 30.24,0 h 1 v -1 h -1 z m 0,100.656 v 1 h 1 v -1 z m -22.464,0 h -1 v 1 h 1 z m -0.896,-63.8035 -27.216,55.0085 1.793,0.886 27.216,-55.0075 z m -26.32,54.4515 h -13.392 v 2 h 13.392 z m -12.494,0.558 -27.072,-55.0076 -1.795,0.8832 27.072,55.0084 z M 878.6673,76.64 V 140 h 2 V 76.64 Z m 1,62.36 h -22.464 v 2 h 22.464 z m -21.464,1 V 39.344 h -2 V 140 Z m -1,-99.656 h 30.384 v -2 h -30.384 z m 29.479,-0.5756 25.92,55.296 1.811,-0.8488 -25.92,-55.296 z m 27.73,55.298 26.064,-55.296 -1.809,-0.8528 -26.064,55.296 z m 25.159,-54.7224 h 30.24 v -2 h -30.24 z m 29.24,-1 V 140 h 2 V 39.344 Z m 1,99.656 h -22.464 v 2 h 22.464 z m -21.464,1 V 76.64 h -2 V 140 Z m 118.828,-100.656 h 1 v -1 h -1 z m 0,20.016 v 1 h 1 v -1 z m -50.12,0 v -1 h -1 v 1 z m 0,20.736 h -1 v 1 h 1 z m 45.08,0 h 1 v -1 h -1 z m 0,19.152 v 1 h 1 v -1 z m -45.08,0 v -1 h -1 v 1 z m 0,20.88 h -1 v 1 h 1 z m 51.7,0 h 1 v -1 h -1 z m 0,19.872 v 1 h 1 v -1 z m -74.16,0 h -1 v 1 h 1 z m 0,-100.656 v -1 h -1 v 1 z m 71.58,0 V 59.36 h 2 V 39.344 Z m 1,19.016 h -50.12 v 2 h 50.12 z m -51.12,1 v 20.736 h 2 V 59.36 Z m 1,21.736 h 45.08 v -2 h -45.08 z m 44.08,-1 v 19.152 h 2 V 80.096 Z m 1,18.152 h -45.08 v 2 h 45.08 z m -46.08,1 v 20.88 h 2 v -20.88 z m 1,21.88 h 51.7 v -2 h -51.7 z m 50.7,-1 V 140 h 2 v -19.872 z m 1,18.872 h -74.16 v 2 h 74.16 z m -73.16,1 V 39.344 h -2 V 140 Z m -1,-99.656 h 72.58 v -2 h -72.58 z"
     fill="#c4c4c4"
     id="path2" />
  <path
     d="m 137.0853,149.286 h 340.55115 c 13.413,0 24.28551,5.692 24.28551,12.714 v 0 H 161.37081 c -13.413,0 -24.28551,-5.692 -24.28551,-12.714 z"
     fill="#d92f30"
     id="path4"
     style="stroke-width:1.38208" />
  <path
     d="M 48.760707,89.156196 V 142.08993 H 38.930155 V 119.40405 H 11.555851 v 22.68588 H 1.7252995 V 89.156196 H 11.555851 V 111.01027 H 38.930155 V 89.156196 Z m 48.515284,40.683364 h -26.46687 l -5.217754,12.25037 H 55.458337 L 79.278519,89.156196 h 9.679313 L 112.85363,142.08993 H 102.56936 Z M 94.024347,122.12635 84.042556,98.986748 74.136385,122.12635 Z M 119.58605,89.156196 h 9.83055 v 44.615584 h 27.67679 v 8.31815 h -37.50734 z m 45.26843,0 h 9.83055 v 44.615584 h 27.67678 v 8.31815 h -37.50733 z m 90.89479,53.689934 c -5.3942,0 -10.25906,-1.1595 -14.59459,-3.4785 -4.33552,-2.36942 -7.73841,-5.62106 -10.20865,-9.75493 -2.47024,-4.18429 -3.70536,-8.8475 -3.70536,-13.98963 0,-5.14214 1.23512,-9.78014 3.70536,-13.91402 2.47024,-4.184282 5.87313,-7.435926 10.20865,-9.754928 C 245.49021,89.584707 250.35507,88.4 255.74927,88.4 c 5.3942,0 10.25906,1.184707 14.59459,3.554122 4.33552,2.319002 7.73841,5.54544 10.20865,9.679308 2.47024,4.13388 3.70536,8.79709 3.70536,13.98964 0,5.19254 -1.23512,9.85575 -3.70536,13.98963 -2.47024,4.13387 -5.87313,7.38551 -10.20865,9.75493 -4.33553,2.319 -9.20039,3.4785 -14.59459,3.4785 z m 0,-8.62064 c 3.52892,0 6.70494,-0.7814 9.52807,-2.3442 2.82314,-1.61322 5.04131,-3.8314 6.65453,-6.65453 1.61322,-2.87355 2.41983,-6.07478 2.41983,-9.60369 0,-3.52892 -0.80661,-6.70494 -2.41983,-9.52808 -1.61322,-2.87354 -3.83139,-5.09172 -6.65453,-6.654525 -2.82313,-1.613218 -5.99915,-2.419828 -9.52807,-2.419828 -3.52892,0 -6.70494,0.80661 -9.52807,2.419828 -2.82314,1.562805 -5.04131,3.780985 -6.65453,6.654525 -1.61322,2.82314 -2.41983,5.99916 -2.41983,9.52808 0,3.52891 0.80661,6.73014 2.41983,9.60369 1.61322,2.82313 3.83139,5.04131 6.65453,6.65453 2.82313,1.5628 5.99915,2.3442 9.52807,2.3442 z m 48.75828,-36.826754 v 16.106984 h 25.55943 v 8.31815 h -25.55943 v 20.26606 h -9.83056 V 89.156196 h 38.64163 v 8.24254 z m 69.04828,0 v 16.106984 h 25.55943 v 8.31815 h -25.55943 v 20.26606 h -9.83055 V 89.156196 h 38.64162 v 8.24254 z m 51.5814,3.856604 c 5.94875,0 10.48593,1.43677 13.61154,4.31032 3.17602,2.82313 4.76403,7.10824 4.76403,12.85533 v 23.66894 h -8.92311 v -4.91527 c -1.1595,1.76446 -2.82313,3.12561 -4.9909,4.08346 -2.11735,0.90743 -4.68841,1.36115 -7.7132,1.36115 -3.02478,0 -5.67147,-0.50413 -7.94006,-1.51239 -2.26859,-1.05867 -4.03305,-2.49545 -5.29337,-4.31032 -1.20992,-1.86528 -1.81488,-3.95743 -1.81488,-6.27643 0,-3.62974 1.33595,-6.52849 4.00784,-8.69626 2.72231,-2.21817 6.98222,-3.32726 12.77972,-3.32726 h 10.43551 v -0.60496 c 0,-2.82313 -0.85702,-4.99089 -2.57107,-6.50328 -1.66363,-1.5124 -4.15908,-2.26859 -7.48634,-2.26859 -2.26859,0 -4.51197,0.35289 -6.73015,1.05867 -2.16776,0.70579 -4.00784,1.68884 -5.52023,2.94917 l -3.70536,-6.88139 c 2.11735,-1.61322 4.66321,-2.84834 7.63758,-3.70536 2.97437,-0.85702 6.12519,-1.28553 9.45245,-1.28553 z m -1.28553,34.48255 c 2.36942,0 4.46156,-0.52934 6.27643,-1.58802 1.86528,-1.10908 3.17602,-2.67189 3.93222,-4.68841 v -4.68842 h -9.75493 c -5.44461,0 -8.16692,1.78966 -8.16692,5.36899 0,1.71405 0.68058,3.0752 2.04173,4.08346 1.36115,1.00827 3.25164,1.5124 5.67147,1.5124 z m 82.75938,-34.48255 c 5.09172,0 9.12477,1.48718 12.09914,4.46155 2.97437,2.92396 4.46156,7.33511 4.46156,13.23344 v 23.1396 h -9.45245 v -21.92969 c 0,-3.52891 -0.78141,-6.1756 -2.34421,-7.94006 -1.56281,-1.81487 -3.80619,-2.7223 -6.73015,-2.7223 -3.17602,0 -5.72188,1.05867 -7.63758,3.17602 -1.9157,2.06694 -2.87355,5.04131 -2.87355,8.92312 v 20.49291 h -9.45245 v -21.92969 c 0,-3.52891 -0.7814,-6.1756 -2.34421,-7.94006 -1.56281,-1.81487 -3.80619,-2.7223 -6.73015,-2.7223 -3.22643,0 -5.7975,1.03346 -7.7132,3.1004 -1.86528,2.06694 -2.79792,5.06652 -2.79792,8.99874 v 20.49291 h -9.45246 v -40.38088 h 8.99874 v 5.14214 c 1.51239,-1.81487 3.40288,-3.20123 5.67147,-4.15908 2.26859,-0.95785 4.78924,-1.43677 7.56196,-1.43677 3.02479,0 5.69668,0.57975 8.01568,1.73925 2.36942,1.10909 4.2347,2.77272 5.59586,4.99089 1.66363,-2.11735 3.80618,-3.75577 6.42766,-4.91527 2.62148,-1.20992 5.52024,-1.81487 8.69626,-1.81487 z m 66.97,20.87101 c 0,0.65537 -0.0504,1.58802 -0.15124,2.79793 h -31.68462 c 0.55454,2.97437 1.99132,5.34379 4.31032,7.10824 2.36941,1.71405 5.29337,2.57107 8.77187,2.57107 4.43636,0 8.0913,-1.46198 10.96485,-4.38594 l 5.06652,5.82271 c -1.81488,2.16777 -4.10867,3.80619 -6.88139,4.91528 -2.77272,1.10909 -5.89833,1.66363 -9.37683,1.66363 -4.43636,0 -8.34337,-0.88223 -11.72105,-2.64668 -3.37767,-1.76446 -5.99915,-4.2095 -7.86444,-7.33511 -1.81487,-3.17602 -2.7223,-6.75535 -2.7223,-10.73799 0,-3.93222 0.88223,-7.46113 2.64668,-10.58674 1.81487,-3.17603 4.31032,-5.64627 7.48635,-7.41073 3.17602,-1.76445 6.75535,-2.64668 10.73798,-2.64668 3.93222,0 7.43593,0.88223 10.51113,2.64668 3.12561,1.71405 5.54544,4.15908 7.25949,7.33511 1.76445,3.12561 2.64668,6.75535 2.64668,10.88922 z m -20.4173,-13.30905 c -3.02478,0 -5.59585,0.90743 -7.7132,2.72231 -2.06694,1.76445 -3.32726,4.13387 -3.78098,7.10824 h 22.91275 c -0.40331,-2.92396 -1.63843,-5.29337 -3.70537,-7.10824 -2.06693,-1.81488 -4.638,-2.72231 -7.7132,-2.72231 z"
     fill="#000000"
     id="path6"
     style="stroke-width:1.26033" />
</svg>
