<svg width="1207" height="372" viewBox="0 0 1207 372" fill="none" xmlns="http://www.w3.org/2000/svg">
<path d="M330.015 45.17V44.17H329.015V45.17H330.015ZM356.535 45.17H357.535V44.17H356.535V45.17ZM356.535 164V165H357.535V164H356.535ZM330.015 164H329.015V165H330.015V164ZM330.015 117.25H331.015V116.25H330.015V117.25ZM282.755 117.25V116.25H281.755V117.25H282.755ZM282.755 164V165H283.755V164H282.755ZM256.235 164H255.235V165H256.235V164ZM256.235 45.17V44.17H255.235V45.17H256.235ZM282.755 45.17H283.755V44.17H282.755V45.17ZM282.755 94.81H281.755V95.81H282.755V94.81ZM330.015 94.81V95.81H331.015V94.81H330.015ZM330.015 46.17H356.535V44.17H330.015V46.17ZM355.535 45.17V164H357.535V45.17H355.535ZM356.535 163H330.015V165H356.535V163ZM331.015 164V117.25H329.015V164H331.015ZM330.015 116.25H282.755V118.25H330.015V116.25ZM281.755 117.25V164H283.755V117.25H281.755ZM282.755 163H256.235V165H282.755V163ZM257.235 164V45.17H255.235V164H257.235ZM256.235 46.17H282.755V44.17H256.235V46.17ZM281.755 45.17V94.81H283.755V45.17H281.755ZM282.755 95.81H330.015V93.81H282.755V95.81ZM331.015 94.81V45.17H329.015V94.81H331.015ZM470.387 164L469.469 164.395L469.729 165H470.387V164ZM459.337 138.33L460.256 137.935L459.996 137.33H459.337V138.33ZM409.527 138.33V137.33H408.869L408.609 137.935L409.527 138.33ZM398.477 164V165H399.136L399.396 164.395L398.477 164ZM370.257 164L369.339 163.603L368.736 165H370.257V164ZM421.597 45.17V44.17H420.94L420.679 44.7734L421.597 45.17ZM447.267 45.17L448.185 44.7734L447.925 44.17H447.267V45.17ZM498.607 164V165H500.129L499.525 163.603L498.607 164ZM434.517 80.53L435.437 80.1361L434.523 78.0036L433.6 80.1323L434.517 80.53ZM419.557 115.04L418.64 114.642L418.034 116.04H419.557V115.04ZM449.307 115.04V116.04H450.824L450.227 114.646L449.307 115.04ZM471.306 163.605L460.256 137.935L458.419 138.725L469.469 164.395L471.306 163.605ZM459.337 137.33H409.527V139.33H459.337V137.33ZM408.609 137.935L397.559 163.605L399.396 164.395L410.446 138.725L408.609 137.935ZM398.477 163H370.257V165H398.477V163ZM371.175 164.397L422.515 45.5666L420.679 44.7734L369.339 163.603L371.175 164.397ZM421.597 46.17H447.267V44.17H421.597V46.17ZM446.349 45.5666L497.689 164.397L499.525 163.603L448.185 44.7734L446.349 45.5666ZM498.607 163H470.387V165H498.607V163ZM433.6 80.1323L418.64 114.642L420.475 115.438L435.435 80.9277L433.6 80.1323ZM419.557 116.04H449.307V114.04H419.557V116.04ZM450.227 114.646L435.437 80.1361L433.598 80.9239L448.388 115.434L450.227 114.646ZM512.397 164H511.397V165H512.397V164ZM512.397 45.17V44.17H511.397V45.17H512.397ZM538.917 45.17H539.917V44.17H538.917V45.17ZM538.917 140.37H537.917V141.37H538.917V140.37ZM589.577 140.37H590.577V139.37H589.577V140.37ZM589.577 164V165H590.577V164H589.577ZM513.397 164V45.17H511.397V164H513.397ZM512.397 46.17H538.917V44.17H512.397V46.17ZM537.917 45.17V140.37H539.917V45.17H537.917ZM538.917 141.37H589.577V139.37H538.917V141.37ZM588.577 140.37V164H590.577V140.37H588.577ZM589.577 163H512.397V165H589.577V163ZM609.018 164H608.018V165H609.018V164ZM609.018 45.17V44.17H608.018V45.17H609.018ZM635.538 45.17H636.538V44.17H635.538V45.17ZM635.538 140.37H634.538V141.37H635.538V140.37ZM686.198 140.37H687.198V139.37H686.198V140.37ZM686.198 164V165H687.198V164H686.198ZM610.018 164V45.17H608.018V164H610.018ZM609.018 46.17H635.538V44.17H609.018V46.17ZM634.538 45.17V140.37H636.538V45.17H634.538ZM635.538 141.37H686.198V139.37H635.538V141.37ZM685.198 140.37V164H687.198V140.37H685.198ZM686.198 163H609.018V165H686.198V163ZM831.214 76.79L830.474 77.4627L830.474 77.4627L831.214 76.79ZM781.064 76.79L781.804 77.4627L781.804 77.4627L781.064 76.79ZM781.064 131.02L780.324 131.693L780.329 131.698L781.064 131.02ZM831.214 131.02L831.949 131.698L831.954 131.693L831.214 131.02ZM850.424 147.68L851.121 148.397L851.124 148.394L850.424 147.68ZM761.684 147.68L760.983 148.394L760.987 148.397L761.684 147.68ZM761.684 60.13L762.381 60.8472L762.384 60.8438L761.684 60.13ZM850.424 60.13L849.723 60.8438L849.727 60.8472L850.424 60.13ZM842.414 103.99C842.414 93.1026 838.931 83.792 831.954 76.1173L830.474 77.4627C837.097 84.748 840.414 93.5707 840.414 103.99H842.414ZM831.954 76.1173C824.967 68.4321 816.313 64.57 806.054 64.57V66.57C815.741 66.57 823.86 70.1879 830.474 77.4627L831.954 76.1173ZM806.054 64.57C795.904 64.57 787.308 68.4348 780.324 76.1173L781.804 77.4627C788.42 70.1852 796.483 66.57 806.054 66.57V64.57ZM780.324 76.1173C773.347 83.792 769.864 93.1026 769.864 103.99H771.864C771.864 93.5707 775.181 84.748 781.804 77.4627L780.324 76.1173ZM769.864 103.99C769.864 114.767 773.349 124.02 780.324 131.693L781.804 130.347C775.179 123.06 771.864 114.293 771.864 103.99H769.864ZM780.329 131.698C787.315 139.266 795.909 143.07 806.054 143.07V141.07C796.478 141.07 788.413 137.507 781.799 130.342L780.329 131.698ZM806.054 143.07C816.308 143.07 824.96 139.269 831.949 131.698L830.479 130.342C823.867 137.505 815.746 141.07 806.054 141.07V143.07ZM831.954 131.693C838.929 124.02 842.414 114.767 842.414 103.99H840.414C840.414 114.293 837.099 123.06 830.474 130.347L831.954 131.693ZM849.727 146.963C837.91 158.445 823.374 164.19 806.054 164.19V166.19C823.867 166.19 838.911 160.261 851.121 148.397L849.727 146.963ZM806.054 164.19C788.733 164.19 774.197 158.445 762.381 146.963L760.987 148.397C773.197 160.261 788.241 166.19 806.054 166.19V164.19ZM762.384 146.966C750.57 135.375 744.664 121.016 744.664 103.82H742.664C742.664 121.531 748.771 136.411 760.983 148.394L762.384 146.966ZM744.664 103.82C744.664 86.6242 750.57 72.3236 762.381 60.8472L760.987 59.4128C748.771 71.2831 742.664 86.1092 742.664 103.82H744.664ZM762.384 60.8438C774.202 49.2493 788.736 43.45 806.054 43.45V41.45C788.238 41.45 773.193 47.4374 760.983 59.4162L762.384 60.8438ZM806.054 43.45C823.371 43.45 837.906 49.2493 849.723 60.8438L851.124 59.4162C838.915 47.4374 823.87 41.45 806.054 41.45V43.45ZM849.727 60.8472C861.538 72.3236 867.444 86.6242 867.444 103.82H869.444C869.444 86.1092 863.337 71.2831 851.121 59.4128L849.727 60.8472ZM867.444 103.82C867.444 121.016 861.537 135.375 849.723 146.966L851.124 148.394C863.337 136.411 869.444 121.531 869.444 103.82H867.444ZM972.513 45.17H973.513V44.17H972.513V45.17ZM972.513 68.46V69.46H973.513V68.46H972.513ZM917.433 68.46V67.46H916.433V68.46H917.433ZM917.433 94.13H916.433V95.13H917.433V94.13ZM969.793 94.13H970.793V93.13H969.793V94.13ZM969.793 117.42V118.42H970.793V117.42H969.793ZM917.433 117.42V116.42H916.433V117.42H917.433ZM917.433 164V165H918.433V164H917.433ZM890.913 164H889.913V165H890.913V164ZM890.913 45.17V44.17H889.913V45.17H890.913ZM971.513 45.17V68.46H973.513V45.17H971.513ZM972.513 67.46H917.433V69.46H972.513V67.46ZM916.433 68.46V94.13H918.433V68.46H916.433ZM917.433 95.13H969.793V93.13H917.433V95.13ZM968.793 94.13V117.42H970.793V94.13H968.793ZM969.793 116.42H917.433V118.42H969.793V116.42ZM916.433 117.42V164H918.433V117.42H916.433ZM917.433 163H890.913V165H917.433V163ZM891.913 164V45.17H889.913V164H891.913ZM890.913 46.17H972.513V44.17H890.913V46.17ZM458.363 252.17H459.363V251.17H458.363V252.17ZM458.363 275.46V276.46H459.363V275.46H458.363ZM403.283 275.46V274.46H402.283V275.46H403.283ZM403.283 301.13H402.283V302.13H403.283V301.13ZM455.643 301.13H456.643V300.13H455.643V301.13ZM455.643 324.42V325.42H456.643V324.42H455.643ZM403.283 324.42V323.42H402.283V324.42H403.283ZM403.283 371V372H404.283V371H403.283ZM376.763 371H375.763V372H376.763V371ZM376.763 252.17V251.17H375.763V252.17H376.763ZM457.363 252.17V275.46H459.363V252.17H457.363ZM458.363 274.46H403.283V276.46H458.363V274.46ZM402.283 275.46V301.13H404.283V275.46H402.283ZM403.283 302.13H455.643V300.13H403.283V302.13ZM454.643 301.13V324.42H456.643V301.13H454.643ZM455.643 323.42H403.283V325.42H455.643V323.42ZM402.283 324.42V371H404.283V324.42H402.283ZM403.283 370H376.763V372H403.283V370ZM377.763 371V252.17H375.763V371H377.763ZM376.763 253.17H458.363V251.17H376.763V253.17ZM559.04 371L558.121 371.395L558.382 372H559.04V371ZM547.99 345.33L548.908 344.935L548.648 344.33H547.99V345.33ZM498.18 345.33V344.33H497.522L497.261 344.935L498.18 345.33ZM487.13 371V372H487.788L488.048 371.395L487.13 371ZM458.91 371L457.992 370.603L457.388 372H458.91V371ZM510.25 252.17V251.17H509.592L509.332 251.773L510.25 252.17ZM535.92 252.17L536.838 251.773L536.577 251.17H535.92V252.17ZM587.26 371V372H588.781L588.178 370.603L587.26 371ZM523.17 287.53L524.089 287.136L523.175 285.004L522.252 287.132L523.17 287.53ZM508.21 322.04L507.292 321.642L506.686 323.04H508.21V322.04ZM537.96 322.04V323.04H539.476L538.879 321.646L537.96 322.04ZM559.958 370.605L548.908 344.935L547.071 345.725L558.121 371.395L559.958 370.605ZM547.99 344.33H498.18V346.33H547.99V344.33ZM497.261 344.935L486.211 370.605L488.048 371.395L499.098 345.725L497.261 344.935ZM487.13 370H458.91V372H487.13V370ZM459.828 371.397L511.168 252.567L509.332 251.773L457.992 370.603L459.828 371.397ZM510.25 253.17H535.92V251.17H510.25V253.17ZM535.002 252.567L586.342 371.397L588.178 370.603L536.838 251.773L535.002 252.567ZM587.26 370H559.04V372H587.26V370ZM522.252 287.132L507.292 321.642L509.127 322.438L524.087 287.928L522.252 287.132ZM508.21 323.04H537.96V321.04H508.21V323.04ZM538.879 321.646L524.089 287.136L522.251 287.924L537.041 322.434L538.879 321.646ZM707.47 296.2H708.47L706.573 295.757L707.47 296.2ZM675.34 361.14V362.14H675.961L676.236 361.583L675.34 361.14ZM659.53 361.14L658.632 361.582L658.907 362.14H659.53V361.14ZM627.57 296.2L628.467 295.758L626.57 296.2H627.57ZM627.57 371V372H628.57V371H627.57ZM601.05 371H600.05V372H601.05V371ZM601.05 252.17V251.17H600.05V252.17H601.05ZM636.92 252.17L637.825 251.746L637.555 251.17H636.92V252.17ZM667.52 317.45L666.614 317.874L667.517 319.801L668.424 317.876L667.52 317.45ZM698.29 252.17V251.17H697.656L697.385 251.744L698.29 252.17ZM733.99 252.17H734.99V251.17H733.99V252.17ZM733.99 371V372H734.99V371H733.99ZM707.47 371H706.47V372H707.47V371ZM706.573 295.757L674.443 360.697L676.236 361.583L708.366 296.643L706.573 295.757ZM675.34 360.14H659.53V362.14H675.34V360.14ZM660.427 360.698L628.467 295.758L626.672 296.642L658.632 361.582L660.427 360.698ZM626.57 296.2V371H628.57V296.2H626.57ZM627.57 370H601.05V372H627.57V370ZM602.05 371V252.17H600.05V371H602.05ZM601.05 253.17H636.92V251.17H601.05V253.17ZM636.014 252.594L666.614 317.874L668.425 317.026L637.825 251.746L636.014 252.594ZM668.424 317.876L699.194 252.596L697.385 251.744L666.615 317.024L668.424 317.876ZM698.29 253.17H733.99V251.17H698.29V253.17ZM732.99 252.17V371H734.99V252.17H732.99ZM733.99 370H707.47V372H733.99V370ZM708.47 371V296.2H706.47V371H708.47ZM848.927 252.17H849.927V251.17H848.927V252.17ZM848.927 275.8V276.8H849.927V275.8H848.927ZM789.767 275.8V274.8H788.767V275.8H789.767ZM789.767 300.28H788.767V301.28H789.767V300.28ZM842.977 300.28H843.977V299.28H842.977V300.28ZM842.977 322.89V323.89H843.977V322.89H842.977ZM789.767 322.89V321.89H788.767V322.89H789.767ZM789.767 347.54H788.767V348.54H789.767V347.54ZM850.797 347.54H851.797V346.54H850.797V347.54ZM850.797 371V372H851.797V371H850.797ZM763.247 371H762.247V372H763.247V371ZM763.247 252.17V251.17H762.247V252.17H763.247ZM847.927 252.17V275.8H849.927V252.17H847.927ZM848.927 274.8H789.767V276.8H848.927V274.8ZM788.767 275.8V300.28H790.767V275.8H788.767ZM789.767 301.28H842.977V299.28H789.767V301.28ZM841.977 300.28V322.89H843.977V300.28H841.977ZM842.977 321.89H789.767V323.89H842.977V321.89ZM788.767 322.89V347.54H790.767V322.89H788.767ZM789.767 348.54H850.797V346.54H789.767V348.54ZM849.797 347.54V371H851.797V347.54H849.797ZM850.797 370H763.247V372H850.797V370ZM764.247 371V252.17H762.247V371H764.247ZM763.247 253.17H848.927V251.17H763.247V253.17Z" fill="#C4C4C4"/>
<path d="M162 165.286H340.286C347.308 165.286 353 170.978 353 178V178H174.714C167.692 178 162 172.308 162 165.286V165.286Z" fill="#D92F30"/>
<path d="M63.96 105V147H56.16V129H34.44V147H26.64V105H34.44V122.34H56.16V105H63.96ZM102.454 137.28H81.4542L77.3142 147H69.2742L88.1742 105H95.8542L114.814 147H106.654L102.454 137.28ZM99.8742 131.16L91.9542 112.8L84.0942 131.16H99.8742ZM120.156 105H127.956V140.4H149.916V147H120.156V105ZM156.074 105H163.874V140.4H185.834V147H156.074V105ZM228.194 147.6C223.914 147.6 220.054 146.68 216.614 144.84C213.174 142.96 210.474 140.38 208.514 137.1C206.554 133.78 205.574 130.08 205.574 126C205.574 121.92 206.554 118.24 208.514 114.96C210.474 111.64 213.174 109.06 216.614 107.22C220.054 105.34 223.914 104.4 228.194 104.4C232.474 104.4 236.334 105.34 239.774 107.22C243.214 109.06 245.914 111.62 247.874 114.9C249.834 118.18 250.814 121.88 250.814 126C250.814 130.12 249.834 133.82 247.874 137.1C245.914 140.38 243.214 142.96 239.774 144.84C236.334 146.68 232.474 147.6 228.194 147.6ZM228.194 140.76C230.994 140.76 233.514 140.14 235.754 138.9C237.994 137.62 239.754 135.86 241.034 133.62C242.314 131.34 242.954 128.8 242.954 126C242.954 123.2 242.314 120.68 241.034 118.44C239.754 116.16 237.994 114.4 235.754 113.16C233.514 111.88 230.994 111.24 228.194 111.24C225.394 111.24 222.874 111.88 220.634 113.16C218.394 114.4 216.634 116.16 215.354 118.44C214.074 120.68 213.434 123.2 213.434 126C213.434 128.8 214.074 131.34 215.354 133.62C216.634 135.86 218.394 137.62 220.634 138.9C222.874 140.14 225.394 140.76 228.194 140.76ZM266.881 111.54V124.32H287.161V130.92H266.881V147H259.081V105H289.741V111.54H266.881ZM321.667 111.54V124.32H341.947V130.92H321.667V147H313.867V105H344.527V111.54H321.667ZM362.594 114.6C367.314 114.6 370.914 115.74 373.394 118.02C375.914 120.26 377.174 123.66 377.174 128.22V147H370.094V143.1C369.174 144.5 367.854 145.58 366.134 146.34C364.454 147.06 362.414 147.42 360.014 147.42C357.614 147.42 355.514 147.02 353.714 146.22C351.914 145.38 350.514 144.24 349.514 142.8C348.554 141.32 348.074 139.66 348.074 137.82C348.074 134.94 349.134 132.64 351.254 130.92C353.414 129.16 356.794 128.28 361.394 128.28H369.674V127.8C369.674 125.56 368.994 123.84 367.634 122.64C366.314 121.44 364.334 120.84 361.694 120.84C359.894 120.84 358.114 121.12 356.354 121.68C354.634 122.24 353.174 123.02 351.974 124.02L349.034 118.56C350.714 117.28 352.734 116.3 355.094 115.62C357.454 114.94 359.954 114.6 362.594 114.6ZM361.574 141.96C363.454 141.96 365.114 141.54 366.554 140.7C368.034 139.82 369.074 138.58 369.674 136.98V133.26H361.934C357.614 133.26 355.454 134.68 355.454 137.52C355.454 138.88 355.994 139.96 357.074 140.76C358.154 141.56 359.654 141.96 361.574 141.96ZM427.239 114.6C431.279 114.6 434.479 115.78 436.839 118.14C439.199 120.46 440.379 123.96 440.379 128.64V147H432.879V129.6C432.879 126.8 432.259 124.7 431.019 123.3C429.779 121.86 427.999 121.14 425.679 121.14C423.159 121.14 421.139 121.98 419.619 123.66C418.099 125.3 417.339 127.66 417.339 130.74V147H409.839V129.6C409.839 126.8 409.219 124.7 407.979 123.3C406.739 121.86 404.959 121.14 402.639 121.14C400.079 121.14 398.039 121.96 396.519 123.6C395.039 125.24 394.299 127.62 394.299 130.74V147H386.799V114.96H393.939V119.04C395.139 117.6 396.639 116.5 398.439 115.74C400.239 114.98 402.239 114.6 404.439 114.6C406.839 114.6 408.959 115.06 410.799 115.98C412.679 116.86 414.159 118.18 415.239 119.94C416.559 118.26 418.259 116.96 420.339 116.04C422.419 115.08 424.719 114.6 427.239 114.6ZM480.376 131.16C480.376 131.68 480.336 132.42 480.256 133.38H455.116C455.556 135.74 456.696 137.62 458.536 139.02C460.416 140.38 462.736 141.06 465.496 141.06C469.016 141.06 471.916 139.9 474.196 137.58L478.216 142.2C476.776 143.92 474.956 145.22 472.756 146.1C470.556 146.98 468.076 147.42 465.316 147.42C461.796 147.42 458.696 146.72 456.016 145.32C453.336 143.92 451.256 141.98 449.776 139.5C448.336 136.98 447.616 134.14 447.616 130.98C447.616 127.86 448.316 125.06 449.716 122.58C451.156 120.06 453.136 118.1 455.656 116.7C458.176 115.3 461.016 114.6 464.176 114.6C467.296 114.6 470.076 115.3 472.516 116.7C474.996 118.06 476.916 120 478.276 122.52C479.676 125 480.376 127.88 480.376 131.16ZM464.176 120.6C461.776 120.6 459.736 121.32 458.056 122.76C456.416 124.16 455.416 126.04 455.056 128.4H473.236C472.916 126.08 471.936 124.2 470.296 122.76C468.656 121.32 466.616 120.6 464.176 120.6Z" fill="black"/>
</svg>
