<svg width="986" height="189" viewBox="0 0 986 189" fill="none" xmlns="http://www.w3.org/2000/svg">
<path d="M103.341 158.22L102.861 159.098L102.873 159.104L103.341 158.22ZM80.2207 136.29L79.3596 136.798L79.3632 136.805L79.367 136.811L80.2207 136.29ZM80.2207 72.88L79.3642 72.364L79.3623 72.367L80.2207 72.88ZM103.341 50.95L103.812 51.8318L103.816 51.8298L103.341 50.95ZM164.371 48.4L163.969 49.3159L163.974 49.3179L164.371 48.4ZM185.451 64.04L186.129 64.7748L186.827 64.1301L186.219 63.3998L185.451 64.04ZM167.771 80.36L167.015 81.0146L167.69 81.795L168.449 81.0948L167.771 80.36ZM118.131 71.35L118.612 72.2266L118.619 72.223L118.625 72.2193L118.131 71.35ZM104.531 84.78L103.661 84.2857L103.658 84.2922L103.654 84.2987L104.531 84.78ZM104.531 124.22L103.654 124.701L103.658 124.708L103.661 124.714L104.531 124.22ZM118.131 137.82L117.636 138.689L117.643 138.693L117.649 138.697L118.131 137.82ZM167.771 128.47L168.449 127.735L167.686 127.031L167.011 127.82L167.771 128.47ZM185.451 144.79L186.224 145.424L186.822 144.695L186.129 144.055L185.451 144.79ZM164.371 160.6L163.974 159.682L164.371 160.6ZM136.321 165.04C124.342 165.04 113.512 162.467 103.808 157.336L102.873 159.104C112.89 164.4 124.046 167.04 136.321 167.04V165.04ZM103.82 157.342C94.2242 152.098 86.648 144.91 81.0745 135.769L79.367 136.811C85.1268 146.257 92.9639 153.689 102.861 159.098L103.82 157.342ZM81.0819 135.782C75.6266 126.541 72.8907 116.122 72.8907 104.5H70.8907C70.8907 116.451 73.7082 127.226 79.3596 136.798L81.0819 135.782ZM72.8907 104.5C72.8907 92.8774 75.6266 82.5176 81.0792 73.393L79.3623 72.367C73.7082 81.8291 70.8907 92.5493 70.8907 104.5H72.8907ZM81.0773 73.396C86.6504 64.1448 94.2236 56.9607 103.812 51.8318L102.869 50.0682C92.9646 55.366 85.1245 62.8019 79.3642 72.364L81.0773 73.396ZM103.816 51.8298C113.517 46.5892 124.401 43.96 136.491 43.96V41.96C124.1 41.96 112.885 44.6575 102.865 50.0702L103.816 51.8298ZM136.491 43.96C146.685 43.96 155.839 45.752 163.969 49.3159L164.772 47.4841C156.356 43.7946 146.923 41.96 136.491 41.96V43.96ZM163.974 49.3179C172.221 52.8844 179.119 58.0045 184.683 64.6802L186.219 63.3998C180.449 56.4755 173.293 51.1689 164.768 47.4821L163.974 49.3179ZM184.772 63.3052L167.092 79.6252L168.449 81.0948L186.129 64.7748L184.772 63.3052ZM168.527 79.7054C160.297 70.201 150.052 65.42 137.851 65.42V67.42C149.45 67.42 159.151 71.9323 167.015 81.0146L168.527 79.7054ZM137.851 65.42C130.33 65.42 123.583 67.0994 117.636 70.4807L118.625 72.2193C124.239 69.0273 130.638 67.42 137.851 67.42V65.42ZM117.649 70.4734C111.706 73.7366 107.039 78.3462 103.661 84.2857L105.4 85.2743C108.596 79.6537 112.996 75.3101 118.612 72.2266L117.649 70.4734ZM103.654 84.2987C100.391 90.2429 98.7707 96.9852 98.7707 104.5H100.771C100.771 97.2815 102.324 90.8771 105.407 85.2613L103.654 84.2987ZM98.7707 104.5C98.7707 112.015 100.391 118.757 103.654 124.701L105.407 123.739C102.324 118.123 100.771 111.718 100.771 104.5H98.7707ZM103.661 124.714C107.037 130.651 111.7 135.314 117.636 138.689L118.625 136.951C113.002 133.753 108.598 129.349 105.4 123.726L103.661 124.714ZM117.649 138.697C123.594 141.96 130.336 143.58 137.851 143.58V141.58C130.632 141.58 124.228 140.027 118.612 136.943L117.649 138.697ZM137.851 143.58C150.056 143.58 160.303 138.739 168.531 129.12L167.011 127.82C159.145 137.015 149.445 141.58 137.851 141.58V143.58ZM167.092 129.205L184.772 145.525L186.129 144.055L168.449 127.735L167.092 129.205ZM184.677 144.156C179.114 150.943 172.218 156.117 163.974 159.682L164.768 161.518C173.297 157.829 180.454 152.463 186.224 145.424L184.677 144.156ZM163.974 159.682C155.728 163.248 146.515 165.04 136.321 165.04V167.04C146.753 167.04 156.241 165.205 164.768 161.518L163.974 159.682ZM225.698 158.05L225.223 158.93L225.227 158.932L225.698 158.05ZM202.408 136.12L201.547 136.628L201.551 136.635L201.554 136.641L202.408 136.12ZM202.408 73.05L201.552 72.534L201.55 72.537L202.408 73.05ZM225.698 50.95L225.227 50.0679L225.223 50.0702L225.698 50.95ZM315.798 73.05L314.942 73.566L314.944 73.5706L315.798 73.05ZM315.798 136.12L316.652 136.641L316.655 136.636L315.798 136.12ZM292.508 158.05L292.984 158.93L292.508 158.05ZM278.228 137.82L278.717 138.693L278.723 138.689L278.73 138.685L278.228 137.82ZM291.488 124.22L290.619 123.726L290.615 123.732L290.612 123.739L291.488 124.22ZM291.488 84.78L290.612 85.2613L290.615 85.2678L290.619 85.2743L291.488 84.78ZM278.228 71.35L277.727 72.215L277.733 72.2188L277.74 72.2225L278.228 71.35ZM240.148 71.35L240.637 72.2225L240.643 72.2188L240.65 72.215L240.148 71.35ZM226.718 84.78L225.849 84.2857L225.845 84.2922L225.842 84.2987L226.718 84.78ZM226.718 124.22L225.842 124.701L225.845 124.708L225.849 124.714L226.718 124.22ZM240.148 137.82L239.647 138.685L239.653 138.689L239.66 138.693L240.148 137.82ZM259.188 165.04C246.984 165.04 235.985 162.41 226.169 157.168L225.227 158.932C235.359 164.343 246.686 167.04 259.188 167.04V165.04ZM226.174 157.17C216.464 151.925 208.834 144.737 203.262 135.599L201.554 136.641C207.316 146.09 215.212 153.522 225.223 158.93L226.174 157.17ZM203.269 135.612C197.813 126.37 195.078 116.007 195.078 104.5H193.078C193.078 116.339 195.897 127.057 201.547 136.628L203.269 135.612ZM195.078 104.5C195.078 92.9927 197.813 82.6891 203.267 73.563L201.55 72.537C195.897 81.9975 193.078 92.6607 193.078 104.5H195.078ZM203.265 73.566C208.837 64.3158 216.467 57.0733 226.174 51.8298L225.223 50.0702C215.209 55.48 207.313 62.9709 201.552 72.534L203.265 73.566ZM226.169 51.8321C235.985 46.5898 246.984 43.96 259.188 43.96V41.96C246.686 41.96 235.359 44.6568 225.227 50.0679L226.169 51.8321ZM259.188 43.96C271.393 43.96 282.333 46.5899 292.033 51.8298L292.984 50.0702C282.963 44.6568 271.69 41.96 259.188 41.96V43.96ZM292.033 51.8298C301.739 57.0733 309.369 64.3158 314.942 73.566L316.655 72.534C310.894 62.9709 302.997 55.48 292.984 50.0702L292.033 51.8298ZM314.944 73.5706C320.509 82.6957 323.298 92.9965 323.298 104.5H325.298C325.298 92.6568 322.421 81.9909 316.652 72.5294L314.944 73.5706ZM323.298 104.5C323.298 116.003 320.509 126.363 314.942 135.604L316.655 136.636C322.421 127.064 325.298 116.343 325.298 104.5H323.298ZM314.944 135.599C309.373 144.737 301.742 151.925 292.033 157.17L292.984 158.93C302.994 153.522 310.89 146.09 316.652 136.641L314.944 135.599ZM292.033 157.17C282.333 162.41 271.393 165.04 259.188 165.04V167.04C271.69 167.04 282.963 164.343 292.984 158.93L292.033 157.17ZM259.188 143.58C266.372 143.58 272.889 141.956 278.717 138.693L277.74 136.947C272.234 140.03 266.058 141.58 259.188 141.58V143.58ZM278.73 138.685C284.555 135.306 289.104 130.64 292.365 124.701L290.612 123.739C287.525 129.36 283.235 133.76 277.727 136.955L278.73 138.685ZM292.358 124.714C295.739 118.768 297.418 112.021 297.418 104.5H295.418C295.418 111.713 293.811 118.112 290.619 123.726L292.358 124.714ZM297.418 104.5C297.418 96.9792 295.739 90.2322 292.358 84.2857L290.619 85.2743C293.811 90.8878 295.418 97.2875 295.418 104.5H297.418ZM292.365 84.2987C289.103 78.3572 284.55 73.7438 278.717 70.4775L277.74 72.2225C283.24 75.3029 287.527 79.6428 290.612 85.2613L292.365 84.2987ZM278.73 70.485C272.9 67.1035 266.378 65.42 259.188 65.42V67.42C266.052 67.42 272.223 69.0232 277.727 72.215L278.73 70.485ZM259.188 65.42C251.999 65.42 245.477 67.1035 239.647 70.485L240.65 72.215C246.153 69.0232 252.325 67.42 259.188 67.42V65.42ZM239.66 70.4775C233.83 73.7421 229.223 78.3513 225.849 84.2857L227.588 85.2743C230.786 79.6487 235.133 75.3046 240.637 72.2225L239.66 70.4775ZM225.842 84.2987C222.578 90.2429 220.958 96.9852 220.958 104.5H222.958C222.958 97.2815 224.512 90.8771 227.595 85.2613L225.842 84.2987ZM220.958 104.5C220.958 112.015 222.578 118.757 225.842 124.701L227.595 123.739C224.512 118.123 222.958 111.718 222.958 104.5H220.958ZM225.849 124.714C229.222 130.646 233.824 135.308 239.647 138.685L240.65 136.955C235.139 133.759 230.788 129.354 227.588 123.726L225.849 124.714ZM239.66 138.693C245.488 141.956 252.005 143.58 259.188 143.58V141.58C252.318 141.58 246.142 140.03 240.637 136.947L239.66 138.693ZM358.086 151.93L357.379 152.637L357.383 152.641L358.086 151.93ZM343.976 45V44H342.976V45H343.976ZM371.516 45H372.516V44H371.516V45ZM417.756 134.93L418.503 135.594L418.51 135.586L417.756 134.93ZM424.556 45V44H423.556V45H424.556ZM451.756 45H452.756V44H451.756V45ZM437.476 151.93L436.773 151.219L436.769 151.223L437.476 151.93ZM397.866 165.04C381.054 165.04 368.074 160.394 358.789 151.219L357.383 152.641C367.137 162.279 380.677 167.04 397.866 167.04V165.04ZM358.793 151.223C349.627 142.057 344.976 128.914 344.976 111.64H342.976C342.976 129.273 347.731 142.99 357.379 152.637L358.793 151.223ZM344.976 111.64V45H342.976V111.64H344.976ZM343.976 46H371.516V44H343.976V46ZM370.516 45V110.62H372.516V45H370.516ZM370.516 110.62C370.516 121.387 372.745 129.648 377.376 135.229C382.037 140.845 388.987 143.58 398.036 143.58V141.58C389.404 141.58 383.095 138.988 378.915 133.951C374.706 128.879 372.516 121.16 372.516 110.62H370.516ZM398.036 143.58C406.854 143.58 413.732 140.961 418.503 135.594L417.008 134.266C412.712 139.099 406.444 141.58 398.036 141.58V143.58ZM418.51 135.586C423.272 130.11 425.556 121.72 425.556 110.62H423.556C423.556 121.507 421.306 129.323 417.001 134.274L418.51 135.586ZM425.556 110.62V45H423.556V110.62H425.556ZM424.556 46H451.756V44H424.556V46ZM450.756 45V111.64H452.756V45H450.756ZM450.756 111.64C450.756 128.911 446.05 142.052 436.773 151.219L438.179 152.641C447.942 142.995 452.756 129.276 452.756 111.64H450.756ZM436.769 151.223C427.598 160.394 414.678 165.04 397.866 165.04V167.04C415.054 167.04 428.54 162.28 438.183 152.637L436.769 151.223ZM554.79 164L553.968 164.569L554.266 165H554.79V164ZM531.84 130.85L532.663 130.281L532.364 129.85H531.84V130.85ZM506.51 130.85V129.85H505.51V130.85H506.51ZM506.51 164V165H507.51V164H506.51ZM478.97 164H477.97V165H478.97V164ZM478.97 45V44H477.97V45H478.97ZM557.85 50.27L557.436 51.1799L557.441 51.1822L557.85 50.27ZM575.7 111.13L574.868 110.575L574.866 110.579L575.7 111.13ZM557.68 125.75L557.282 124.833L556.161 125.32L556.86 126.322L557.68 125.75ZM584.37 164V165H586.288L585.19 163.428L584.37 164ZM547.82 72.88L547.176 73.6449L547.182 73.6499L547.188 73.6549L547.82 72.88ZM506.51 67.44V66.44H505.51V67.44H506.51ZM506.51 108.92H505.51V109.92H506.51V108.92ZM547.82 103.48L548.464 104.245L547.82 103.48ZM555.613 163.431L532.663 130.281L531.018 131.419L553.968 164.569L555.613 163.431ZM531.84 129.85H530.48V131.85H531.84V129.85ZM530.48 129.85H506.51V131.85H530.48V129.85ZM505.51 130.85V164H507.51V130.85H505.51ZM506.51 163H478.97V165H506.51V163ZM479.97 164V45H477.97V164H479.97ZM478.97 46H530.48V44H478.97V46ZM530.48 46C540.911 46 549.887 47.7386 557.436 51.1799L558.265 49.3601C550.401 45.7747 541.129 44 530.48 44V46ZM557.441 51.1822C565.106 54.6259 570.955 59.4936 575.032 65.7745L576.709 64.6855C572.4 58.0464 566.235 52.9407 558.26 49.3578L557.441 51.1822ZM575.032 65.7745C579.105 72.0494 581.16 79.5039 581.16 88.18H583.16C583.16 79.176 581.023 71.3306 576.709 64.6855L575.032 65.7745ZM581.16 88.18C581.16 96.8508 579.051 104.302 574.868 110.575L576.532 111.685C580.963 105.038 583.16 97.1892 583.16 88.18H581.16ZM574.866 110.579C570.792 116.745 564.946 121.5 557.282 124.833L558.079 126.667C566.054 123.2 572.222 118.209 576.535 111.681L574.866 110.579ZM556.86 126.322L583.55 164.572L585.19 163.428L558.5 125.178L556.86 126.322ZM584.37 163H554.79V165H584.37V163ZM555.28 88.18C555.28 81.2604 553.04 75.8473 548.453 72.1051L547.188 73.6549C551.214 76.9394 553.28 81.7263 553.28 88.18H555.28ZM548.464 72.1151C543.91 68.2793 537.352 66.44 528.95 66.44V68.44C537.096 68.44 543.118 70.2273 547.176 73.6449L548.464 72.1151ZM528.95 66.44H506.51V68.44H528.95V66.44ZM505.51 67.44V108.92H507.51V67.44H505.51ZM506.51 109.92H528.95V107.92H506.51V109.92ZM528.95 109.92C537.352 109.92 543.91 108.081 548.464 104.245L547.176 102.715C543.118 106.133 537.096 107.92 528.95 107.92V109.92ZM548.464 104.245C553.036 100.396 555.28 94.9934 555.28 88.18H553.28C553.28 94.5132 551.218 99.3111 547.176 102.715L548.464 104.245ZM615.71 162.3L615.424 163.258L615.431 163.26L615.439 163.262L615.71 162.3ZM594.63 152.27L593.719 151.859L593.393 152.582L594.022 153.064L594.63 152.27ZM603.98 131.53L604.571 130.724L603.576 129.993L603.068 131.119L603.98 131.53ZM622.17 140.54L622.477 139.588L622.17 140.54ZM660.59 140.54L661.108 141.395L661.118 141.39L661.127 141.384L660.59 140.54ZM662.8 124.22L662.133 124.965L662.154 124.984L662.175 125.001L662.8 124.22ZM654.3 119.63L653.984 120.579L653.993 120.582L654.3 119.63ZM640.36 115.89L640.129 116.863L640.135 116.864L640.36 115.89ZM618.09 109.43L618.439 108.493L618.09 109.43ZM603.13 99.06L602.371 99.7108L602.38 99.721L603.13 99.06ZM602.62 61.32L603.45 61.8786L603.455 61.8708L602.62 61.32ZM619.45 47.89L619.053 46.9723L619.048 46.9745L619.45 47.89ZM669.43 45.68L669.673 44.7099L669.43 45.68ZM688.47 53.5L689.396 53.8766L689.713 53.0976L689 52.652L688.47 53.5ZM679.97 74.41L679.477 75.2799L680.468 75.8416L680.896 74.7866L679.97 74.41ZM629.82 68.8L629.265 67.9679L629.259 67.9719L629.254 67.976L629.82 68.8ZM630.67 87.84L630.233 88.7392L630.247 88.7463L630.262 88.7528L630.67 87.84ZM650.22 93.62L650.451 92.6471L650.443 92.6452L650.436 92.6435L650.22 93.62ZM672.49 100.08L672.839 99.1429L672.49 100.08ZM687.28 110.28L686.529 110.94L686.538 110.95L687.28 110.28ZM687.79 147.85L686.963 147.288L686.961 147.291L687.79 147.85ZM670.79 161.11L670.393 160.192L670.79 161.11ZM643.08 165.04C633.763 165.04 624.731 163.805 615.982 161.338L615.439 163.262C624.369 165.781 633.584 167.04 643.08 167.04V165.04ZM615.996 161.342C607.347 158.758 600.441 155.461 595.238 151.476L594.022 153.064C599.473 157.239 606.62 160.628 615.424 163.258L615.996 161.342ZM595.542 152.681L604.892 131.941L603.068 131.119L593.719 151.859L595.542 152.681ZM603.389 132.336C608.588 136.149 614.751 139.198 621.863 141.492L622.477 139.588C615.536 137.349 609.572 134.391 604.571 130.724L603.389 132.336ZM621.863 141.492C628.984 143.789 636.114 144.94 643.25 144.94V142.94C636.333 142.94 629.41 141.825 622.477 139.588L621.863 141.492ZM643.25 144.94C651.128 144.94 657.132 143.805 661.108 141.395L660.072 139.685C656.568 141.808 651.012 142.94 643.25 142.94V144.94ZM661.127 141.384C665.104 138.853 667.2 135.442 667.2 131.19H665.2C665.2 134.645 663.556 137.467 660.053 139.696L661.127 141.384ZM667.2 131.19C667.2 128.044 665.922 125.437 663.425 123.439L662.175 125.001C664.212 126.63 665.2 128.669 665.2 131.19H667.2ZM663.467 123.475C661.185 121.433 658.218 119.843 654.607 118.678L653.993 120.582C657.409 121.684 660.109 123.154 662.133 124.965L663.467 123.475ZM654.616 118.681C651.173 117.533 646.491 116.279 640.585 114.916L640.135 116.864C646.016 118.221 650.627 119.46 653.984 120.579L654.616 118.681ZM640.591 114.917C631.547 112.769 624.167 110.627 618.439 108.493L617.741 110.367C623.574 112.54 631.04 114.704 640.129 116.863L640.591 114.917ZM618.439 108.493C612.818 106.399 607.968 103.039 603.88 98.399L602.38 99.721C606.679 104.601 611.802 108.155 617.741 110.367L618.439 108.493ZM603.889 98.4092C600.002 93.8745 598.01 87.7798 598.01 80.02H596.01C596.01 88.1269 598.098 94.7255 602.371 99.7108L603.889 98.4092ZM598.01 80.02C598.01 73.2988 599.825 67.2612 603.45 61.8786L601.791 60.7614C597.936 66.4854 596.01 72.9145 596.01 80.02H598.01ZM603.455 61.8708C607.069 56.3949 612.512 52.0307 619.852 48.8055L619.048 46.9745C611.428 50.3227 605.651 54.9118 601.786 60.7692L603.455 61.8708ZM619.847 48.8077C627.282 45.5895 636.376 43.96 647.16 43.96V41.96C636.184 41.96 626.804 43.6171 619.053 46.9723L619.847 48.8077ZM647.16 43.96C654.673 43.96 662.015 44.8569 669.188 46.6501L669.673 44.7099C662.339 42.8764 654.834 41.96 647.16 41.96V43.96ZM669.188 46.6501C676.356 48.4422 682.602 51.0118 687.94 54.348L689 52.652C683.458 49.1882 677.011 46.5445 669.673 44.7099L669.188 46.6501ZM687.544 53.1234L679.044 74.0334L680.896 74.7866L689.396 53.8766L687.544 53.1234ZM680.463 73.5401C669.342 67.2344 658.181 64.06 646.99 64.06V66.06C657.786 66.06 668.611 69.1189 679.477 75.2799L680.463 73.5401ZM646.99 64.06C639.211 64.06 633.25 65.3118 629.265 67.9679L630.375 69.632C633.871 67.3016 639.356 66.06 646.99 66.06V64.06ZM629.254 67.976C625.381 70.6385 623.38 74.2213 623.38 78.66H625.38C625.38 74.9387 627.006 71.9481 630.387 69.624L629.254 67.976ZM623.38 78.66C623.38 80.8807 623.954 82.8672 625.128 84.5802C626.296 86.2856 628.02 87.6626 630.233 88.7392L631.108 86.9408C629.127 85.9774 627.706 84.8044 626.778 83.4498C625.855 82.1028 625.38 80.5193 625.38 78.66H623.38ZM630.262 88.7528C634.663 90.7218 641.259 92.6657 650.005 94.5965L650.436 92.6435C641.728 90.721 635.291 88.8116 631.078 86.9272L630.262 88.7528ZM649.989 94.5929C659.034 96.741 666.414 98.8834 672.141 101.017L672.839 99.1429C667.007 96.9699 659.54 94.8056 650.451 92.6471L649.989 94.5929ZM672.141 101.017C677.766 103.113 682.557 106.417 686.529 110.94L688.032 109.62C683.843 104.85 678.775 101.354 672.839 99.1429L672.141 101.017ZM686.538 110.95C690.524 115.368 692.57 121.396 692.57 129.15H694.57C694.57 121.038 692.422 114.486 688.023 109.61L686.538 110.95ZM692.57 129.15C692.57 135.748 690.705 141.785 686.963 147.288L688.617 148.412C692.582 142.581 694.57 136.152 694.57 129.15H692.57ZM686.961 147.291C683.35 152.652 677.852 156.964 670.393 160.192L671.187 162.028C678.915 158.683 684.75 154.154 688.62 148.409L686.961 147.291ZM670.393 160.192C662.958 163.41 653.864 165.04 643.08 165.04V167.04C654.056 167.04 663.436 165.383 671.187 162.028L670.393 160.192ZM804.528 141.9H805.528V140.9H804.528V141.9ZM804.528 164V165H805.528V164H804.528ZM712.388 164H711.388V165H712.388V164ZM712.388 45V44H711.388V45H712.388ZM802.318 45H803.318V44H802.318V45ZM802.318 67.1V68.1H803.318V67.1H802.318ZM739.758 67.1V66.1H738.758V67.1H739.758ZM739.758 92.94H738.758V93.94H739.758V92.94ZM795.008 92.94H796.008V91.94H795.008V92.94ZM795.008 114.36V115.36H796.008V114.36H795.008ZM739.758 114.36V113.36H738.758V114.36H739.758ZM739.758 141.9H738.758V142.9H739.758V141.9ZM803.528 141.9V164H805.528V141.9H803.528ZM804.528 163H712.388V165H804.528V163ZM713.388 164V45H711.388V164H713.388ZM712.388 46H802.318V44H712.388V46ZM801.318 45V67.1H803.318V45H801.318ZM802.318 66.1H739.758V68.1H802.318V66.1ZM738.758 67.1V92.94H740.758V67.1H738.758ZM739.758 93.94H795.008V91.94H739.758V93.94ZM794.008 92.94V114.36H796.008V92.94H794.008ZM795.008 113.36H739.758V115.36H795.008V113.36ZM738.758 114.36V141.9H740.758V114.36H738.758ZM739.758 142.9H804.528V140.9H739.758V142.9ZM838.171 162.3L837.885 163.258L837.892 163.26L837.9 163.262L838.171 162.3ZM817.091 152.27L816.179 151.859L815.854 152.582L816.483 153.064L817.091 152.27ZM826.441 131.53L827.032 130.724L826.037 129.993L825.529 131.119L826.441 131.53ZM844.631 140.54L844.938 139.588L844.631 140.54ZM883.051 140.54L883.569 141.395L883.579 141.39L883.588 141.384L883.051 140.54ZM885.261 124.22L884.594 124.965L884.615 124.984L884.636 125.001L885.261 124.22ZM876.761 119.63L876.445 120.579L876.454 120.582L876.761 119.63ZM862.821 115.89L862.59 116.863L862.596 116.864L862.821 115.89ZM840.551 109.43L840.9 108.493L840.551 109.43ZM825.591 99.06L824.832 99.7108L824.841 99.721L825.591 99.06ZM825.081 61.32L825.911 61.8786L825.916 61.8708L825.081 61.32ZM841.911 47.89L841.514 46.9723L841.509 46.9745L841.911 47.89ZM891.891 45.68L892.134 44.7099L891.891 45.68ZM910.931 53.5L911.857 53.8766L912.174 53.0976L911.461 52.652L910.931 53.5ZM902.431 74.41L901.938 75.2799L902.929 75.8416L903.357 74.7866L902.431 74.41ZM852.281 68.8L851.726 67.9679L851.72 67.9719L851.715 67.976L852.281 68.8ZM853.131 87.84L852.694 88.7392L852.708 88.7463L852.723 88.7528L853.131 87.84ZM872.681 93.62L872.912 92.6471L872.904 92.6452L872.897 92.6435L872.681 93.62ZM894.951 100.08L895.3 99.1429L894.951 100.08ZM909.741 110.28L908.99 110.94L908.999 110.95L909.741 110.28ZM910.251 147.85L909.424 147.288L909.422 147.291L910.251 147.85ZM893.251 161.11L892.854 160.192L893.251 161.11ZM865.541 165.04C856.224 165.04 847.192 163.805 838.443 161.338L837.9 163.262C846.83 165.781 856.045 167.04 865.541 167.04V165.04ZM838.457 161.342C829.808 158.758 822.902 155.461 817.699 151.476L816.483 153.064C821.934 157.239 829.081 160.628 837.885 163.258L838.457 161.342ZM818.003 152.681L827.353 131.941L825.529 131.119L816.179 151.859L818.003 152.681ZM825.85 132.336C831.049 136.149 837.212 139.198 844.324 141.492L844.938 139.588C837.997 137.349 832.033 134.391 827.032 130.724L825.85 132.336ZM844.324 141.492C851.445 143.789 858.575 144.94 865.711 144.94V142.94C858.794 142.94 851.871 141.825 844.938 139.588L844.324 141.492ZM865.711 144.94C873.589 144.94 879.593 143.805 883.569 141.395L882.533 139.685C879.029 141.808 873.473 142.94 865.711 142.94V144.94ZM883.588 141.384C887.565 138.853 889.661 135.442 889.661 131.19H887.661C887.661 134.645 886.017 137.467 882.514 139.696L883.588 141.384ZM889.661 131.19C889.661 128.044 888.383 125.437 885.886 123.439L884.636 125.001C886.673 126.63 887.661 128.669 887.661 131.19H889.661ZM885.928 123.475C883.646 121.433 880.679 119.843 877.068 118.678L876.454 120.582C879.87 121.684 882.57 123.154 884.594 124.965L885.928 123.475ZM877.077 118.681C873.634 117.533 868.952 116.279 863.046 114.916L862.596 116.864C868.477 118.221 873.088 119.46 876.445 120.579L877.077 118.681ZM863.052 114.917C854.008 112.769 846.627 110.627 840.9 108.493L840.202 110.367C846.035 112.54 853.501 114.704 862.59 116.863L863.052 114.917ZM840.9 108.493C835.279 106.399 830.429 103.039 826.341 98.399L824.841 99.721C829.14 104.601 834.263 108.155 840.202 110.367L840.9 108.493ZM826.35 98.4092C822.463 93.8745 820.471 87.7798 820.471 80.02H818.471C818.471 88.1269 820.559 94.7255 824.832 99.7108L826.35 98.4092ZM820.471 80.02C820.471 73.2988 822.285 67.2612 825.911 61.8786L824.252 60.7614C820.397 66.4854 818.471 72.9145 818.471 80.02H820.471ZM825.916 61.8708C829.53 56.3949 834.973 52.0307 842.313 48.8055L841.509 46.9745C833.889 50.3227 828.112 54.9118 824.246 60.7692L825.916 61.8708ZM842.308 48.8077C849.743 45.5895 858.837 43.96 869.621 43.96V41.96C858.645 41.96 849.265 43.6171 841.514 46.9723L842.308 48.8077ZM869.621 43.96C877.134 43.96 884.476 44.8569 891.648 46.6501L892.134 44.7099C884.8 42.8764 877.295 41.96 869.621 41.96V43.96ZM891.648 46.6501C898.817 48.4422 905.063 51.0118 910.401 54.348L911.461 52.652C905.919 49.1882 899.472 46.5445 892.134 44.7099L891.648 46.6501ZM910.005 53.1234L901.505 74.0334L903.357 74.7866L911.857 53.8766L910.005 53.1234ZM902.924 73.5401C891.803 67.2344 880.642 64.06 869.451 64.06V66.06C880.247 66.06 891.072 69.1189 901.938 75.2799L902.924 73.5401ZM869.451 64.06C861.672 64.06 855.711 65.3118 851.726 67.9679L852.836 69.632C856.331 67.3016 861.817 66.06 869.451 66.06V64.06ZM851.715 67.976C847.842 70.6385 845.841 74.2213 845.841 78.66H847.841C847.841 74.9387 849.467 71.9481 852.848 69.624L851.715 67.976ZM845.841 78.66C845.841 80.8807 846.415 82.8672 847.589 84.5802C848.757 86.2856 850.48 87.6626 852.694 88.7392L853.569 86.9408C851.588 85.9774 850.167 84.8044 849.238 83.4498C848.316 82.1028 847.841 80.5193 847.841 78.66H845.841ZM852.723 88.7528C857.124 90.7218 863.72 92.6657 872.465 94.5965L872.897 92.6435C864.189 90.721 857.752 88.8116 853.539 86.9272L852.723 88.7528ZM872.45 94.5929C881.495 96.741 888.875 98.8834 894.602 101.017L895.3 99.1429C889.467 96.9699 882.001 94.8056 872.912 92.6471L872.45 94.5929ZM894.602 101.017C900.227 103.113 905.018 106.417 908.99 110.94L910.492 109.62C906.304 104.85 901.236 101.354 895.3 99.1429L894.602 101.017ZM908.999 110.95C912.985 115.368 915.031 121.396 915.031 129.15H917.031C917.031 121.038 914.883 114.486 910.483 109.61L908.999 110.95ZM915.031 129.15C915.031 135.748 913.166 141.785 909.424 147.288L911.078 148.412C915.043 142.581 917.031 136.152 917.031 129.15H915.031ZM909.422 147.291C905.811 152.652 900.313 156.964 892.854 160.192L893.648 162.028C901.376 158.683 907.211 154.154 911.081 148.409L909.422 147.291ZM892.854 160.192C885.419 163.41 876.325 165.04 865.541 165.04V167.04C876.517 167.04 885.897 165.383 893.648 162.028L892.854 160.192Z" fill="#C4C4C4"/>
<path d="M332 177H563C569.627 177 575 182.373 575 189H344C337.373 189 332 183.627 332 177Z" fill="#D92F30"/>
<path d="M101.26 165.6C96.98 165.6 93.12 164.68 89.68 162.84C86.24 160.96 83.54 158.38 81.58 155.1C79.62 151.78 78.64 148.08 78.64 144C78.64 139.92 79.62 136.24 81.58 132.96C83.54 129.64 86.24 127.06 89.68 125.22C93.12 123.34 96.98 122.4 101.26 122.4C105.54 122.4 109.4 123.34 112.84 125.22C116.28 127.06 118.98 129.62 120.94 132.9C122.9 136.18 123.88 139.88 123.88 144C123.88 148.12 122.9 151.82 120.94 155.1C118.98 158.38 116.28 160.96 112.84 162.84C109.4 164.68 105.54 165.6 101.26 165.6ZM101.26 158.76C104.06 158.76 106.58 158.14 108.82 156.9C111.06 155.62 112.82 153.86 114.1 151.62C115.38 149.34 116.02 146.8 116.02 144C116.02 141.2 115.38 138.68 114.1 136.44C112.82 134.16 111.06 132.4 108.82 131.16C106.58 129.88 104.06 129.24 101.26 129.24C98.46 129.24 95.94 129.88 93.7 131.16C91.46 132.4 89.7 134.16 88.42 136.44C87.14 138.68 86.5 141.2 86.5 144C86.5 146.8 87.14 149.34 88.42 151.62C89.7 153.86 91.46 155.62 93.7 156.9C95.94 158.14 98.46 158.76 101.26 158.76ZM150.208 165.6C144.408 165.6 139.888 163.98 136.648 160.74C133.408 157.46 131.788 152.78 131.788 146.7V123H139.588V146.4C139.588 154.64 143.148 158.76 150.268 158.76C157.348 158.76 160.888 154.64 160.888 146.4V123H168.568V146.7C168.568 152.78 166.948 157.46 163.708 160.74C160.508 163.98 156.008 165.6 150.208 165.6ZM206.972 165L198.392 152.7C198.032 152.74 197.492 152.76 196.772 152.76H187.292V165H179.492V123H196.772C200.412 123 203.572 123.6 206.252 124.8C208.972 126 211.052 127.72 212.492 129.96C213.932 132.2 214.652 134.86 214.652 137.94C214.652 141.1 213.872 143.82 212.312 146.1C210.792 148.38 208.592 150.08 205.712 151.2L215.372 165H206.972ZM206.792 137.94C206.792 135.26 205.912 133.2 204.152 131.76C202.392 130.32 199.812 129.6 196.412 129.6H187.292V146.34H196.412C199.812 146.34 202.392 145.62 204.152 144.18C205.912 142.7 206.792 140.62 206.792 137.94ZM259.4 165.6C255.16 165.6 251.32 164.68 247.88 162.84C244.48 160.96 241.8 158.38 239.84 155.1C237.92 151.82 236.96 148.12 236.96 144C236.96 139.88 237.94 136.18 239.9 132.9C241.86 129.62 244.54 127.06 247.94 125.22C251.38 123.34 255.22 122.4 259.46 122.4C262.9 122.4 266.04 123 268.88 124.2C271.72 125.4 274.12 127.14 276.08 129.42L271.04 134.16C268 130.88 264.26 129.24 259.82 129.24C256.94 129.24 254.36 129.88 252.08 131.16C249.8 132.4 248.02 134.14 246.74 136.38C245.46 138.62 244.82 141.16 244.82 144C244.82 146.84 245.46 149.38 246.74 151.62C248.02 153.86 249.8 155.62 252.08 156.9C254.36 158.14 256.94 158.76 259.82 158.76C264.26 158.76 268 157.1 271.04 153.78L276.08 158.58C274.12 160.86 271.7 162.6 268.82 163.8C265.98 165 262.84 165.6 259.4 165.6ZM302.295 165.6C298.015 165.6 294.155 164.68 290.715 162.84C287.275 160.96 284.575 158.38 282.615 155.1C280.655 151.78 279.675 148.08 279.675 144C279.675 139.92 280.655 136.24 282.615 132.96C284.575 129.64 287.275 127.06 290.715 125.22C294.155 123.34 298.015 122.4 302.295 122.4C306.575 122.4 310.435 123.34 313.875 125.22C317.315 127.06 320.015 129.62 321.975 132.9C323.935 136.18 324.915 139.88 324.915 144C324.915 148.12 323.935 151.82 321.975 155.1C320.015 158.38 317.315 160.96 313.875 162.84C310.435 164.68 306.575 165.6 302.295 165.6ZM302.295 158.76C305.095 158.76 307.615 158.14 309.855 156.9C312.095 155.62 313.855 153.86 315.135 151.62C316.415 149.34 317.055 146.8 317.055 144C317.055 141.2 316.415 138.68 315.135 136.44C313.855 134.16 312.095 132.4 309.855 131.16C307.615 129.88 305.095 129.24 302.295 129.24C299.495 129.24 296.975 129.88 294.735 131.16C292.495 132.4 290.735 134.16 289.455 136.44C288.175 138.68 287.535 141.2 287.535 144C287.535 146.8 288.175 149.34 289.455 151.62C290.735 153.86 292.495 155.62 294.735 156.9C296.975 158.14 299.495 158.76 302.295 158.76ZM351.243 165.6C345.443 165.6 340.923 163.98 337.683 160.74C334.443 157.46 332.823 152.78 332.823 146.7V123H340.623V146.4C340.623 154.64 344.183 158.76 351.303 158.76C358.383 158.76 361.923 154.64 361.923 146.4V123H369.603V146.7C369.603 152.78 367.983 157.46 364.743 160.74C361.543 163.98 357.043 165.6 351.243 165.6ZM408.007 165L399.427 152.7C399.067 152.74 398.527 152.76 397.807 152.76H388.327V165H380.527V123H397.807C401.447 123 404.607 123.6 407.287 124.8C410.007 126 412.087 127.72 413.527 129.96C414.967 132.2 415.687 134.86 415.687 137.94C415.687 141.1 414.907 143.82 413.347 146.1C411.827 148.38 409.627 150.08 406.747 151.2L416.407 165H408.007ZM407.827 137.94C407.827 135.26 406.947 133.2 405.187 131.76C403.427 130.32 400.847 129.6 397.447 129.6H388.327V146.34H397.447C400.847 146.34 403.427 145.62 405.187 144.18C406.947 142.7 407.827 140.62 407.827 137.94ZM437.433 165.6C434.193 165.6 431.053 165.14 428.013 164.22C425.013 163.3 422.633 162.08 420.873 160.56L423.573 154.5C425.293 155.86 427.393 156.98 429.873 157.86C432.393 158.7 434.913 159.12 437.433 159.12C440.553 159.12 442.873 158.62 444.393 157.62C445.953 156.62 446.733 155.3 446.733 153.66C446.733 152.46 446.293 151.48 445.413 150.72C444.573 149.92 443.493 149.3 442.173 148.86C440.853 148.42 439.053 147.92 436.773 147.36C433.573 146.6 430.973 145.84 428.973 145.08C427.013 144.32 425.313 143.14 423.873 141.54C422.473 139.9 421.773 137.7 421.773 134.94C421.773 132.62 422.393 130.52 423.633 128.64C424.913 126.72 426.813 125.2 429.333 124.08C431.893 122.96 435.013 122.4 438.693 122.4C441.253 122.4 443.773 122.72 446.253 123.36C448.733 124 450.873 124.92 452.673 126.12L450.213 132.18C448.373 131.1 446.453 130.28 444.453 129.72C442.453 129.16 440.513 128.88 438.633 128.88C435.553 128.88 433.253 129.4 431.733 130.44C430.253 131.48 429.513 132.86 429.513 134.58C429.513 135.78 429.933 136.76 430.773 137.52C431.653 138.28 432.753 138.88 434.073 139.32C435.393 139.76 437.193 140.26 439.473 140.82C442.593 141.54 445.153 142.3 447.153 143.1C449.153 143.86 450.853 145.04 452.253 146.64C453.693 148.24 454.413 150.4 454.413 153.12C454.413 155.44 453.773 157.54 452.493 159.42C451.253 161.3 449.353 162.8 446.793 163.92C444.233 165.04 441.113 165.6 437.433 165.6ZM493.648 158.46V165H462.148V123H492.808V129.54H469.948V140.46H490.228V146.88H469.948V158.46H493.648ZM515.363 165.6C512.123 165.6 508.983 165.14 505.943 164.22C502.943 163.3 500.563 162.08 498.803 160.56L501.503 154.5C503.223 155.86 505.323 156.98 507.803 157.86C510.323 158.7 512.843 159.12 515.363 159.12C518.483 159.12 520.803 158.62 522.323 157.62C523.883 156.62 524.663 155.3 524.663 153.66C524.663 152.46 524.223 151.48 523.343 150.72C522.503 149.92 521.423 149.3 520.103 148.86C518.783 148.42 516.983 147.92 514.703 147.36C511.503 146.6 508.903 145.84 506.903 145.08C504.943 144.32 503.243 143.14 501.803 141.54C500.403 139.9 499.703 137.7 499.703 134.94C499.703 132.62 500.323 130.52 501.563 128.64C502.843 126.72 504.743 125.2 507.263 124.08C509.823 122.96 512.943 122.4 516.623 122.4C519.183 122.4 521.703 122.72 524.183 123.36C526.663 124 528.803 124.92 530.603 126.12L528.143 132.18C526.303 131.1 524.383 130.28 522.383 129.72C520.383 129.16 518.443 128.88 516.563 128.88C513.483 128.88 511.183 129.4 509.663 130.44C508.183 131.48 507.443 132.86 507.443 134.58C507.443 135.78 507.863 136.76 508.703 137.52C509.583 138.28 510.683 138.88 512.003 139.32C513.323 139.76 515.123 140.26 517.403 140.82C520.523 141.54 523.083 142.3 525.083 143.1C527.083 143.86 528.783 145.04 530.183 146.64C531.623 148.24 532.343 150.4 532.343 153.12C532.343 155.44 531.703 157.54 530.423 159.42C529.183 161.3 527.283 162.8 524.723 163.92C522.163 165.04 519.043 165.6 515.363 165.6Z" fill="black"/>
</svg>
