<?xml version="1.0" encoding="UTF-8" standalone="no"?>
<svg
   width="986"
   height="189"
   viewBox="0 0 986 189"
   fill="none"
   version="1.1"
   id="svg8"
   sodipodi:docname="our-courses.svg"
   inkscape:version="1.1 (c68e22c387, 2021-05-23)"
   xmlns:inkscape="http://www.inkscape.org/namespaces/inkscape"
   xmlns:sodipodi="http://sodipodi.sourceforge.net/DTD/sodipodi-0.dtd"
   xmlns="http://www.w3.org/2000/svg"
   xmlns:svg="http://www.w3.org/2000/svg">
  <defs
     id="defs12" />
  <sodipodi:namedview
     id="namedview10"
     pagecolor="#505050"
     bordercolor="#eeeeee"
     borderopacity="1"
     inkscape:pageshadow="0"
     inkscape:pageopacity="0"
     inkscape:pagecheckerboard="0"
     showgrid="false"
     inkscape:zoom="1.5805916"
     inkscape:cx="630.46013"
     inkscape:cy="94.584836"
     inkscape:window-width="1920"
     inkscape:window-height="1027"
     inkscape:window-x="-8"
     inkscape:window-y="22"
     inkscape:window-maximized="1"
     inkscape:current-layer="svg8" />
  <path
     d="m 37.032504,152.67626 -0.558959,1.02243 0.01397,0.007 z m -26.923543,-25.53744 -1.0027489,0.59157 0.00419,0.008 0.00443,0.007 z m 0,-73.840812 -0.9973922,-0.600881 -0.00221,0.0035 z m 26.923543,-25.537441 0.548479,1.026854 0.0047,-0.0023 z m 71.069316,-2.96947 -0.46813,1.066564 0.006,0.0023 z m 24.54762,18.212749 0.78953,0.855673 0.81282,-0.750752 -0.70801,-0.850433 z m -20.58833,19.004607 -0.88036,0.762281 0.78604,0.908774 0.88385,-0.815382 z m -57.80568,-10.492127 0.560123,1.020799 0.0082,-0.0042 0.007,-0.0043 z m -15.837173,15.639208 -1.013113,-0.575611 -0.0035,0.0076 -0.0047,0.0076 z m 0,45.927796 -1.021265,0.56012 0.0047,0.008 0.0035,0.007 z m 15.837173,15.83717 -0.576427,1.01195 0.0082,0.005 0.007,0.005 z m 57.80568,-10.88805 0.78953,-0.85591 -0.88851,-0.81981 -0.78604,0.91879 z m 20.58833,19.0046 0.90016,0.7383 0.69637,-0.84892 -0.807,-0.74528 z m -24.54762,18.41072 -0.46231,-1.06901 z m -32.664172,5.17037 c -13.949521,0 -26.561034,-2.99626 -37.861323,-8.97129 l -1.088806,2.05883 c 11.664777,6.16718 24.655917,9.24145 38.950129,9.24145 z M 37.590299,151.65383 C 26.416009,145.5472 17.593539,137.17679 11.10321,126.53212 l -1.9883806,1.2134 c 6.7072756,10.99985 15.8335626,19.6544 27.3587156,25.95317 z M 11.111827,126.54726 C 4.7591411,115.78613 1.573191,103.65322 1.573191,90.119429 h -2.32899598 c 0,13.916911 3.28097308,26.464381 9.86201708,37.610961 z M 1.573191,90.119429 c 0,-13.534489 3.1859501,-25.598455 9.535492,-36.224033 L 9.1093562,52.700621 C 2.5251681,63.719217 -0.75580498,76.202869 -0.75580498,90.119429 Z M 11.10647,53.898889 C 17.596334,43.125885 26.41531,34.760015 37.580983,28.787421 L 36.482861,26.733713 C 24.949207,32.90299 15.819427,41.562081 9.1115688,52.697127 Z M 37.585641,28.785092 C 48.882436,22.682424 61.556832,19.620726 75.635613,19.620726 V 17.29173 c -14.429295,0 -27.48914,3.141233 -39.15741,9.444312 z m 38.049972,-9.164366 c 11.870893,0 22.530707,2.08678 31.998077,6.236935 l 0.93509,-2.133128 C 98.768366,19.428118 87.783656,17.29173 75.635613,17.29173 Z m 32.003897,6.239264 c 9.60362,4.153182 17.63633,10.115528 24.1156,17.889367 l 1.78867,-1.491023 c -6.71916,-8.063333 -15.05231,-14.242858 -24.97966,-18.53613 z m 24.21924,16.288183 -20.58833,19.004607 1.58022,1.711346 20.58833,-19.004607 z m -18.91728,19.098 C 103.35765,50.178318 91.42737,44.610853 77.21933,44.610853 v 2.328996 c 13.507013,0 24.80381,5.254564 33.96142,15.830885 z M 77.21933,44.610853 c -8.758189,0 -16.615057,1.955658 -23.540327,5.893175 l 1.151689,2.024596 c 6.537492,-3.717077 13.989114,-5.588775 22.388638,-5.588775 z m -23.525188,5.884674 c -6.920612,3.79999 -12.355324,9.16786 -16.288998,16.084396 l 2.025062,1.151223 c 3.721735,-6.545178 8.845527,-11.603291 15.385347,-15.194021 z m -16.29715,16.099534 c -3.799757,6.922009 -5.686593,14.773404 -5.686593,23.524368 h 2.329346 c 0,-8.405923 1.808465,-15.863834 5.398612,-22.403422 z m -5.686593,23.524368 c 0,8.751203 1.886836,16.602251 5.686593,23.524021 l 2.041365,-1.12024 C 35.84821,105.98339 34.039745,98.524776 34.039745,90.119429 Z m 5.694745,23.539161 c 3.931345,6.91363 9.361399,12.34368 16.273859,16.27386 l 1.151689,-2.0239 C 48.28272,124.18449 43.15427,119.05604 39.430206,112.50807 Z m 16.288998,16.28318 c 6.92294,3.79975 14.773986,5.68624 23.525188,5.68624 v -2.329 c -8.406511,0 -15.863956,-1.80846 -22.403777,-5.39977 z m 23.525188,5.68624 c 14.212698,0 26.14531,-5.63733 35.7268,-16.83864 l -1.77004,-1.51385 c -9.15994,10.70756 -20.45557,16.02349 -33.95676,16.02349 z m 34.05109,-16.73966 20.58833,19.00461 1.58022,-1.71181 -20.58833,-19.00461 z m 20.4777,17.41041 c -6.4781,7.90345 -14.50848,13.92856 -24.10861,18.08 l 0.92461,2.13802 c 9.93201,-4.29584 18.26632,-10.54453 24.98548,-18.74143 z m -24.10861,18.08 c -9.602449,4.1526 -20.330969,6.23938 -32.201862,6.23938 v 2.32899 c 12.148044,0 23.196801,-2.13685 33.126472,-6.43035 z m 71.87748,-1.90046 -0.55313,1.02476 0.005,0.002 z m -27.12116,-25.53744 -1.00263,0.59156 0.005,0.008 0.003,0.007 z m 0,-73.444887 -0.99681,-0.600881 -0.002,0.0035 z m 27.12116,-25.735406 -0.54848,-1.027204 -0.005,0.0027 z m 104.92127,25.735406 -0.99681,0.600881 0.002,0.0054 z m 0,73.444887 0.99448,0.6067 0.003,-0.006 z m -27.12116,25.53744 0.5543,1.02476 z m -16.62903,-23.5578 0.56944,1.01661 0.007,-0.005 0.008,-0.005 z m 15.44125,-15.83717 -1.01195,-0.57526 -0.005,0.007 -0.003,0.008 z m 0,-45.927796 -1.0201,0.560473 0.003,0.0076 0.005,0.0076 z m -15.44125,-15.639208 -0.58341,1.007291 0.007,0.0044 0.008,0.0043 z m -44.34408,0 0.56944,1.016025 0.007,-0.0043 0.008,-0.0044 z m -15.63921,15.639208 -1.01195,-0.575611 -0.005,0.0076 -0.003,0.0076 z m 0,45.927796 -1.0201,0.56012 0.003,0.008 0.005,0.007 z m 15.63921,15.83717 -0.58342,1.00729 0.007,0.005 0.008,0.005 z m 22.17204,31.69764 c -14.21153,0 -27.01985,-3.06263 -38.45056,-9.16693 l -1.09696,2.05417 c 11.7987,6.3011 24.98897,9.44175 39.54752,9.44175 z m -38.44474,-9.1646 c -11.30727,-6.10779 -20.19239,-14.4782 -26.68098,-25.11939 l -1.98896,1.21341 c 6.70984,11.00334 15.90472,19.65789 27.56251,25.9555 z m -26.67282,-25.10425 c -6.3535,-10.76229 -9.53841,-22.82998 -9.53841,-36.229861 h -2.32899 c 0,13.786491 3.28272,26.267581 9.86213,37.412991 z m -9.53841,-36.229861 c 0,-13.400222 3.18491,-25.398744 9.53608,-36.026069 l -1.99945,-1.194775 c -6.5829,11.016734 -9.86562,23.434009 -9.86562,37.220844 z m 9.53375,-36.022575 c 6.48858,-10.77184 15.3737,-19.205716 26.67748,-25.311762 l -1.10743,-2.04905 c -11.66129,6.299701 -20.85616,15.022839 -27.56484,26.15905 z m 26.67166,-25.309083 c 11.43071,-6.104648 24.23903,-9.167045 38.45056,-9.167045 V 17.29173 c -14.55855,0 -27.74882,3.140418 -39.54752,9.441633 z m 38.45056,-9.167045 c 14.2127,0 26.95231,3.062513 38.24794,9.164366 l 1.10743,-2.04905 C 246.20197,20.432148 233.07458,17.29173 218.51603,17.29173 Z m 38.24794,9.164366 c 11.30261,6.106046 20.18773,14.539922 26.67748,25.311762 l 1.99479,-1.201762 C 278.72756,41.758881 269.53152,33.035743 257.8714,26.736042 Z m 26.67981,25.317118 c 6.48043,10.626161 9.72822,22.621422 9.72822,36.017219 h 2.32899 c 0,-13.791377 -3.35026,-26.211796 -10.06825,-37.229694 z m 9.72822,36.017219 c 0,13.395221 -3.24779,25.459421 -9.73055,36.220541 l 1.99479,1.20177 c 6.71449,-11.14658 10.06475,-23.63116 10.06475,-37.422311 z m -9.72822,36.214721 c -6.48742,10.64119 -15.3737,19.0116 -26.67981,25.11939 l 1.10743,2.04952 c 11.65663,-6.29761 20.85151,-14.95216 27.56134,-25.9555 z m -26.67981,25.11939 c -11.29563,6.10197 -24.03524,9.1646 -38.24794,9.1646 v 2.32899 c 14.55855,0 27.68594,-3.14065 39.35537,-9.44407 z m -38.24794,-15.82553 c 8.36575,0 15.95479,-1.89114 22.74148,-5.6909 l -1.13771,-2.03321 c -6.41173,3.59014 -13.60367,5.39511 -21.60377,5.39511 z m 22.75662,-5.70022 c 6.7832,-3.93484 12.0805,-9.36838 15.87793,-16.28434 l -2.04136,-1.12024 c -3.59481,6.54564 -8.59051,11.66943 -15.00456,15.39 z m 15.86978,-16.2692 c 3.93717,-6.9241 5.89236,-14.780972 5.89236,-23.539161 h -2.329 c 0,8.399524 -1.87135,15.851151 -5.58842,22.388641 z m 5.89236,-23.539161 c 0,-8.757951 -1.95519,-16.614819 -5.89236,-23.539506 l -2.02506,1.151223 c 3.71707,6.536909 5.58842,13.989347 5.58842,22.388283 z m -5.88421,-23.524368 c -3.79859,-6.918864 -9.10055,-12.29116 -15.89307,-16.094759 l -1.13771,2.032049 c 6.40474,3.587119 11.39694,8.640924 14.98942,15.183656 z M 241.27265,50.509035 c -6.78902,-3.93775 -14.38388,-5.898182 -22.75662,-5.898182 v 2.328996 c 7.99311,0 15.17923,1.866923 21.58863,5.583768 z m -22.75662,-5.898182 c -8.37158,0 -15.96643,1.960432 -22.75546,5.898182 l 1.168,2.014582 c 6.40823,-3.716845 13.59551,-5.583768 21.58746,-5.583768 z m -22.74032,5.889449 c -6.78902,3.80162 -12.15386,9.169024 -16.08288,16.079621 l 2.02506,1.151223 c 3.72407,-6.551 8.78614,-11.609696 15.19554,-15.198795 z m -16.09103,16.094759 c -3.80092,6.922009 -5.68741,14.773404 -5.68741,23.524368 h 2.329 c 0,-8.405923 1.80963,-15.863834 5.39977,-22.403422 z m -5.68741,23.524368 c 0,8.751203 1.88649,16.602251 5.68741,23.524021 l 2.04136,-1.12024 c -3.59014,-6.53982 -5.39977,-13.998434 -5.39977,-22.403781 z m 5.69556,23.539161 c 3.92785,6.9078 9.28687,12.33669 16.06774,16.2692 l 1.168,-2.01458 c -6.41755,-3.72173 -11.48428,-8.85135 -15.21068,-15.40514 z m 16.08288,16.27852 c 6.7867,3.79976 14.37573,5.6909 22.74032,5.6909 v -2.329 c -8.0001,0 -15.19204,-1.80497 -21.6026,-5.39511 z m 137.90684,15.41446 -0.8233,0.8233 0.005,0.005 z M 317.25149,20.831804 v -1.164498 h -1.1645 v 1.164498 z m 32.07027,0 h 1.1645 v -1.164498 h -1.1645 z m 53.84639,104.723296 0.86988,0.77323 0.008,-0.009 z m 7.91859,-104.723296 v -1.164498 h -1.1645 v 1.164498 z m 31.67434,0 h 1.1645 v -1.164498 h -1.1645 z m -16.62903,124.519766 -0.81864,-0.82796 -0.005,0.005 z m -46.12577,15.26657 c -19.57754,0 -34.69272,-5.41026 -45.50508,-16.09453 l -1.63729,1.65592 c 11.35851,11.22343 27.12582,16.7676 47.14237,16.7676 z M 334.50585,144.52827 C 323.83206,133.85448 318.41598,118.54948 318.41598,98.433945 h -2.32899 c 0,20.533595 5.53719,36.507015 16.77226,47.740925 z M 318.41598,98.433945 V 20.831804 h -2.32899 v 77.602141 z m -1.16449,-76.437643 h 32.07027 v -2.328996 h -32.07027 z m 30.90577,-1.164498 v 76.414353 h 2.329 V 20.831804 Z m 0,76.414353 c 0,12.538153 2.59567,22.158063 7.98846,28.657133 5.42772,6.53982 13.52099,9.72472 24.05853,9.72472 v -2.329 c -10.05195,0 -17.39877,-3.01837 -22.26637,-8.88395 -4.90137,-5.90633 -7.45162,-14.89509 -7.45162,-27.168903 z m 32.04699,38.381853 c 10.26854,0 18.27796,-3.04982 23.83378,-9.29968 l -1.74093,-1.54645 c -5.00268,5.62802 -12.30175,8.51713 -22.09285,8.51713 z m 23.84193,-9.309 c 5.54534,-6.37679 8.20505,-16.14693 8.20505,-29.072853 h -2.32899 c 0,12.677893 -2.62012,21.779603 -7.63329,27.545033 z m 8.20505,-29.072853 V 20.831804 h -2.32899 v 76.414353 z m -1.16449,-75.249855 h 31.67434 v -2.328996 h -31.67434 z m 30.50984,-1.164498 v 77.602141 h 2.329 V 20.831804 Z m 0,77.602141 c 0,20.112045 -5.48012,35.414715 -16.28317,46.089665 l 1.63728,1.65592 c 11.369,-11.23275 16.97489,-27.2085 16.97489,-47.745585 z m -16.28783,46.094325 c -10.67961,10.67961 -25.72493,16.08987 -45.30247,16.08987 v 2.32899 c 20.0154,0 35.71982,-5.54301 46.94907,-16.77226 z m 137.43522,14.87879 -0.95722,0.6626 0.34702,0.5019 h 0.6102 z m -26.72523,-38.60311 0.95838,-0.6626 -0.34818,-0.5019 h -0.6102 z m -29.49674,0 v -1.1645 h -1.16449 v 1.1645 z m 0,38.60311 v 1.1645 h 1.1645 v -1.1645 z m -32.07027,0 h -1.1645 v 1.1645 h 1.1645 z m 0,-138.575256 v -1.164498 h -1.1645 v 1.164498 z m 91.8556,6.136904 -0.4821,1.059577 0.006,0.0027 z m 20.78629,70.871343 -0.96886,-0.646297 -0.002,0.0047 z m -20.98425,17.024959 -0.46347,-1.06784 -1.30541,0.56711 0.81399,1.16682 z m 31.08045,44.54205 v 1.1645 h 2.23351 l -1.27862,-1.83059 z m -42.5624,-106.109052 -0.74994,0.890725 0.007,0.0058 0.007,0.0058 z M 506.522,46.963139 v -1.164498 h -1.16449 v 1.164498 z m 0,48.303371 h -1.16449 v 1.164498 h 1.16449 z m 48.10542,-6.334869 0.74993,0.890841 z m 9.07493,69.812819 -26.72523,-38.60311 -1.9156,1.3252 26.72523,38.60311 z m -27.68361,-39.10501 h -1.58372 v 2.329 h 1.58372 z m -1.58372,0 H 506.522 v 2.329 h 27.91302 z m -29.07751,1.1645 v 38.60311 h 2.32899 v -38.60311 z m 1.16449,37.43861 h -32.07027 v 2.329 H 506.522 Z m -30.90577,1.1645 V 20.831804 h -2.329 V 159.40706 Z m -1.1645,-137.410758 h 59.98329 v -2.328996 h -59.98329 z m 59.98329,0 c 12.14688,0 22.59941,2.024596 31.39021,6.031983 l 0.96537,-2.119153 c -9.15761,-4.175192 -19.95484,-6.241826 -32.35558,-6.241826 z m 31.39603,6.034661 c 8.92588,4.010182 15.73703,9.678609 20.48469,16.992705 l 1.95286,-1.268139 C 583.25078,36.024311 576.07165,30.078733 566.78478,25.906453 Z m 20.48469,16.992705 c 4.743,7.307108 7.13604,15.987858 7.13604,26.09116 h 2.329 c 0,-10.48514 -2.48854,-19.621093 -7.51218,-27.359299 z m 7.13604,26.09116 c 0,10.097129 -2.45593,18.77403 -7.32702,26.078926 l 1.93772,1.292593 c 5.15989,-7.740418 7.7183,-16.880324 7.7183,-27.371519 z m -7.32935,26.083584 c -4.74417,7.180298 -11.55182,12.717488 -20.47653,16.598758 l 0.9281,2.13569 c 9.28687,-4.03732 16.4695,-9.84933 21.49198,-17.451171 z m -20.96795,18.332688 31.08045,44.54205 1.90978,-1.33218 -31.08045,-44.54205 z m 32.03534,42.71146 h -34.44585 v 2.329 h 34.44585 z M 563.31457,71.114828 c 0,-8.057861 -2.60847,-14.361405 -7.95003,-18.719189 l -1.47309,1.804739 c 4.68827,3.824793 7.09413,9.399129 7.09413,16.91445 z m -7.93722,-18.707544 c -5.30312,-4.466782 -12.9399,-6.608643 -22.72401,-6.608643 v 2.328996 c 9.486,0 16.49861,2.081307 21.22414,6.061096 z M 532.65334,45.798641 H 506.522 v 2.328996 h 26.13134 z m -27.29583,1.164498 V 95.26651 h 2.32899 V 46.963139 Z m 1.16449,49.467869 h 26.13134 V 94.102012 H 506.522 Z m 26.13134,0 c 9.78411,0 17.42089,-2.141512 22.72401,-6.608526 L 553.87748,88.0408 c -4.72553,3.980254 -11.73814,6.061212 -21.22414,6.061212 z m 22.72401,-6.608526 c 5.32409,-4.482147 7.93722,-10.773464 7.93722,-18.707654 h -2.32899 c 0,7.374998 -2.4012,12.962143 -7.1081,16.925972 z m 78.30784,67.604928 -0.33305,1.11559 0.008,0.002 0.009,0.002 z m -24.54762,-11.67991 -1.06086,-0.47861 -0.37963,0.84193 0.73247,0.56129 z m 10.88805,-24.15169 0.68822,-0.93859 -1.15867,-0.85124 -0.59157,1.31122 z m 21.18222,10.49213 0.3575,-1.10861 z m 44.74002,0 0.60321,0.99564 0.0116,-0.006 0.0105,-0.007 z m 2.57354,-19.00461 -0.77672,0.86755 0.0245,0.0221 0.0245,0.0198 z m -9.89824,-5.34505 -0.36798,1.10511 0.0105,0.004 z m -16.2331,-4.35522 -0.269,1.13306 0.007,0.001 z m -25.93337,-7.522656 0.40641,-1.091134 z m -17.42089,-12.075838 -0.88385,0.757855 0.0105,0.01188 z m -0.59389,-43.948155 0.96653,0.650489 0.006,-0.0091 z m 19.5985,-15.639208 -0.46231,-1.06866 -0.006,0.0026 z m 58.20161,-2.57354 0.28297,-1.12968 z m 22.17204,9.106374 1.07833,0.43855 0.36914,-0.907144 -0.83029,-0.5189 z m -9.89823,24.349653 -0.5741,1.012997 1.15402,0.654098 0.4984,-1.228545 z m -58.39958,-6.532834 -0.64629,-0.968979 -0.007,0.0047 -0.006,0.0048 z m 0.98983,22.172042 -0.50889,1.047117 0.0163,0.0083 0.0175,0.0076 z m 22.76593,6.730799 0.269,-1.13294 -0.009,-0.0022 -0.008,-0.002 z m 25.93337,7.522657 0.40641,-1.091251 z m 17.22293,11.877873 -0.87454,0.768569 0.0105,0.01165 z m 0.59389,43.750193 -0.96304,-0.65445 -0.002,0.003 z m -19.79646,15.44124 -0.46231,-1.06901 z m -32.26824,4.57648 c -10.84963,0 -21.36738,-1.43816 -31.55557,-4.31097 l -0.63232,2.24049 c 10.39896,2.93337 21.12981,4.39947 32.18789,4.39947 z m -31.53927,-4.30632 c -10.07174,-3.00906 -18.11376,-6.84841 -24.17265,-11.48893 l -1.41603,1.84922 c 6.34768,4.86178 14.67035,8.80826 24.92259,11.87089 z m -23.81864,-10.08571 10.88806,-24.15169 -2.12405,-0.95722 -10.88689,24.15169 z m 9.13782,-23.69171 c 6.05422,4.44023 13.23102,7.99078 21.51293,10.66214 l 0.715,-2.21721 c -8.08278,-2.60731 -15.02784,-6.05189 -20.8515,-10.32211 z m 21.51293,10.66214 c 8.29239,2.67485 16.59526,4.01519 24.90512,4.01519 v -2.329 c -8.05483,0 -16.11665,-1.29841 -24.19012,-3.9034 z m 24.90512,4.01519 c 9.17392,0 16.16556,-1.32171 20.79561,-4.12815 l -1.20642,-1.99129 c -4.0804,2.47223 -10.55036,3.79044 -19.58919,3.79044 z m 20.81773,-4.14096 c 4.63121,-2.94734 7.072,-6.91944 7.072,-11.87089 h -2.329 c 0,4.02334 -1.91443,7.30955 -5.99367,9.90522 z m 7.072,-11.87089 c 0,-3.66351 -1.48823,-6.69936 -4.39598,-9.02602 l -1.45562,1.81894 c 2.37208,1.89697 3.5226,4.27138 3.5226,7.20708 z m -4.34707,-8.9841 c -2.65739,-2.37791 -6.11245,-4.22946 -10.31746,-5.5861 l -0.715,2.21721 c 3.97793,1.28327 7.12207,2.99508 9.47902,5.10399 z m -10.30698,-5.5826 c -4.00936,-1.33685 -9.46154,-2.79713 -16.33907,-4.38434 l -0.52402,2.26844 c 6.84841,1.58023 12.21791,3.02304 16.12713,4.32611 z M 662.65906,102.25 C 652.12734,99.748663 643.53335,97.254308 636.8631,94.76927 l -0.81282,2.182269 c 6.79252,2.530454 15.48666,5.050431 26.07078,7.564581 z M 636.8631,94.76927 c -6.54564,-2.438459 -12.19346,-6.351173 -16.95393,-11.754437 l -1.74674,1.539466 c 5.00617,5.682744 10.9719,9.82137 17.88785,12.39724 z M 619.91965,83.02671 c -4.5264,-5.280649 -6.84608,-12.377915 -6.84608,-21.414186 h -2.32899 c 0,9.440469 2.43147,17.124525 7.40737,22.929897 z m -6.84608,-21.414186 c 0,-7.826824 2.11357,-14.857597 6.33487,-21.125624 l -1.9319,-1.300977 c -4.48914,6.665586 -6.73196,14.15226 -6.73196,22.426601 z m 6.34069,-21.134707 c 4.2085,-6.376675 10.54686,-11.458777 19.09428,-15.214516 l -0.93626,-2.132196 c -8.87347,3.898972 -15.60078,9.24297 -20.10156,16.063901 z m 19.08845,-15.211954 c 8.65805,-3.747588 19.24799,-5.645137 31.80594,-5.645137 V 17.29173 c -12.78153,0 -23.70452,1.92969 -32.73055,5.836813 z m 31.80594,-5.645137 c 8.74887,0 17.29862,1.044438 25.65156,3.132616 l 0.56478,-2.259359 C 687.98456,18.358876 679.24501,17.29173 670.30865,17.29173 Z m 25.65156,3.132616 c 8.34712,2.086897 15.62058,5.079191 21.83667,8.964189 l 1.23436,-1.974988 c -6.45364,-4.033589 -13.96116,-7.112172 -22.50625,-9.24856 z m 21.37553,7.538145 -9.89824,24.349653 2.15665,0.8771 9.89824,-24.349653 z m -8.24582,23.775206 C 696.13954,46.723718 683.14258,43.027136 670.11068,43.027136 v 2.328996 c 12.57192,0 25.17761,3.562083 37.83105,10.736555 z M 670.11068,43.027136 c -9.05863,0 -16.0002,1.457718 -20.64072,4.550741 l 1.29259,1.937842 c 4.07108,-2.713747 10.45836,-4.159587 19.34813,-4.159587 z m -20.65353,4.560174 c -4.5101,3.100476 -6.84026,7.272639 -6.84026,12.441497 h 2.32899 c 0,-4.333447 1.89348,-7.815995 5.83064,-10.522404 z m -6.84026,12.441497 c 0,2.586 0.66842,4.899276 2.03554,6.894061 1.36013,1.985934 3.36773,3.589448 5.94476,4.843147 l 1.01894,-2.094233 c -2.30687,-1.121878 -3.96163,-2.487834 -5.04228,-4.065263 -1.07483,-1.568579 -1.62797,-3.412561 -1.62797,-5.577712 z m 8.01407,11.753045 c 5.12496,2.292897 12.80599,4.556564 22.99068,6.804977 l 0.5019,-2.274265 c -10.14045,-2.238747 -17.63632,-4.46224 -22.54235,-6.65662 z m 22.97205,6.800785 c 10.53289,2.501458 19.12688,4.996278 25.79596,7.480846 l 0.81282,-2.18238 c -6.79135,-2.530455 -15.48666,-5.050778 -26.07078,-7.564346 z m 25.79596,7.480846 c 6.5503,2.440787 12.12941,6.288289 16.7548,11.555313 l 1.75024,-1.537137 c -4.87808,-5.554656 -10.77976,-9.625741 -17.69222,-12.200556 z m 16.76528,11.566958 c 4.64169,5.144749 7.02425,12.164349 7.02425,21.193859 h 2.329 c 0,-9.4464 -2.50134,-17.07619 -7.62397,-22.754286 z m 7.02425,21.193859 c 0,7.68336 -2.17179,14.71344 -6.52934,21.12167 l 1.92608,1.3089 c 4.61724,-6.79019 6.93226,-14.27675 6.93226,-22.43057 z m -6.53167,21.12516 c -4.205,6.24288 -10.60741,11.26419 -19.2934,15.02319 l 0.92461,2.13802 c 8.99924,-3.89525 15.79409,-9.16926 20.30069,-15.8593 z m -19.2934,15.02319 c -8.65804,3.74736 -19.24799,5.64549 -31.80593,5.64549 v 2.32899 c 12.78153,0 23.70452,-1.92957 32.73054,-5.83646 z m 156.19994,-21.301 h 1.1645 v -1.16449 h -1.1645 z m 0,25.73541 v 1.1645 h 1.1645 v -1.1645 z m -107.29685,0 h -1.16449 v 1.1645 h 1.16449 z m 0,-138.575256 v -1.164498 h -1.16449 v 1.164498 z m 104.72331,0 h 1.1645 v -1.164498 h -1.1645 z m 0,25.735406 v 1.164498 h 1.1645 V 46.56721 Z m -72.851,0 v -1.164498 h -1.16449 v 1.164498 z m 0,30.090628 h -1.16449 v 1.164498 h 1.16449 z m 64.33852,0 h 1.1645 V 75.49334 h -1.1645 z m 0,24.943542 v 1.1645 h 1.1645 v -1.1645 z m -64.33852,0 v -1.1645 h -1.16449 v 1.1645 z m 0,32.07027 h -1.16449 v 1.1645 h 1.16449 z m 74.26004,0 v 25.73541 h 2.329 v -25.73541 z m 1.1645,24.57091 H 746.26652 v 2.329 h 107.29685 z m -106.13235,1.1645 V 20.831804 h -2.32899 V 159.40706 Z M 746.26652,21.996302 H 850.98983 V 19.667306 H 746.26652 Z M 849.82533,20.831804 V 46.56721 h 2.329 V 20.831804 Z m 1.1645,24.570908 h -72.851 v 2.328996 h 72.851 z m -74.01549,1.164498 v 30.090628 h 2.32899 V 46.56721 Z m 1.16449,31.255126 h 64.33852 V 75.49334 h -64.33852 z m 63.17402,-1.164498 v 24.943542 h 2.329 V 76.657838 Z m 1.1645,23.779042 h -64.33852 v 2.329 h 64.33852 z m -65.50301,1.1645 v 32.07027 h 2.32899 v -32.07027 z m 1.16449,33.23477 h 75.42454 v -2.32899 h -75.42454 z m 114.60175,22.59126 -0.33305,1.11559 0.008,0.002 0.009,0.002 z m -24.54762,-11.67991 -1.06202,-0.47861 -0.37847,0.84193 0.73247,0.56129 z m 10.88805,-24.15169 0.68822,-0.93859 -1.15867,-0.85124 -0.59157,1.31122 z m 21.18222,10.49213 0.3575,-1.10861 z m 44.74002,0 0.60321,0.99564 0.0116,-0.006 0.0105,-0.007 z m 2.57354,-19.00461 -0.77672,0.86755 0.0245,0.0221 0.0245,0.0198 z m -9.89824,-5.34505 -0.36798,1.10511 0.0105,0.004 z m -16.2331,-4.35522 -0.269,1.13306 0.007,0.001 z m -25.93337,-7.522656 0.40641,-1.091134 z m -17.42089,-12.075838 -0.88385,0.757855 0.0105,0.01188 z m -0.59389,-43.948155 0.96653,0.650489 0.006,-0.0091 z m 19.5985,-15.639208 -0.46231,-1.06866 -0.006,0.0026 z m 58.20161,-2.57354 0.28297,-1.12968 z m 22.17204,9.106374 1.07832,0.43855 0.36915,-0.907144 -0.83029,-0.5189 z m -9.89823,24.349653 -0.5741,1.012997 1.15402,0.654098 0.4984,-1.228545 z m -58.39958,-6.532834 -0.64629,-0.968979 -0.007,0.0047 -0.006,0.0048 z m 0.98983,22.172042 -0.50889,1.047117 0.0163,0.0083 0.0175,0.0076 z m 22.76593,6.730799 0.269,-1.13294 -0.009,-0.0022 -0.008,-0.002 z m 25.93337,7.522657 0.40641,-1.091251 z m 17.22293,11.877873 -0.87454,0.768569 0.0105,0.01165 z m 0.59389,43.750193 -0.96304,-0.65445 -0.002,0.003 z m -19.79646,15.44124 -0.46231,-1.06901 z m -32.26824,4.57648 c -10.84963,0 -21.36738,-1.43816 -31.55557,-4.31097 l -0.63232,2.24049 c 10.39896,2.93337 21.12981,4.39947 32.18789,4.39947 z m -31.53927,-4.30632 c -10.07174,-3.00906 -18.11376,-6.84841 -24.17265,-11.48893 l -1.41603,1.84922 c 6.34768,4.86178 14.67035,8.80826 24.92259,11.87089 z m -23.81864,-10.08571 10.88806,-24.15169 -2.12405,-0.95722 -10.88805,24.15169 z m 9.13782,-23.69171 c 6.05422,4.44023 13.23102,7.99078 21.51293,10.66214 l 0.715,-2.21721 c -8.08278,-2.60731 -15.02784,-6.05189 -20.8515,-10.32211 z m 21.51293,10.66214 c 8.29239,2.67485 16.59526,4.01519 24.90512,4.01519 v -2.329 c -8.05483,0 -16.11665,-1.29841 -24.19012,-3.9034 z m 24.90512,4.01519 c 9.17392,0 16.16556,-1.32171 20.79561,-4.12815 l -1.20642,-1.99129 c -4.08041,2.47223 -10.55036,3.79044 -19.58919,3.79044 z m 20.81773,-4.14096 c 4.63121,-2.94734 7.072,-6.91944 7.072,-11.87089 h -2.329 c 0,4.02334 -1.91443,7.30955 -5.99367,9.90522 z m 7.072,-11.87089 c 0,-3.66351 -1.48823,-6.69936 -4.39598,-9.02602 l -1.45563,1.81894 c 2.37209,1.89697 3.52261,4.27138 3.52261,7.20708 z m -4.34707,-8.9841 c -2.65739,-2.37791 -6.11245,-4.22946 -10.31746,-5.5861 l -0.715,2.21721 c 3.97793,1.28327 7.12207,2.99508 9.47902,5.10399 z m -10.30698,-5.5826 c -4.00936,-1.33685 -9.46154,-2.79713 -16.33907,-4.38434 l -0.52402,2.26844 c 6.84841,1.58023 12.21791,3.02304 16.12713,4.32611 z M 921.71445,102.25 c -10.53172,-2.501337 -19.12688,-4.995692 -25.79596,-7.48073 l -0.81282,2.182269 c 6.79252,2.530454 15.48666,5.050431 26.07078,7.564581 z m -25.79596,-7.48073 c -6.54564,-2.438459 -12.19346,-6.351173 -16.95393,-11.754437 l -1.74674,1.539466 c 5.00617,5.682744 10.9719,9.82137 17.88785,12.39724 z M 878.97504,83.02671 c -4.5264,-5.280649 -6.84608,-12.377915 -6.84608,-21.414186 h -2.329 c 0,9.440469 2.43148,17.124525 7.40738,22.929897 z m -6.84608,-21.414186 c 0,-7.826824 2.1124,-14.857597 6.33487,-21.125624 l -1.9319,-1.300977 c -4.48914,6.665586 -6.73197,14.15226 -6.73197,22.426601 z m 6.34069,-21.134707 c 4.2085,-6.376675 10.54686,-11.458777 19.09428,-15.214516 l -0.93626,-2.132196 c -8.87348,3.898972 -15.60078,9.24297 -20.10273,16.063901 z M 897.5581,25.265863 c 8.65805,-3.747588 19.24799,-5.645137 31.80594,-5.645137 V 17.29173 c -12.78153,0 -23.70452,1.92969 -32.73055,5.836813 z m 31.80594,-5.645137 c 8.74887,0 17.29862,1.044438 25.65039,3.132616 l 0.56595,-2.259359 C 947.03995,18.358876 938.30039,17.29173 929.36404,17.29173 Z m 25.65039,3.132616 c 8.34829,2.086897 15.62175,5.079191 21.83784,8.964189 l 1.23436,-1.974988 c -6.45364,-4.033589 -13.96116,-7.112172 -22.50625,-9.24856 z m 21.37669,7.538145 -9.89823,24.349653 2.15665,0.8771 9.89823,-24.349653 z m -8.24581,23.775206 C 955.19493,46.723718 942.19797,43.027136 929.16607,43.027136 v 2.328996 c 12.57192,0 25.17761,3.562083 37.83105,10.736555 z M 929.16607,43.027136 c -9.05863,0 -16.0002,1.457718 -20.64072,4.550741 l 1.29259,1.937842 c 4.06992,-2.713747 10.45835,-4.159587 19.34813,-4.159587 z m -20.65353,4.560174 c -4.5101,3.100476 -6.84027,7.272639 -6.84027,12.441497 h 2.329 c 0,-4.333447 1.89347,-7.815995 5.83064,-10.522404 z m -6.84027,12.441497 c 0,2.586 0.66843,4.899276 2.03555,6.894061 1.36013,1.985934 3.36656,3.589448 5.94476,4.843147 l 1.01894,-2.094233 c -2.30688,-1.121878 -3.96163,-2.487834 -5.04345,-4.065263 -1.07366,-1.568579 -1.6268,-3.412561 -1.6268,-5.577712 z m 8.01408,11.753045 c 5.12496,2.292897 12.80598,4.556564 22.98952,6.804977 l 0.50306,-2.274265 c -10.14045,-2.238747 -17.63632,-4.46224 -22.54235,-6.65662 z m 22.97205,6.800785 c 10.53289,2.501458 19.12688,4.996278 25.79596,7.480846 l 0.81282,-2.18238 c -6.79252,-2.530455 -15.48666,-5.050778 -26.07078,-7.564346 z m 25.79596,7.480846 c 6.5503,2.440787 12.12941,6.288289 16.7548,11.555313 l 1.74908,-1.537137 c -4.87692,-5.554656 -10.7786,-9.625741 -17.69106,-12.200556 z m 16.76528,11.566958 c 4.64169,5.144749 7.02425,12.164349 7.02425,21.193859 h 2.329 c 0,-9.4464 -2.50134,-17.07619 -7.62514,-22.754286 z m 7.02425,21.193859 c 0,7.68336 -2.17179,14.71344 -6.52934,21.12167 l 1.92608,1.3089 c 4.61724,-6.79019 6.93226,-14.27675 6.93226,-22.43057 z m -6.53167,21.12516 c -4.205,6.24288 -10.60741,11.26419 -19.2934,15.02319 l 0.92461,2.13802 c 8.99924,-3.89525 15.79409,-9.16926 20.30069,-15.8593 z m -19.2934,15.02319 c -8.65804,3.74736 -19.24799,5.64549 -31.80593,5.64549 v 2.32899 c 12.78153,0 23.70452,-1.92957 32.73054,-5.83646 z"
     fill="#c4c4c4"
     id="path2"
     style="stroke-width:1.1645" />
  <path
     d="M 303.30546,174.54553 H 572.3045 c 7.71712,0 13.97397,6.25685 13.97397,13.97398 H 317.27943 c -7.71712,0 -13.97397,-6.25685 -13.97397,-13.97398 z"
     fill="#d92f30"
     id="path4"
     style="stroke-width:1.1645" />
  <path
     d="m 34.609184,161.27026 c -4.984051,0 -9.479014,-1.07134 -13.484887,-3.21402 -4.005873,-2.18925 -7.150017,-5.19366 -9.432434,-9.01321 -2.2824156,-3.86614 -3.4236237,-8.17478 -3.4236237,-12.92593 0,-4.75115 1.1412081,-9.0365 3.4236237,-12.85606 2.282417,-3.86613 5.426561,-6.87054 9.432434,-9.01321 4.005873,-2.18926 8.500836,-3.28389 13.484887,-3.28389 4.984052,0 9.479014,1.09463 13.484887,3.28389 4.005873,2.14267 7.150018,5.12379 9.432434,8.94334 2.282416,3.81956 3.423624,8.1282 3.423624,12.92593 0,4.79773 -1.141208,9.10637 -3.423624,12.92593 -2.282416,3.81955 -5.426561,6.82396 -9.432434,9.01321 -4.005873,2.14268 -8.500835,3.21402 -13.484887,3.21402 z m 0,-7.96517 c 3.260594,0 6.195129,-0.72199 8.803605,-2.16597 2.608475,-1.49055 4.657992,-3.54007 6.148549,-6.14855 1.490558,-2.65505 2.235837,-5.61288 2.235837,-8.87347 0,-3.26059 -0.745279,-6.19513 -2.235837,-8.8036 -1.490557,-2.65506 -3.540074,-4.70458 -6.148549,-6.14855 -2.608476,-1.49056 -5.543011,-2.23584 -8.803605,-2.23584 -3.260594,0 -6.195129,0.74528 -8.803605,2.23584 -2.608475,1.44397 -4.657992,3.49349 -6.148549,6.14855 -1.490558,2.60847 -2.235836,5.54301 -2.235836,8.8036 0,3.26059 0.745278,6.21842 2.235836,8.87347 1.490557,2.60848 3.540074,4.658 6.148549,6.14855 2.608476,1.44398 5.543011,2.16597 8.803605,2.16597 z m 56.999848,7.96517 c -6.754088,0 -12.017619,-1.88649 -15.790593,-5.65946 -3.772973,-3.81956 -5.65946,-9.26941 -5.65946,-16.34956 v -27.5986 h 9.083084 v 27.24926 c 0,9.59546 4.145613,14.39319 12.436839,14.39319 8.244646,0 12.366968,-4.79773 12.366968,-14.39319 v -27.24926 h 8.94335 v 27.5986 c 0,7.08015 -1.88649,12.53 -5.65946,16.34956 -3.7264,3.77297 -8.966639,5.65946 -15.720728,5.65946 z m 66.101568,-0.6987 -9.99139,-14.32333 c -0.41922,0.0466 -1.04805,0.0699 -1.88649,0.0699 h -11.03944 v 14.25346 h -9.08308 v -48.90892 h 20.12252 c 4.23878,0 7.91859,0.6987 11.03944,2.0961 3.16744,1.3974 5.58959,3.40033 7.26647,6.00881 1.67688,2.60847 2.51532,5.70604 2.51532,9.29269 0,3.67982 -0.90831,6.84725 -2.72493,9.50231 -1.77004,2.65505 -4.33193,4.6347 -7.68569,5.93894 l 11.24906,16.07007 z m -0.20961,-31.51132 c 0,-3.12085 -1.02476,-5.51972 -3.07427,-7.1966 -2.04952,-1.67687 -5.05392,-2.51531 -9.01322,-2.51531 h -10.62022 v 19.4937 h 10.62022 c 3.9593,0 6.9637,-0.83844 9.01322,-2.51532 2.04951,-1.72346 3.07427,-4.14561 3.07427,-7.26647 z m 61.26191,32.21002 c -4.93747,0 -9.40914,-1.07134 -13.41501,-3.21402 -3.9593,-2.18925 -7.08015,-5.19366 -9.36257,-9.01321 -2.23583,-3.81956 -3.35375,-8.1282 -3.35375,-12.92593 0,-4.79773 1.14121,-9.10637 3.42362,-12.92593 2.28242,-3.81955 5.40327,-6.80067 9.36257,-8.94334 4.00587,-2.18926 8.47754,-3.28389 13.41501,-3.28389 4.00588,0 7.6624,0.6987 10.96957,2.0961 3.30718,1.3974 6.10197,3.42362 8.38439,6.07868 l -5.86907,5.51972 c -3.54007,-3.81955 -7.8953,-5.72933 -13.06567,-5.72933 -3.35375,0 -6.35816,0.74528 -9.01321,2.23584 -2.65506,1.44397 -4.72786,3.4702 -6.21842,6.07868 -1.49056,2.60847 -2.23584,5.5663 -2.23584,8.87347 0,3.30717 0.74528,6.265 2.23584,8.87347 1.49056,2.60848 3.56336,4.658 6.21842,6.14855 2.65505,1.44398 5.65946,2.16597 9.01321,2.16597 5.17037,0 9.5256,-1.93307 13.06567,-5.7992 l 5.86907,5.58959 c -2.28242,2.65506 -5.1005,4.68128 -8.45426,6.07868 -3.30717,1.3974 -6.96369,2.0961 -10.96957,2.0961 z m 49.95115,0 c -4.98406,0 -9.47902,-1.07134 -13.48489,-3.21402 -4.00587,-2.18925 -7.15002,-5.19366 -9.43244,-9.01321 -2.28241,-3.86614 -3.42362,-8.17478 -3.42362,-12.92593 0,-4.75115 1.14121,-9.0365 3.42362,-12.85606 2.28242,-3.86613 5.42657,-6.87054 9.43244,-9.01321 4.00587,-2.18926 8.50083,-3.28389 13.48489,-3.28389 4.98405,0 9.47901,1.09463 13.48488,3.28389 4.00588,2.14267 7.15002,5.12379 9.43244,8.94334 2.28241,3.81956 3.42362,8.1282 3.42362,12.92593 0,4.79773 -1.14121,9.10637 -3.42362,12.92593 -2.28242,3.81955 -5.42656,6.82396 -9.43244,9.01321 -4.00587,2.14268 -8.50083,3.21402 -13.48488,3.21402 z m 0,-7.96517 c 3.26059,0 6.19512,-0.72199 8.8036,-2.16597 2.60848,-1.49055 4.65799,-3.54007 6.14855,-6.14855 1.49056,-2.65505 2.23584,-5.61288 2.23584,-8.87347 0,-3.26059 -0.74528,-6.19513 -2.23584,-8.8036 -1.49056,-2.65506 -3.54007,-4.70458 -6.14855,-6.14855 -2.60848,-1.49056 -5.54301,-2.23584 -8.8036,-2.23584 -3.2606,0 -6.19513,0.74528 -8.80361,2.23584 -2.60848,1.44397 -4.65799,3.49349 -6.14855,6.14855 -1.49056,2.60847 -2.23584,5.54301 -2.23584,8.8036 0,3.26059 0.74528,6.21842 2.23584,8.87347 1.49056,2.60848 3.54007,4.658 6.14855,6.14855 2.60848,1.44398 5.54301,2.16597 8.80361,2.16597 z m 56.99984,7.96517 c -6.75409,0 -12.01762,-1.88649 -15.79059,-5.65946 -3.77297,-3.81956 -5.65946,-9.26941 -5.65946,-16.34956 v -27.5986 h 9.08308 v 27.24926 c 0,9.59546 4.14562,14.39319 12.43684,14.39319 8.24465,0 12.36697,-4.79773 12.36697,-14.39319 v -27.24926 h 8.94335 v 27.5986 c 0,7.08015 -1.88649,12.53 -5.65946,16.34956 -3.7264,3.77297 -8.96664,5.65946 -15.72073,5.65946 z m 66.10157,-0.6987 -9.9914,-14.32333 c -0.41921,0.0466 -1.04804,0.0699 -1.88648,0.0699 h -11.03944 v 14.25346 h -9.08309 v -48.90892 h 20.12253 c 4.23877,0 7.91858,0.6987 11.03944,2.0961 3.16743,1.3974 5.58959,3.40033 7.26647,6.00881 1.67687,2.60847 2.51531,5.70604 2.51531,9.29269 0,3.67982 -0.90831,6.84725 -2.72492,9.50231 -1.77004,2.65505 -4.33194,4.6347 -7.68569,5.93894 l 11.24905,16.07007 z m -0.20961,-31.51132 c 0,-3.12085 -1.02476,-5.51972 -3.07428,-7.1966 -2.04951,-1.67687 -5.05392,-2.51531 -9.01321,-2.51531 h -10.62022 v 19.4937 h 10.62022 c 3.95929,0 6.9637,-0.83844 9.01321,-2.51532 2.04952,-1.72346 3.07428,-4.14561 3.07428,-7.26647 z m 34.47613,32.21002 c -3.77298,0 -7.4295,-0.53567 -10.96958,-1.60701 -3.49349,-1.07134 -6.26499,-2.49203 -8.31451,-4.26206 l 3.14414,-7.05686 c 2.00294,1.58372 4.44839,2.88795 7.33634,3.91271 2.93454,0.97818 5.86907,1.46727 8.80361,1.46727 3.63323,0 6.33487,-0.58225 8.1049,-1.74675 1.81662,-1.1645 2.72493,-2.70163 2.72493,-4.61141 0,-1.3974 -0.51238,-2.5386 -1.53714,-3.42362 -0.97818,-0.9316 -2.23584,-1.65359 -3.77297,-2.16597 -1.53714,-0.51238 -3.63324,-1.09463 -6.28829,-1.74675 -3.7264,-0.88502 -6.75409,-1.77003 -9.08309,-2.65505 -2.28241,-0.88502 -4.26206,-2.25913 -5.93894,-4.12233 -1.63029,-1.90977 -2.44544,-4.47167 -2.44544,-7.68568 0,-2.70164 0.72199,-5.14708 2.16596,-7.33634 1.49056,-2.23584 3.70311,-4.00587 6.63764,-5.31011 2.98112,-1.30424 6.61435,-1.95636 10.8997,-1.95636 2.98112,0 5.91565,0.37264 8.80361,1.11792 2.88795,0.74528 5.37998,1.81662 7.47608,3.21402 l -2.86467,7.05685 c -2.14268,-1.25765 -4.37851,-2.21254 -6.70751,-2.86466 -2.32899,-0.65212 -4.58812,-0.97818 -6.77738,-0.97818 -3.58665,0 -6.265,0.60554 -8.03503,1.81662 -1.72346,1.21108 -2.58519,2.81808 -2.58519,4.82102 0,1.3974 0.48909,2.5386 1.46727,3.42362 1.02476,0.88502 2.30571,1.58372 3.84284,2.0961 1.53714,0.51238 3.63324,1.09463 6.28829,1.74675 3.63324,0.83843 6.61435,1.72345 8.94335,2.65505 2.32899,0.88502 4.30864,2.25913 5.93894,4.12232 1.67687,1.8632 2.51531,4.37852 2.51531,7.54595 0,2.70164 -0.74528,5.14708 -2.23583,7.33634 -1.44398,2.18926 -3.65653,3.936 -6.63764,5.24024 -2.98112,1.30424 -6.61435,1.95636 -10.8997,1.95636 z m 65.46225,-8.31452 v 7.61582 h -36.68169 v -48.90892 h 35.70351 v 7.61582 h -26.62042 v 12.71632 h 23.61602 v 7.47607 h -23.61602 v 13.48489 z m 25.28708,8.31452 c -3.77298,0 -7.4295,-0.53567 -10.96958,-1.60701 -3.49349,-1.07134 -6.265,-2.49203 -8.31451,-4.26206 l 3.14414,-7.05686 c 2.00294,1.58372 4.44839,2.88795 7.33634,3.91271 2.93454,0.97818 5.86907,1.46727 8.80361,1.46727 3.63323,0 6.33486,-0.58225 8.1049,-1.74675 1.81662,-1.1645 2.72493,-2.70163 2.72493,-4.61141 0,-1.3974 -0.51238,-2.5386 -1.53714,-3.42362 -0.97818,-0.9316 -2.23584,-1.65359 -3.77297,-2.16597 -1.53714,-0.51238 -3.63324,-1.09463 -6.28829,-1.74675 -3.7264,-0.88502 -6.75409,-1.77003 -9.08309,-2.65505 -2.28241,-0.88502 -4.26206,-2.25913 -5.93894,-4.12233 -1.6303,-1.90977 -2.44544,-4.47167 -2.44544,-7.68568 0,-2.70164 0.72199,-5.14708 2.16596,-7.33634 1.49056,-2.23584 3.70311,-4.00587 6.63764,-5.31011 2.98112,-1.30424 6.61435,-1.95636 10.8997,-1.95636 2.98112,0 5.91565,0.37264 8.80361,1.11792 2.88795,0.74528 5.37998,1.81662 7.47607,3.21402 l -2.86466,7.05685 c -2.14268,-1.25765 -4.37851,-2.21254 -6.70751,-2.86466 -2.329,-0.65212 -4.58812,-0.97818 -6.77738,-0.97818 -3.58665,0 -6.265,0.60554 -8.03503,1.81662 -1.72346,1.21108 -2.58519,2.81808 -2.58519,4.82102 0,1.3974 0.48909,2.5386 1.46727,3.42362 1.02476,0.88502 2.3057,1.58372 3.84284,2.0961 1.53714,0.51238 3.63324,1.09463 6.28829,1.74675 3.63323,0.83843 6.61435,1.72345 8.94335,2.65505 2.32899,0.88502 4.30864,2.25913 5.93894,4.12232 1.67687,1.8632 2.51531,4.37852 2.51531,7.54595 0,2.70164 -0.74528,5.14708 -2.23584,7.33634 -1.44397,2.18926 -3.65652,3.936 -6.63763,5.24024 -2.98112,1.30424 -6.61435,1.95636 -10.8997,1.95636 z"
     fill="#000000"
     id="path6"
     style="stroke-width:1.1645" />
</svg>
