<svg width="1280" height="207" viewBox="0 0 1280 207" fill="none" xmlns="http://www.w3.org/2000/svg">
<path d="M102.905 76.79L102.165 77.4627L102.165 77.4627L102.905 76.79ZM52.7552 76.79L53.4951 77.4627L53.4951 77.4627L52.7552 76.79ZM52.7552 131.02L52.0152 131.693L52.0204 131.698L52.7552 131.02ZM102.905 131.02L103.64 131.698L103.645 131.693L102.905 131.02ZM122.115 147.68L122.812 148.397L122.816 148.394L122.115 147.68ZM33.3752 147.68L32.6748 148.394L32.6783 148.397L33.3752 147.68ZM33.3752 60.13L34.0721 60.8472L34.0755 60.8438L33.3752 60.13ZM122.115 60.13L121.415 60.8438L121.418 60.8472L122.115 60.13ZM114.105 103.99C114.105 93.1026 110.622 83.792 103.645 76.1173L102.165 77.4627C108.788 84.748 112.105 93.5707 112.105 103.99H114.105ZM103.645 76.1173C96.6585 68.4321 88.0046 64.57 77.7452 64.57V66.57C87.4324 66.57 95.5518 70.1879 102.165 77.4627L103.645 76.1173ZM77.7452 64.57C67.5954 64.57 58.9993 68.4348 52.0152 76.1173L53.4951 77.4627C60.111 70.1852 68.1749 66.57 77.7452 66.57V64.57ZM52.0152 76.1173C45.0383 83.792 41.5552 93.1026 41.5552 103.99H43.5552C43.5552 93.5707 46.8721 84.748 53.4951 77.4627L52.0152 76.1173ZM41.5552 103.99C41.5552 114.767 45.0402 124.02 52.0152 131.693L53.4951 130.347C46.8701 123.06 43.5552 114.293 43.5552 103.99H41.5552ZM52.0204 131.698C59.0061 139.266 67.6008 143.07 77.7452 143.07V141.07C68.1695 141.07 60.1043 137.507 53.49 130.342L52.0204 131.698ZM77.7452 143.07C87.9992 143.07 96.6518 139.269 103.64 131.698L102.17 130.342C95.5585 137.505 87.4377 141.07 77.7452 141.07V143.07ZM103.645 131.693C110.62 124.02 114.105 114.767 114.105 103.99H112.105C112.105 114.293 108.79 123.06 102.165 130.347L103.645 131.693ZM121.418 146.963C109.601 158.445 95.0656 164.19 77.7452 164.19V166.19C95.558 166.19 110.602 160.261 122.812 148.397L121.418 146.963ZM77.7452 164.19C60.4247 164.19 45.8889 158.445 34.072 146.963L32.6783 148.397C44.8881 160.261 59.9323 166.19 77.7452 166.19V164.19ZM34.0755 146.966C22.2616 135.375 16.3552 121.016 16.3552 103.82H14.3552C14.3552 121.531 20.462 136.411 32.6748 148.394L34.0755 146.966ZM16.3552 103.82C16.3552 86.6242 22.2614 72.3236 34.072 60.8472L32.6783 59.4128C20.4622 71.2831 14.3552 86.1092 14.3552 103.82H16.3552ZM34.0755 60.8438C45.893 49.2493 60.4277 43.45 77.7452 43.45V41.45C59.9293 41.45 44.884 47.4374 32.6748 59.4162L34.0755 60.8438ZM77.7452 43.45C95.0627 43.45 109.597 49.2493 121.415 60.8438L122.816 59.4162C110.606 47.4374 95.561 41.45 77.7452 41.45V43.45ZM121.418 60.8472C133.229 72.3236 139.135 86.6242 139.135 103.82H141.135C141.135 86.1092 135.028 71.2831 122.812 59.4128L121.418 60.8472ZM139.135 103.82C139.135 121.016 133.229 135.375 121.415 146.966L122.816 148.394C135.028 136.411 141.135 121.531 141.135 103.82H139.135ZM194.054 133.4L193.272 134.023L193.278 134.031L194.054 133.4ZM229.584 133.4L228.802 132.777L228.8 132.779L229.584 133.4ZM236.214 45.17V44.17H235.214V45.17H236.214ZM262.734 45.17H263.734V44.17H262.734V45.17ZM248.454 151.42L249.149 152.14L249.153 152.136L248.454 151.42ZM175.184 151.25L174.486 151.966L174.49 151.97L175.184 151.25ZM160.904 45.17V44.17H159.904V45.17H160.904ZM187.424 45.17H188.424V44.17H187.424V45.17ZM193.278 134.031C197.902 139.722 204.146 142.56 211.904 142.56V140.56C204.702 140.56 199.046 137.958 194.83 132.769L193.278 134.031ZM211.904 142.56C219.663 142.56 225.856 139.721 230.368 134.021L228.8 132.779C224.7 137.959 219.106 140.56 211.904 140.56V142.56ZM230.367 134.023C234.969 128.24 237.214 120.459 237.214 110.79H235.214C235.214 120.161 233.04 127.453 228.802 132.777L230.367 134.023ZM237.214 110.79V45.17H235.214V110.79H237.214ZM236.214 46.17H262.734V44.17H236.214V46.17ZM261.734 45.17V111.64H263.734V45.17H261.734ZM261.734 111.64C261.734 128.68 257.031 141.65 247.756 150.704L249.153 152.136C258.918 142.603 263.734 129.053 263.734 111.64H261.734ZM247.76 150.7C238.45 159.678 226.527 164.19 211.904 164.19V166.19C226.975 166.19 239.419 161.522 249.149 152.14L247.76 150.7ZM211.904 164.19C197.286 164.19 185.305 159.624 175.879 150.53L174.49 151.97C184.331 161.463 196.83 166.19 211.904 166.19V164.19ZM175.883 150.534C166.607 141.479 161.904 128.565 161.904 111.64H159.904C159.904 128.942 164.722 142.434 174.486 151.966L175.883 150.534ZM161.904 111.64V45.17H159.904V111.64H161.904ZM160.904 46.17H187.424V44.17H160.904V46.17ZM186.424 45.17V110.79H188.424V45.17H186.424ZM186.424 110.79C186.424 120.459 188.67 128.24 193.272 134.023L194.837 132.777C190.599 127.453 188.424 120.161 188.424 110.79H186.424ZM364.05 121.5L363.705 120.562L362.48 121.013L363.234 122.078L364.05 121.5ZM394.14 164V165H396.074L394.957 163.422L394.14 164ZM361.5 164L360.679 164.571L360.978 165H361.5V164ZM335.15 126.09L335.972 125.519L335.673 125.09H335.15V126.09ZM316.79 126.09V125.09H315.79V126.09H316.79ZM316.79 164V165H317.79V164H316.79ZM290.27 164H289.27V165H290.27V164ZM290.27 45.17V44.17H289.27V45.17H290.27ZM374.76 54.52L374.137 55.302L374.143 55.3063L374.76 54.52ZM354.7 98.72L355.368 99.4646L355.368 99.4646L354.7 98.72ZM354.53 71.52L355.104 70.7008L355.104 70.7008L354.53 71.52ZM316.79 67.95V66.95H315.79V67.95H316.79ZM316.79 103.14H315.79V104.14H316.79V103.14ZM385.66 84.61C385.66 94.0031 383.801 101.642 380.155 107.59C376.518 113.525 371.056 117.853 363.705 120.562L364.396 122.438C372.118 119.593 377.961 114.997 381.861 108.635C385.751 102.287 387.66 94.2568 387.66 84.61H385.66ZM363.234 122.078L393.324 164.578L394.957 163.422L364.867 120.922L363.234 122.078ZM394.14 163H361.5V165H394.14V163ZM362.322 163.429L335.972 125.519L334.329 126.661L360.679 164.571L362.322 163.429ZM335.15 125.09H316.79V127.09H335.15V125.09ZM315.79 126.09V164H317.79V126.09H315.79ZM316.79 163H290.27V165H316.79V163ZM291.27 164V45.17H289.27V164H291.27ZM290.27 46.17H335.32V44.17H290.27V46.17ZM335.32 46.17C353.735 46.17 366.592 49.2874 374.137 55.302L375.384 53.738C367.289 47.2859 353.852 44.17 335.32 44.17V46.17ZM374.143 55.3063C381.753 61.2861 385.66 70.9691 385.66 84.61H387.66C387.66 70.5975 383.634 60.2205 375.378 53.7337L374.143 55.3063ZM336.17 104.14C345.264 104.14 351.783 102.679 355.368 99.4646L354.033 97.9754C351.045 100.654 345.21 102.14 336.17 102.14V104.14ZM355.368 99.4646C358.945 96.2573 360.63 91.2836 360.63 84.78H358.63C358.63 90.9697 357.029 95.2894 354.033 97.9754L355.368 99.4646ZM360.63 84.78C360.63 78.1813 358.895 73.3544 355.104 70.7008L353.957 72.3392C356.966 74.4455 358.63 78.4586 358.63 84.78H360.63ZM355.104 70.7008C351.434 68.1315 345.209 66.95 336.68 66.95V68.95C345.152 68.95 350.827 70.1485 353.957 72.3392L355.104 70.7008ZM336.68 66.95H316.79V68.95H336.68V66.95ZM315.79 67.95V103.14H317.79V67.95H315.79ZM316.79 104.14H336.17V102.14H316.79V104.14ZM540.38 55.88L539.727 56.637L539.732 56.6418L539.738 56.6465L540.38 55.88ZM540.04 120.65L539.421 119.865L539.416 119.869L540.04 120.65ZM485.13 130.85V129.85H484.13V130.85H485.13ZM485.13 164V165H486.13V164H485.13ZM458.61 164H457.61V165H458.61V164ZM458.61 45.17V44.17H457.61V45.17H458.61ZM521 102.63L521.742 103.3L521.748 103.294L521.753 103.288L521 102.63ZM519.47 72.37L518.885 73.1807L518.897 73.1898L518.91 73.1986L519.47 72.37ZM485.13 67.95V66.95H484.13V67.95H485.13ZM485.13 107.9H484.13V108.9H485.13V107.9ZM500.6 46.17C518.756 46.17 531.723 49.7293 539.727 56.637L541.034 55.1229C532.491 47.7507 518.938 44.17 500.6 44.17V46.17ZM539.738 56.6465C547.826 63.423 551.96 73.9739 551.96 88.52H553.96C553.96 73.5995 549.708 62.3903 541.022 55.1135L539.738 56.6465ZM551.96 88.52C551.96 102.943 547.719 113.313 539.421 119.865L540.66 121.435C549.588 114.387 553.96 103.337 553.96 88.52H551.96ZM539.416 119.869C531.173 126.463 518.409 129.85 500.94 129.85V131.85C518.604 131.85 531.908 128.437 540.665 121.431L539.416 119.869ZM500.94 129.85H485.13V131.85H500.94V129.85ZM484.13 130.85V164H486.13V130.85H484.13ZM485.13 163H458.61V165H485.13V163ZM459.61 164V45.17H457.61V164H459.61ZM458.61 46.17H500.6V44.17H458.61V46.17ZM502.98 108.9C511.88 108.9 518.269 107.146 521.742 103.3L520.258 101.96C517.385 105.141 511.761 106.9 502.98 106.9V108.9ZM521.753 103.288C525.141 99.4169 526.76 93.9334 526.76 86.99H524.76C524.76 93.6466 523.207 98.5898 520.248 101.971L521.753 103.288ZM526.76 86.99C526.76 79.8777 524.593 74.6246 520.03 71.5414L518.91 73.1986C522.734 75.7821 524.76 80.2756 524.76 86.99H526.76ZM520.056 71.5593C515.72 68.4281 509.06 66.95 500.26 66.95V68.95C508.914 68.95 515.06 70.4185 518.885 73.1807L520.056 71.5593ZM500.26 66.95H485.13V68.95H500.26V66.95ZM484.13 67.95V107.9H486.13V67.95H484.13ZM485.13 108.9H502.98V106.9H485.13V108.9ZM651.346 164L650.428 164.395L650.688 165H651.346V164ZM640.296 138.33L641.215 137.935L640.955 137.33H640.296V138.33ZM590.486 138.33V137.33H589.828L589.568 137.935L590.486 138.33ZM579.436 164V165H580.095L580.355 164.395L579.436 164ZM551.216 164L550.298 163.603L549.695 165H551.216V164ZM602.556 45.17V44.17H601.899L601.638 44.7734L602.556 45.17ZM628.226 45.17L629.144 44.7734L628.884 44.17H628.226V45.17ZM679.566 164V165H681.088L680.484 163.603L679.566 164ZM615.476 80.53L616.396 80.1361L615.482 78.0036L614.559 80.1323L615.476 80.53ZM600.516 115.04L599.599 114.642L598.993 116.04H600.516V115.04ZM630.266 115.04V116.04H631.783L631.186 114.646L630.266 115.04ZM652.265 163.605L641.215 137.935L639.378 138.725L650.428 164.395L652.265 163.605ZM640.296 137.33H590.486V139.33H640.296V137.33ZM589.568 137.935L578.518 163.605L580.355 164.395L591.405 138.725L589.568 137.935ZM579.436 163H551.216V165H579.436V163ZM552.134 164.397L603.474 45.5666L601.638 44.7734L550.298 163.603L552.134 164.397ZM602.556 46.17H628.226V44.17H602.556V46.17ZM627.308 45.5666L678.648 164.397L680.484 163.603L629.144 44.7734L627.308 45.5666ZM679.566 163H651.346V165H679.566V163ZM614.559 80.1323L599.599 114.642L601.434 115.438L616.394 80.9277L614.559 80.1323ZM600.516 116.04H630.266V114.04H600.516V116.04ZM631.186 114.646L616.396 80.1361L614.557 80.9239L629.347 115.434L631.186 114.646ZM767.136 121.5L766.791 120.562L765.566 121.013L766.32 122.078L767.136 121.5ZM797.226 164V165H799.16L798.042 163.422L797.226 164ZM764.586 164L763.765 164.571L764.064 165H764.586V164ZM738.236 126.09L739.057 125.519L738.759 125.09H738.236V126.09ZM719.876 126.09V125.09H718.876V126.09H719.876ZM719.876 164V165H720.876V164H719.876ZM693.356 164H692.356V165H693.356V164ZM693.356 45.17V44.17H692.356V45.17H693.356ZM777.846 54.52L777.223 55.302L777.229 55.3063L777.846 54.52ZM757.786 98.72L758.454 99.4646L758.454 99.4646L757.786 98.72ZM757.616 71.52L758.19 70.7008L758.19 70.7008L757.616 71.52ZM719.876 67.95V66.95H718.876V67.95H719.876ZM719.876 103.14H718.876V104.14H719.876V103.14ZM788.746 84.61C788.746 94.0031 786.887 101.642 783.241 107.59C779.604 113.525 774.142 117.853 766.791 120.562L767.482 122.438C775.204 119.593 781.047 114.997 784.946 108.635C788.837 102.287 790.746 94.2568 790.746 84.61H788.746ZM766.32 122.078L796.41 164.578L798.042 163.422L767.952 120.922L766.32 122.078ZM797.226 163H764.586V165H797.226V163ZM765.407 163.429L739.057 125.519L737.415 126.661L763.765 164.571L765.407 163.429ZM738.236 125.09H719.876V127.09H738.236V125.09ZM718.876 126.09V164H720.876V126.09H718.876ZM719.876 163H693.356V165H719.876V163ZM694.356 164V45.17H692.356V164H694.356ZM693.356 46.17H738.406V44.17H693.356V46.17ZM738.406 46.17C756.821 46.17 769.677 49.2874 777.223 55.302L778.47 53.738C770.375 47.2859 756.938 44.17 738.406 44.17V46.17ZM777.229 55.3063C784.839 61.2861 788.746 70.9691 788.746 84.61H790.746C790.746 70.5975 786.72 60.2205 778.464 53.7337L777.229 55.3063ZM739.256 104.14C748.35 104.14 754.869 102.679 758.454 99.4646L757.119 97.9754C754.131 100.654 748.296 102.14 739.256 102.14V104.14ZM758.454 99.4646C762.031 96.2573 763.716 91.2836 763.716 84.78H761.716C761.716 90.9697 760.115 95.2894 757.119 97.9754L758.454 99.4646ZM763.716 84.78C763.716 78.1813 761.981 73.3544 758.19 70.7008L757.043 72.3392C760.052 74.4455 761.716 78.4586 761.716 84.78H763.716ZM758.19 70.7008C754.519 68.1315 748.295 66.95 739.766 66.95V68.95C748.238 68.95 753.913 70.1485 757.043 72.3392L758.19 70.7008ZM739.766 66.95H719.876V68.95H739.766V66.95ZM718.876 67.95V103.14H720.876V67.95H718.876ZM719.876 104.14H739.256V102.14H719.876V104.14ZM864.868 68.12V67.12H863.868V68.12H864.868ZM864.868 164V165H865.868V164H864.868ZM838.348 164H837.348V165H838.348V164ZM838.348 68.12H839.348V67.12H838.348V68.12ZM804.688 68.12H803.688V69.12H804.688V68.12ZM804.688 45.17V44.17H803.688V45.17H804.688ZM898.528 45.17H899.528V44.17H898.528V45.17ZM898.528 68.12V69.12H899.528V68.12H898.528ZM863.868 68.12V164H865.868V68.12H863.868ZM864.868 163H838.348V165H864.868V163ZM839.348 164V68.12H837.348V164H839.348ZM838.348 67.12H804.688V69.12H838.348V67.12ZM805.688 68.12V45.17H803.688V68.12H805.688ZM804.688 46.17H898.528V44.17H804.688V46.17ZM897.528 45.17V68.12H899.528V45.17H897.528ZM898.528 67.12H864.868V69.12H898.528V67.12ZM1001.11 45.17V44.17H1000.11V45.17H1001.11ZM1027.63 45.17H1028.63V44.17H1027.63V45.17ZM1027.63 164V165H1028.63V164H1027.63ZM1001.11 164L1000.31 164.605L1000.61 165H1001.11V164ZM944.495 89.54L945.292 88.9348L943.495 86.5724V89.54H944.495ZM944.495 164V165H945.495V164H944.495ZM917.975 164H916.975V165H917.975V164ZM917.975 45.17V44.17H916.975V45.17H917.975ZM942.795 45.17L943.591 44.5638L943.291 44.17H942.795V45.17ZM1001.11 121.67L1000.31 122.276L1002.11 124.632V121.67H1001.11ZM1001.11 46.17H1027.63V44.17H1001.11V46.17ZM1026.63 45.17V164H1028.63V45.17H1026.63ZM1027.63 163H1001.11V165H1027.63V163ZM1001.9 163.395L945.292 88.9348L943.699 90.1452L1000.31 164.605L1001.9 163.395ZM943.495 89.54V164H945.495V89.54H943.495ZM944.495 163H917.975V165H944.495V163ZM918.975 164V45.17H916.975V164H918.975ZM917.975 46.17H942.795V44.17H917.975V46.17ZM942 45.7762L1000.31 122.276L1001.9 121.064L943.591 44.5638L942 45.7762ZM1002.11 121.67V45.17H1000.11V121.67H1002.11ZM1142.61 45.17H1143.61V44.17H1142.61V45.17ZM1142.61 68.8V69.8H1143.61V68.8H1142.61ZM1083.45 68.8V67.8H1082.45V68.8H1083.45ZM1083.45 93.28H1082.45V94.28H1083.45V93.28ZM1136.66 93.28H1137.66V92.28H1136.66V93.28ZM1136.66 115.89V116.89H1137.66V115.89H1136.66ZM1083.45 115.89V114.89H1082.45V115.89H1083.45ZM1083.45 140.54H1082.45V141.54H1083.45V140.54ZM1144.48 140.54H1145.48V139.54H1144.48V140.54ZM1144.48 164V165H1145.48V164H1144.48ZM1056.93 164H1055.93V165H1056.93V164ZM1056.93 45.17V44.17H1055.93V45.17H1056.93ZM1141.61 45.17V68.8H1143.61V45.17H1141.61ZM1142.61 67.8H1083.45V69.8H1142.61V67.8ZM1082.45 68.8V93.28H1084.45V68.8H1082.45ZM1083.45 94.28H1136.66V92.28H1083.45V94.28ZM1135.66 93.28V115.89H1137.66V93.28H1135.66ZM1136.66 114.89H1083.45V116.89H1136.66V114.89ZM1082.45 115.89V140.54H1084.45V115.89H1082.45ZM1083.45 141.54H1144.48V139.54H1083.45V141.54ZM1143.48 140.54V164H1145.48V140.54H1143.48ZM1144.48 163H1056.93V165H1144.48V163ZM1057.93 164V45.17H1055.93V164H1057.93ZM1056.93 46.17H1142.61V44.17H1056.93V46.17ZM1241.94 121.5L1241.6 120.562L1240.37 121.013L1241.12 122.078L1241.94 121.5ZM1272.03 164V165H1273.96L1272.85 163.422L1272.03 164ZM1239.39 164L1238.57 164.571L1238.87 165H1239.39V164ZM1213.04 126.09L1213.86 125.519L1213.56 125.09H1213.04V126.09ZM1194.68 126.09V125.09H1193.68V126.09H1194.68ZM1194.68 164V165H1195.68V164H1194.68ZM1168.16 164H1167.16V165H1168.16V164ZM1168.16 45.17V44.17H1167.16V45.17H1168.16ZM1252.65 54.52L1252.03 55.302L1252.03 55.3063L1252.65 54.52ZM1232.59 98.72L1233.26 99.4646L1233.26 99.4646L1232.59 98.72ZM1232.42 71.52L1232.99 70.7008L1232.99 70.7008L1232.42 71.52ZM1194.68 67.95V66.95H1193.68V67.95H1194.68ZM1194.68 103.14H1193.68V104.14H1194.68V103.14ZM1263.55 84.61C1263.55 94.0031 1261.69 101.642 1258.05 107.59C1254.41 113.525 1248.95 117.853 1241.6 120.562L1242.29 122.438C1250.01 119.593 1255.85 114.997 1259.75 108.635C1263.64 102.287 1265.55 94.2568 1265.55 84.61H1263.55ZM1241.12 122.078L1271.21 164.578L1272.85 163.422L1242.76 120.922L1241.12 122.078ZM1272.03 163H1239.39V165H1272.03V163ZM1240.21 163.429L1213.86 125.519L1212.22 126.661L1238.57 164.571L1240.21 163.429ZM1213.04 125.09H1194.68V127.09H1213.04V125.09ZM1193.68 126.09V164H1195.68V126.09H1193.68ZM1194.68 163H1168.16V165H1194.68V163ZM1169.16 164V45.17H1167.16V164H1169.16ZM1168.16 46.17H1213.21V44.17H1168.16V46.17ZM1213.21 46.17C1231.63 46.17 1244.48 49.2874 1252.03 55.302L1253.27 53.738C1245.18 47.2859 1231.74 44.17 1213.21 44.17V46.17ZM1252.03 55.3063C1259.64 61.2861 1263.55 70.9691 1263.55 84.61H1265.55C1265.55 70.5975 1261.52 60.2205 1253.27 53.7337L1252.03 55.3063ZM1214.06 104.14C1223.16 104.14 1229.67 102.679 1233.26 99.4646L1231.92 97.9754C1228.94 100.654 1223.1 102.14 1214.06 102.14V104.14ZM1233.26 99.4646C1236.84 96.2573 1238.52 91.2836 1238.52 84.78H1236.52C1236.52 90.9697 1234.92 95.2894 1231.92 97.9754L1233.26 99.4646ZM1238.52 84.78C1238.52 78.1813 1236.79 73.3544 1232.99 70.7008L1231.85 72.3392C1234.86 74.4455 1236.52 78.4586 1236.52 84.78H1238.52ZM1232.99 70.7008C1229.32 68.1315 1223.1 66.95 1214.57 66.95V68.95C1223.04 68.95 1228.72 70.1485 1231.85 72.3392L1232.99 70.7008ZM1214.57 66.95H1194.68V68.95H1214.57V66.95ZM1193.68 67.95V103.14H1195.68V67.95H1193.68ZM1194.68 104.14H1214.06V102.14H1194.68V104.14ZM1319.39 68.97L1320.02 69.744L1320.02 69.741L1319.39 68.97ZM1320.24 85.46L1319.68 86.292L1319.69 86.2967L1319.7 86.3012L1320.24 85.46ZM1341.83 92.77L1341.58 93.7396L1341.59 93.7424L1341.83 92.77ZM1368.18 105.18L1367.51 105.927L1367.51 105.927L1368.18 105.18ZM1365.46 155.5L1366.09 156.27L1366.1 156.269L1365.46 155.5ZM1283.18 144.45L1282.4 143.818L1281.81 144.546L1282.5 145.184L1283.18 144.45ZM1298.99 125.07L1299.65 124.318L1298.87 123.635L1298.21 124.438L1298.99 125.07ZM1345.91 138.84L1346.51 139.64L1346.51 139.636L1345.91 138.84ZM1345.74 121.84L1345.15 122.647L1345.16 122.655L1345.17 122.662L1345.74 121.84ZM1328.23 115.38L1328.47 114.409L1328.46 114.407L1328.23 115.38ZM1297.8 102.63L1297.15 103.396L1297.16 103.402L1297.17 103.408L1297.8 102.63ZM1300.35 51.63L1299.75 50.83L1299.74 50.8341L1300.35 51.63ZM1354.58 46.53L1354.9 45.584L1354.9 45.584L1354.58 46.53ZM1375.32 58.09L1376.14 58.6596L1376.66 57.9132L1375.96 57.3266L1375.32 58.09ZM1361.89 77.47L1361.28 78.2668L1362.11 78.8974L1362.71 78.0396L1361.89 77.47ZM1329.93 64.74C1325.35 64.74 1321.58 65.8574 1318.75 68.199L1320.02 69.741C1322.4 67.776 1325.67 66.74 1329.93 66.74V64.74ZM1318.75 68.196C1316.01 70.4447 1314.65 73.5177 1314.65 77.3H1316.65C1316.65 74.0557 1317.78 71.5753 1320.02 69.744L1318.75 68.196ZM1314.65 77.3C1314.65 81.0655 1316.37 84.0845 1319.68 86.292L1320.79 84.6279C1317.98 82.7555 1316.65 80.3345 1316.65 77.3H1314.65ZM1319.7 86.3012C1321.39 87.3904 1324.08 88.541 1327.69 89.7647C1331.33 90.9946 1335.96 92.3194 1341.58 93.7396L1342.07 91.8004C1336.48 90.3873 1331.9 89.077 1328.33 87.8703C1324.75 86.6574 1322.26 85.5696 1320.78 84.6188L1319.7 86.3012ZM1341.59 93.7424C1352.83 96.4383 1361.44 100.518 1367.51 105.927L1368.84 104.433C1362.45 98.7355 1353.49 94.5417 1342.06 91.7976L1341.59 93.7424ZM1367.51 105.927C1373.48 111.241 1376.53 119.038 1376.53 129.49H1378.53C1378.53 118.636 1375.34 110.226 1368.84 104.433L1367.51 105.927ZM1376.53 129.49C1376.53 139.852 1372.63 148.238 1364.82 154.731L1366.1 156.269C1374.38 149.388 1378.53 140.434 1378.53 129.49H1376.53ZM1364.82 154.73C1357.11 161.119 1346.87 164.36 1334.01 164.36V166.36C1347.21 166.36 1357.94 163.028 1366.09 156.27L1364.82 154.73ZM1334.01 164.36C1315.47 164.36 1298.76 157.502 1283.86 143.716L1282.5 145.184C1297.74 159.278 1314.92 166.36 1334.01 166.36V164.36ZM1283.95 145.082L1299.76 125.702L1298.21 124.438L1282.4 143.818L1283.95 145.082ZM1298.33 125.822C1311.22 137.116 1323.29 142.9 1334.52 142.9V140.9C1323.98 140.9 1312.37 135.464 1299.65 124.318L1298.33 125.822ZM1334.52 142.9C1339.52 142.9 1343.55 141.855 1346.51 139.64L1345.31 138.04C1342.82 139.905 1339.26 140.9 1334.52 140.9V142.9ZM1346.51 139.636C1349.59 137.297 1351.16 134.171 1351.16 130.34H1349.16C1349.16 133.536 1347.89 136.077 1345.3 138.044L1346.51 139.636ZM1351.16 130.34C1351.16 126.39 1349.53 123.247 1346.31 121.018L1345.17 122.662C1347.84 124.513 1349.16 127.037 1349.16 130.34H1351.16ZM1346.33 121.033C1343.2 118.75 1337.19 116.561 1328.47 114.409L1327.99 116.351C1336.72 118.506 1342.38 120.623 1345.15 122.647L1346.33 121.033ZM1328.46 114.407C1314.69 111.134 1304.71 106.927 1298.42 101.852L1297.17 103.408C1303.8 108.759 1314.11 113.053 1328 116.353L1328.46 114.407ZM1298.44 101.864C1292.39 96.7886 1289.28 88.8451 1289.28 77.81H1287.28C1287.28 89.2149 1290.51 97.8181 1297.15 103.396L1298.44 101.864ZM1289.28 77.81C1289.28 66.7458 1293.19 58.3321 1300.95 52.4259L1299.74 50.8341C1291.41 57.1679 1287.28 66.2076 1287.28 77.81H1289.28ZM1300.95 52.43C1308.9 46.463 1318.82 43.45 1330.78 43.45V41.45C1318.48 41.45 1308.11 44.557 1299.75 50.83L1300.95 52.43ZM1330.78 43.45C1338.59 43.45 1346.42 44.7897 1354.25 47.4759L1354.9 45.584C1346.87 42.8303 1338.83 41.45 1330.78 41.45V43.45ZM1354.25 47.4759C1362.08 50.1591 1368.88 53.9537 1374.67 58.8534L1375.96 57.3266C1369.97 52.2529 1362.94 48.3409 1354.9 45.584L1354.25 47.4759ZM1374.49 57.5204L1361.06 76.9004L1362.71 78.0396L1376.14 58.6596L1374.49 57.5204ZM1362.49 76.6732C1352.04 68.7456 1341.18 64.74 1329.93 64.74V66.74C1340.66 66.74 1351.11 70.5544 1361.28 78.2668L1362.49 76.6732Z" fill="#C4C4C4"/>
<path d="M243 177H474C480.627 177 486 182.373 486 189H255C248.373 189 243 183.627 243 177Z" fill="#D92F30"/>
<path d="M54.26 158.6C49.98 158.6 46.12 157.68 42.68 155.84C39.24 153.96 36.54 151.38 34.58 148.1C32.62 144.78 31.64 141.08 31.64 137C31.64 132.92 32.62 129.24 34.58 125.96C36.54 122.64 39.24 120.06 42.68 118.22C46.12 116.34 49.98 115.4 54.26 115.4C58.54 115.4 62.4 116.34 65.84 118.22C69.28 120.06 71.98 122.62 73.94 125.9C75.9 129.18 76.88 132.88 76.88 137C76.88 141.12 75.9 144.82 73.94 148.1C71.98 151.38 69.28 153.96 65.84 155.84C62.4 157.68 58.54 158.6 54.26 158.6ZM54.26 151.76C57.06 151.76 59.58 151.14 61.82 149.9C64.06 148.62 65.82 146.86 67.1 144.62C68.38 142.34 69.02 139.8 69.02 137C69.02 134.2 68.38 131.68 67.1 129.44C65.82 127.16 64.06 125.4 61.82 124.16C59.58 122.88 57.06 122.24 54.26 122.24C51.46 122.24 48.94 122.88 46.7 124.16C44.46 125.4 42.7 127.16 41.42 129.44C40.14 131.68 39.5 134.2 39.5 137C39.5 139.8 40.14 142.34 41.42 144.62C42.7 146.86 44.46 148.62 46.7 149.9C48.94 151.14 51.46 151.76 54.26 151.76ZM103.208 158.6C97.4078 158.6 92.8878 156.98 89.6478 153.74C86.4078 150.46 84.7878 145.78 84.7878 139.7V116H92.5878V139.4C92.5878 147.64 96.1478 151.76 103.268 151.76C110.348 151.76 113.888 147.64 113.888 139.4V116H121.568V139.7C121.568 145.78 119.948 150.46 116.708 153.74C113.508 156.98 109.008 158.6 103.208 158.6ZM159.972 158L151.392 145.7C151.032 145.74 150.492 145.76 149.772 145.76H140.292V158H132.492V116H149.772C153.412 116 156.572 116.6 159.252 117.8C161.972 119 164.052 120.72 165.492 122.96C166.932 125.2 167.652 127.86 167.652 130.94C167.652 134.1 166.872 136.82 165.312 139.1C163.792 141.38 161.592 143.08 158.712 144.2L168.372 158H159.972ZM159.792 130.94C159.792 128.26 158.912 126.2 157.152 124.76C155.392 123.32 152.812 122.6 149.412 122.6H140.292V139.34H149.412C152.812 139.34 155.392 138.62 157.152 137.18C158.912 135.7 159.792 133.62 159.792 130.94ZM210.24 116C213.88 116 217.04 116.6 219.72 117.8C222.44 119 224.52 120.72 225.96 122.96C227.4 125.2 228.12 127.86 228.12 130.94C228.12 133.98 227.4 136.64 225.96 138.92C224.52 141.16 222.44 142.88 219.72 144.08C217.04 145.28 213.88 145.88 210.24 145.88H200.76V158H192.96V116H210.24ZM209.88 139.28C213.28 139.28 215.86 138.56 217.62 137.12C219.38 135.68 220.26 133.62 220.26 130.94C220.26 128.26 219.38 126.2 217.62 124.76C215.86 123.32 213.28 122.6 209.88 122.6H200.76V139.28H209.88ZM261.04 148.28H240.04L235.9 158H227.86L246.76 116H254.44L273.4 158H265.24L261.04 148.28ZM258.46 142.16L250.54 123.8L242.68 142.16H258.46ZM306.222 158L297.642 145.7C297.282 145.74 296.742 145.76 296.022 145.76H286.542V158H278.742V116H296.022C299.662 116 302.822 116.6 305.502 117.8C308.222 119 310.302 120.72 311.742 122.96C313.182 125.2 313.902 127.86 313.902 130.94C313.902 134.1 313.122 136.82 311.562 139.1C310.042 141.38 307.842 143.08 304.962 144.2L314.622 158H306.222ZM306.042 130.94C306.042 128.26 305.162 126.2 303.402 124.76C301.642 123.32 299.062 122.6 295.662 122.6H286.542V139.34H295.662C299.062 139.34 301.642 138.62 303.402 137.18C305.162 135.7 306.042 133.62 306.042 130.94ZM330.562 122.6H316.642V116H352.282V122.6H338.362V158H330.562V122.6ZM395.456 116V158H389.036L365.876 129.56V158H358.136V116H364.556L387.716 144.44V116H395.456ZM438.21 151.46V158H406.71V116H437.37V122.54H414.51V133.46H434.79V139.88H414.51V151.46H438.21ZM474.386 158L465.806 145.7C465.446 145.74 464.906 145.76 464.186 145.76H454.706V158H446.906V116H464.186C467.826 116 470.986 116.6 473.666 117.8C476.386 119 478.466 120.72 479.906 122.96C481.346 125.2 482.066 127.86 482.066 130.94C482.066 134.1 481.286 136.82 479.726 139.1C478.206 141.38 476.006 143.08 473.126 144.2L482.786 158H474.386ZM474.206 130.94C474.206 128.26 473.326 126.2 471.566 124.76C469.806 123.32 467.226 122.6 463.826 122.6H454.706V139.34H463.826C467.226 139.34 469.806 138.62 471.566 137.18C473.326 135.7 474.206 133.62 474.206 130.94ZM503.812 158.6C500.572 158.6 497.432 158.14 494.392 157.22C491.392 156.3 489.012 155.08 487.252 153.56L489.952 147.5C491.672 148.86 493.772 149.98 496.252 150.86C498.772 151.7 501.292 152.12 503.812 152.12C506.932 152.12 509.252 151.62 510.772 150.62C512.332 149.62 513.112 148.3 513.112 146.66C513.112 145.46 512.672 144.48 511.792 143.72C510.952 142.92 509.872 142.3 508.552 141.86C507.232 141.42 505.432 140.92 503.152 140.36C499.952 139.6 497.352 138.84 495.352 138.08C493.392 137.32 491.692 136.14 490.252 134.54C488.852 132.9 488.152 130.7 488.152 127.94C488.152 125.62 488.772 123.52 490.012 121.64C491.292 119.72 493.192 118.2 495.712 117.08C498.272 115.96 501.392 115.4 505.072 115.4C507.632 115.4 510.152 115.72 512.632 116.36C515.112 117 517.252 117.92 519.052 119.12L516.592 125.18C514.752 124.1 512.832 123.28 510.832 122.72C508.832 122.16 506.892 121.88 505.012 121.88C501.932 121.88 499.632 122.4 498.112 123.44C496.632 124.48 495.892 125.86 495.892 127.58C495.892 128.78 496.312 129.76 497.152 130.52C498.032 131.28 499.132 131.88 500.452 132.32C501.772 132.76 503.572 133.26 505.852 133.82C508.972 134.54 511.532 135.3 513.532 136.1C515.532 136.86 517.232 138.04 518.632 139.64C520.072 141.24 520.792 143.4 520.792 146.12C520.792 148.44 520.152 150.54 518.872 152.42C517.632 154.3 515.732 155.8 513.172 156.92C510.612 158.04 507.492 158.6 503.812 158.6Z" fill="black"/>
</svg>
