<svg width="986" height="183" viewBox="0 0 986 183" fill="none" xmlns="http://www.w3.org/2000/svg">
<path d="M227 171H406C412.627 171 418 176.373 418 183V183H239C232.373 183 227 177.627 227 171V171Z" fill="#D92F30"/>
<path d="M119.12 157L110.54 144.7C110.18 144.74 109.64 144.76 108.92 144.76H99.44V157H91.64V115H108.92C112.56 115 115.72 115.6 118.4 116.8C121.12 118 123.2 119.72 124.64 121.96C126.08 124.2 126.8 126.86 126.8 129.94C126.8 133.1 126.02 135.82 124.46 138.1C122.94 140.38 120.74 142.08 117.86 143.2L127.52 157H119.12ZM118.94 129.94C118.94 127.26 118.06 125.2 116.3 123.76C114.54 122.32 111.96 121.6 108.56 121.6H99.44V138.34H108.56C111.96 138.34 114.54 137.62 116.3 136.18C118.06 134.7 118.94 132.62 118.94 129.94ZM167.027 150.46V157H135.527V115H166.187V121.54H143.327V132.46H163.607V138.88H143.327V150.46H167.027ZM213.536 115L195.236 157H187.556L169.196 115H177.656L191.636 147.4L205.736 115H213.536ZM217.968 115H225.768V157H217.968V115ZM268.628 150.46V157H237.128V115H267.788V121.54H244.928V132.46H265.208V138.88H244.928V150.46H268.628ZM338.118 115L324.198 157H315.918L305.538 125.92L294.978 157H286.638L272.718 115H280.818L291.258 146.92L302.118 115H309.318L319.938 147.1L330.678 115H338.118ZM357.492 157.6C354.252 157.6 351.112 157.14 348.072 156.22C345.072 155.3 342.692 154.08 340.932 152.56L343.632 146.5C345.352 147.86 347.452 148.98 349.932 149.86C352.452 150.7 354.972 151.12 357.492 151.12C360.612 151.12 362.932 150.62 364.452 149.62C366.012 148.62 366.792 147.3 366.792 145.66C366.792 144.46 366.352 143.48 365.472 142.72C364.632 141.92 363.552 141.3 362.232 140.86C360.912 140.42 359.112 139.92 356.832 139.36C353.632 138.6 351.032 137.84 349.032 137.08C347.072 136.32 345.372 135.14 343.932 133.54C342.532 131.9 341.832 129.7 341.832 126.94C341.832 124.62 342.452 122.52 343.692 120.64C344.972 118.72 346.872 117.2 349.392 116.08C351.952 114.96 355.072 114.4 358.752 114.4C361.312 114.4 363.832 114.72 366.312 115.36C368.792 116 370.932 116.92 372.732 118.12L370.272 124.18C368.432 123.1 366.512 122.28 364.512 121.72C362.512 121.16 360.572 120.88 358.692 120.88C355.612 120.88 353.312 121.4 351.792 122.44C350.312 123.48 349.572 124.86 349.572 126.58C349.572 127.78 349.992 128.76 350.832 129.52C351.712 130.28 352.812 130.88 354.132 131.32C355.452 131.76 357.252 132.26 359.532 132.82C362.652 133.54 365.212 134.3 367.212 135.1C369.212 135.86 370.912 137.04 372.312 138.64C373.752 140.24 374.472 142.4 374.472 145.12C374.472 147.44 373.832 149.54 372.552 151.42C371.312 153.3 369.412 154.8 366.852 155.92C364.292 157.04 361.172 157.6 357.492 157.6Z" fill="black"/>
<path d="M166.148 164L165.326 164.569L165.624 165H166.148V164ZM143.198 130.85L144.02 130.281L143.722 129.85H143.198V130.85ZM117.868 130.85V129.85H116.868V130.85H117.868ZM117.868 164V165H118.868V164H117.868ZM90.3278 164H89.3278V165H90.3278V164ZM90.3278 45V44H89.3278V45H90.3278ZM169.208 50.27L168.793 51.1799L168.798 51.1822L169.208 50.27ZM187.058 111.13L186.226 110.575L186.223 110.579L187.058 111.13ZM169.038 125.75L168.639 124.833L167.518 125.32L168.218 126.322L169.038 125.75ZM195.728 164V165H197.645L196.548 163.428L195.728 164ZM159.178 72.88L158.534 73.6449L158.54 73.6499L158.546 73.6549L159.178 72.88ZM117.868 67.44V66.44H116.868V67.44H117.868ZM117.868 108.92H116.868V109.92H117.868V108.92ZM159.178 103.48L159.822 104.245L159.178 103.48ZM166.97 163.431L144.02 130.281L142.376 131.419L165.326 164.569L166.97 163.431ZM143.198 129.85H141.838V131.85H143.198V129.85ZM141.838 129.85H117.868V131.85H141.838V129.85ZM116.868 130.85V164H118.868V130.85H116.868ZM117.868 163H90.3278V165H117.868V163ZM91.3278 164V45H89.3278V164H91.3278ZM90.3278 46H141.838V44H90.3278V46ZM141.838 46C152.269 46 161.244 47.7386 168.793 51.1799L169.623 49.3601C161.758 45.7747 152.487 44 141.838 44V46ZM168.798 51.1822C176.463 54.6259 182.312 59.4936 186.389 65.7745L188.067 64.6855C183.757 58.0464 177.592 52.9407 169.618 49.3578L168.798 51.1822ZM186.389 65.7745C190.462 72.0494 192.518 79.5039 192.518 88.18H194.518C194.518 79.176 192.38 71.3306 188.067 64.6855L186.389 65.7745ZM192.518 88.18C192.518 96.8508 190.408 104.302 186.226 110.575L187.89 111.685C192.321 105.038 194.518 97.1892 194.518 88.18H192.518ZM186.223 110.579C182.149 116.745 176.304 121.5 168.639 124.833L169.436 126.667C177.412 123.2 183.579 118.209 187.892 111.681L186.223 110.579ZM168.218 126.322L194.908 164.572L196.548 163.428L169.858 125.178L168.218 126.322ZM195.728 163H166.148V165H195.728V163ZM166.638 88.18C166.638 81.2604 164.397 75.8473 159.81 72.1051L158.546 73.6549C162.572 76.9394 164.638 81.7263 164.638 88.18H166.638ZM159.822 72.1151C155.267 68.2793 148.709 66.44 140.308 66.44V68.44C148.453 68.44 154.475 70.2273 158.534 73.6449L159.822 72.1151ZM140.308 66.44H117.868V68.44H140.308V66.44ZM116.868 67.44V108.92H118.868V67.44H116.868ZM117.868 109.92H140.308V107.92H117.868V109.92ZM140.308 109.92C148.709 109.92 155.267 108.081 159.822 104.245L158.534 102.715C154.475 106.133 148.453 107.92 140.308 107.92V109.92ZM159.822 104.245C164.393 100.396 166.638 94.9934 166.638 88.18H164.638C164.638 94.5132 162.576 99.3111 158.534 102.715L159.822 104.245ZM307.478 141.9H308.478V140.9H307.478V141.9ZM307.478 164V165H308.478V164H307.478ZM215.338 164H214.338V165H215.338V164ZM215.338 45V44H214.338V45H215.338ZM305.268 45H306.268V44H305.268V45ZM305.268 67.1V68.1H306.268V67.1H305.268ZM242.708 67.1V66.1H241.708V67.1H242.708ZM242.708 92.94H241.708V93.94H242.708V92.94ZM297.958 92.94H298.958V91.94H297.958V92.94ZM297.958 114.36V115.36H298.958V114.36H297.958ZM242.708 114.36V113.36H241.708V114.36H242.708ZM242.708 141.9H241.708V142.9H242.708V141.9ZM306.478 141.9V164H308.478V141.9H306.478ZM307.478 163H215.338V165H307.478V163ZM216.338 164V45H214.338V164H216.338ZM215.338 46H305.268V44H215.338V46ZM304.268 45V67.1H306.268V45H304.268ZM305.268 66.1H242.708V68.1H305.268V66.1ZM241.708 67.1V92.94H243.708V67.1H241.708ZM242.708 93.94H297.958V91.94H242.708V93.94ZM296.958 92.94V114.36H298.958V92.94H296.958ZM297.958 113.36H242.708V115.36H297.958V113.36ZM241.708 114.36V141.9H243.708V114.36H241.708ZM242.708 142.9H307.478V140.9H242.708V142.9ZM442.14 45L443.058 45.3972L443.663 44H442.14V45ZM390.63 164V165H391.287L391.548 164.397L390.63 164ZM363.43 164L362.512 164.396L362.772 165H363.43V164ZM312.09 45V44H310.57L311.172 45.3961L312.09 45ZM341.84 45L342.76 44.6081L342.501 44H341.84V45ZM378.05 130L377.13 130.392L378.044 132.536L378.968 130.397L378.05 130ZM414.77 45V44H414.113L413.852 44.6034L414.77 45ZM441.222 44.6028L389.712 163.603L391.548 164.397L443.058 45.3972L441.222 44.6028ZM390.63 163H363.43V165H390.63V163ZM364.348 163.604L313.008 44.6039L311.172 45.3961L362.512 164.396L364.348 163.604ZM312.09 46H341.84V44H312.09V46ZM340.92 45.3919L377.13 130.392L378.97 129.608L342.76 44.6081L340.92 45.3919ZM378.968 130.397L415.688 45.3966L413.852 44.6034L377.132 129.603L378.968 130.397ZM414.77 46H442.14V44H414.77V46ZM452.076 45V44H451.076V45H452.076ZM479.616 45H480.616V44H479.616V45ZM479.616 164V165H480.616V164H479.616ZM452.076 164H451.076V165H452.076V164ZM452.076 46H479.616V44H452.076V46ZM478.616 45V164H480.616V45H478.616ZM479.616 163H452.076V165H479.616V163ZM453.076 164V45H451.076V164H453.076ZM599.997 141.9H600.997V140.9H599.997V141.9ZM599.997 164V165H600.997V164H599.997ZM507.857 164H506.857V165H507.857V164ZM507.857 45V44H506.857V45H507.857ZM597.787 45H598.787V44H597.787V45ZM597.787 67.1V68.1H598.787V67.1H597.787ZM535.227 67.1V66.1H534.227V67.1H535.227ZM535.227 92.94H534.227V93.94H535.227V92.94ZM590.477 92.94H591.477V91.94H590.477V92.94ZM590.477 114.36V115.36H591.477V114.36H590.477ZM535.227 114.36V113.36H534.227V114.36H535.227ZM535.227 141.9H534.227V142.9H535.227V141.9ZM598.997 141.9V164H600.997V141.9H598.997ZM599.997 163H507.857V165H599.997V163ZM508.857 164V45H506.857V164H508.857ZM507.857 46H597.787V44H507.857V46ZM596.787 45V67.1H598.787V45H596.787ZM597.787 66.1H535.227V68.1H597.787V66.1ZM534.227 67.1V92.94H536.227V67.1H534.227ZM535.227 93.94H590.477V91.94H535.227V93.94ZM589.477 92.94V114.36H591.477V92.94H589.477ZM590.477 113.36H535.227V115.36H590.477V113.36ZM534.227 114.36V141.9H536.227V114.36H534.227ZM535.227 142.9H599.997V140.9H535.227V142.9ZM800.11 45L801.06 45.3109L801.489 44H800.11V45ZM761.18 164V165H761.905L762.13 164.311L761.18 164ZM731.6 164L730.649 164.309L730.873 165H731.6V164ZM705.42 83.42L706.371 83.111L705.435 80.2304L704.472 83.102L705.42 83.42ZM678.39 164V165H679.109L679.338 164.318L678.39 164ZM648.98 164L648.03 164.312L648.256 165H648.98V164ZM609.88 45V44H608.498L608.93 45.3121L609.88 45ZM638.44 45L639.392 44.6942L639.169 44H638.44V45ZM665.3 128.64L664.348 128.946L665.279 131.846L666.248 128.958L665.3 128.64ZM693.35 45V44H692.63L692.402 44.682L693.35 45ZM718.85 45L719.801 44.693L719.578 44H718.85V45ZM746.05 129.32L745.098 129.627L746.041 132.55L747 129.632L746.05 129.32ZM773.76 45V44H773.036L772.81 44.6878L773.76 45ZM799.159 44.6891L760.229 163.689L762.13 164.311L801.06 45.3109L799.159 44.6891ZM761.18 163H731.6V165H761.18V163ZM732.551 163.691L706.371 83.111L704.469 83.729L730.649 164.309L732.551 163.691ZM704.472 83.102L677.442 163.682L679.338 164.318L706.368 83.738L704.472 83.102ZM678.39 163H648.98V165H678.39V163ZM649.93 163.688L610.83 44.6878L608.93 45.3121L648.03 164.312L649.93 163.688ZM609.88 46H638.44V44H609.88V46ZM637.488 45.3058L664.348 128.946L666.252 128.334L639.392 44.6942L637.488 45.3058ZM666.248 128.958L694.298 45.318L692.402 44.682L664.352 128.322L666.248 128.958ZM693.35 46H718.85V44H693.35V46ZM717.898 45.307L745.098 129.627L747.001 129.013L719.801 44.693L717.898 45.307ZM747 129.632L774.71 45.3122L772.81 44.6878L745.1 129.008L747 129.632ZM773.76 46H800.11V44H773.76V46ZM827.214 162.3L826.928 163.258L826.935 163.26L826.943 163.262L827.214 162.3ZM806.134 152.27L805.222 151.859L804.897 152.582L805.526 153.064L806.134 152.27ZM815.484 131.53L816.075 130.724L815.08 129.993L814.572 131.119L815.484 131.53ZM833.674 140.54L833.981 139.588L833.674 140.54ZM872.094 140.54L872.612 141.395L872.622 141.39L872.631 141.384L872.094 140.54ZM874.304 124.22L873.637 124.965L873.658 124.984L873.679 125.001L874.304 124.22ZM865.804 119.63L865.488 120.579L865.497 120.582L865.804 119.63ZM851.864 115.89L851.633 116.863L851.639 116.864L851.864 115.89ZM829.594 109.43L829.943 108.493L829.594 109.43ZM814.634 99.06L813.875 99.7108L813.884 99.721L814.634 99.06ZM814.124 61.32L814.953 61.8786L814.959 61.8708L814.124 61.32ZM830.954 47.89L830.557 46.9723L830.552 46.9745L830.954 47.89ZM880.934 45.68L881.177 44.7099L880.934 45.68ZM899.974 53.5L900.9 53.8766L901.217 53.0976L900.504 52.652L899.974 53.5ZM891.474 74.41L890.981 75.2799L891.971 75.8416L892.4 74.7866L891.474 74.41ZM841.324 68.8L840.769 67.9679L840.763 67.9719L840.758 67.976L841.324 68.8ZM842.174 87.84L841.737 88.7392L841.751 88.7463L841.766 88.7528L842.174 87.84ZM861.724 93.62L861.955 92.6471L861.947 92.6452L861.94 92.6435L861.724 93.62ZM883.994 100.08L884.343 99.1429L883.994 100.08ZM898.784 110.28L898.033 110.94L898.042 110.95L898.784 110.28ZM899.294 147.85L898.467 147.288L898.465 147.291L899.294 147.85ZM882.294 161.11L881.897 160.192L882.294 161.11ZM854.584 165.04C845.267 165.04 836.235 163.805 827.485 161.338L826.943 163.262C835.873 165.781 845.088 167.04 854.584 167.04V165.04ZM827.5 161.342C818.851 158.758 811.945 155.461 806.742 151.476L805.526 153.064C810.977 157.239 818.124 160.628 826.928 163.258L827.5 161.342ZM807.046 152.681L816.396 131.941L814.572 131.119L805.222 151.859L807.046 152.681ZM814.893 132.336C820.092 136.149 826.255 139.198 833.367 141.492L833.981 139.588C827.04 137.349 821.076 134.391 816.075 130.724L814.893 132.336ZM833.367 141.492C840.488 143.789 847.618 144.94 854.754 144.94V142.94C847.837 142.94 840.914 141.825 833.981 139.588L833.367 141.492ZM854.754 144.94C862.632 144.94 868.636 143.805 872.612 141.395L871.576 139.685C868.072 141.808 862.516 142.94 854.754 142.94V144.94ZM872.631 141.384C876.608 138.853 878.704 135.442 878.704 131.19H876.704C876.704 134.645 875.06 137.467 871.557 139.696L872.631 141.384ZM878.704 131.19C878.704 128.044 877.426 125.437 874.929 123.439L873.679 125.001C875.716 126.63 876.704 128.669 876.704 131.19H878.704ZM874.971 123.475C872.689 121.433 869.722 119.843 866.111 118.678L865.497 120.582C868.913 121.684 871.613 123.154 873.637 124.965L874.971 123.475ZM866.12 118.681C862.677 117.533 857.995 116.279 852.089 114.916L851.639 116.864C857.519 118.221 862.131 119.46 865.488 120.579L866.12 118.681ZM852.095 114.917C843.05 112.769 835.67 110.627 829.943 108.493L829.245 110.367C835.078 112.54 842.544 114.704 851.633 116.863L852.095 114.917ZM829.943 108.493C824.322 106.399 819.472 103.039 815.384 98.399L813.884 99.721C818.183 104.601 823.306 108.155 829.245 110.367L829.943 108.493ZM815.393 98.4092C811.506 93.8745 809.514 87.7798 809.514 80.02H807.514C807.514 88.1269 809.602 94.7255 813.875 99.7108L815.393 98.4092ZM809.514 80.02C809.514 73.2988 811.328 67.2612 814.953 61.8786L813.295 60.7614C809.44 66.4854 807.514 72.9145 807.514 80.02H809.514ZM814.959 61.8708C818.573 56.3949 824.016 52.0307 831.356 48.8055L830.552 46.9745C822.932 50.3227 817.155 54.9118 813.289 60.7692L814.959 61.8708ZM831.351 48.8077C838.786 45.5895 847.88 43.96 858.664 43.96V41.96C847.688 41.96 838.308 43.6171 830.557 46.9723L831.351 48.8077ZM858.664 43.96C866.177 43.96 873.519 44.8569 880.691 46.6501L881.177 44.7099C873.843 42.8764 866.338 41.96 858.664 41.96V43.96ZM880.691 46.6501C887.86 48.4422 894.106 51.0118 899.444 54.348L900.504 52.652C894.962 49.1882 888.515 46.5445 881.177 44.7099L880.691 46.6501ZM899.048 53.1234L890.548 74.0334L892.4 74.7866L900.9 53.8766L899.048 53.1234ZM891.967 73.5401C880.846 67.2344 869.685 64.06 858.494 64.06V66.06C869.29 66.06 880.115 69.1189 890.981 75.2799L891.967 73.5401ZM858.494 64.06C850.715 64.06 844.754 65.3118 840.769 67.9679L841.879 69.632C845.374 67.3016 850.86 66.06 858.494 66.06V64.06ZM840.758 67.976C836.885 70.6385 834.884 74.2213 834.884 78.66H836.884C836.884 74.9387 838.51 71.9481 841.891 69.624L840.758 67.976ZM834.884 78.66C834.884 80.8807 835.458 82.8672 836.632 84.5802C837.8 86.2856 839.523 87.6626 841.737 88.7392L842.612 86.9408C840.631 85.9774 839.21 84.8044 838.281 83.4498C837.359 82.1028 836.884 80.5193 836.884 78.66H834.884ZM841.766 88.7528C846.167 90.7218 852.763 92.6657 861.508 94.5965L861.94 92.6435C853.232 90.721 846.795 88.8116 842.582 86.9272L841.766 88.7528ZM861.493 94.5929C870.538 96.741 877.918 98.8834 883.645 101.017L884.343 99.1429C878.51 96.9699 871.044 94.8056 861.955 92.6471L861.493 94.5929ZM883.645 101.017C889.27 103.113 894.061 106.417 898.033 110.94L899.535 109.62C895.347 104.85 890.279 101.354 884.343 99.1429L883.645 101.017ZM898.042 110.95C902.028 115.368 904.074 121.396 904.074 129.15H906.074C906.074 121.038 903.926 114.486 899.526 109.61L898.042 110.95ZM904.074 129.15C904.074 135.748 902.209 141.785 898.467 147.288L900.121 148.412C904.086 142.581 906.074 136.152 906.074 129.15H904.074ZM898.465 147.291C894.854 152.652 889.356 156.964 881.897 160.192L882.691 162.028C890.419 158.683 896.254 154.154 900.123 148.409L898.465 147.291ZM881.897 160.192C874.462 163.41 865.368 165.04 854.584 165.04V167.04C865.56 167.04 874.94 165.383 882.691 162.028L881.897 160.192Z" fill="#C4C4C4"/>
</svg>
