<svg width="818" height="127" viewBox="0 0 818 127" fill="none" xmlns="http://www.w3.org/2000/svg">
<path d="M77.1478 123L76.3256 123.569L76.6238 124H77.1478V123ZM54.1978 89.85L55.02 89.2808L54.7217 88.85H54.1978V89.85ZM28.8678 89.85V88.85H27.8678V89.85H28.8678ZM28.8678 123V124H29.8678V123H28.8678ZM1.32777 123H0.327774V124H1.32777V123ZM1.32777 3.99999V2.99999H0.327774V3.99999H1.32777ZM80.2078 9.27L79.793 10.1799L79.798 10.1822L80.2078 9.27ZM98.0578 70.13L97.2257 69.5753L97.2234 69.5787L98.0578 70.13ZM80.0378 84.75L79.6391 83.8329L78.5184 84.3201L79.2177 85.3222L80.0378 84.75ZM106.728 123V124H108.645L107.548 122.428L106.728 123ZM70.1778 31.88L69.5336 32.6449L69.5396 32.6499L69.5457 32.6549L70.1778 31.88ZM28.8678 26.44V25.44H27.8678V26.44H28.8678ZM28.8678 67.92H27.8678V68.92H28.8678V67.92ZM70.1778 62.48L70.8219 63.2449L70.1778 62.48ZM77.97 122.431L55.02 89.2808L53.3756 90.4192L76.3256 123.569L77.97 122.431ZM54.1978 88.85H52.8378V90.85H54.1978V88.85ZM52.8378 88.85H28.8678V90.85H52.8378V88.85ZM27.8678 89.85V123H29.8678V89.85H27.8678ZM28.8678 122H1.32777V124H28.8678V122ZM2.32777 123V3.99999H0.327774V123H2.32777ZM1.32777 4.99999H52.8378V2.99999H1.32777V4.99999ZM52.8378 4.99999C63.2687 4.99999 72.2443 6.73859 79.793 10.1799L80.6226 8.36009C72.7579 4.77473 63.4869 2.99999 52.8378 2.99999V4.99999ZM79.798 10.1822C87.4631 13.6259 93.312 18.4936 97.389 24.7745L99.0666 23.6855C94.7569 17.0464 88.5924 11.9407 80.6176 8.35783L79.798 10.1822ZM97.389 24.7745C101.462 31.0494 103.518 38.5039 103.518 47.18H105.518C105.518 38.176 103.38 30.3306 99.0666 23.6855L97.389 24.7745ZM103.518 47.18C103.518 55.8508 101.408 63.3016 97.2257 69.5753L98.8898 70.6847C103.321 64.0384 105.518 56.1892 105.518 47.18H103.518ZM97.2234 69.5787C93.1494 75.7448 87.3037 80.5005 79.6391 83.8329L80.4365 85.6671C88.4119 82.1995 94.5795 77.2085 98.8921 70.6813L97.2234 69.5787ZM79.2177 85.3222L105.908 123.572L107.548 122.428L80.8579 84.1778L79.2177 85.3222ZM106.728 122H77.1478V124H106.728V122ZM77.6378 47.18C77.6378 40.2604 75.3971 34.8473 70.8099 31.1051L69.5457 32.6549C73.5718 35.9394 75.6378 40.7263 75.6378 47.18H77.6378ZM70.8219 31.1151C66.2669 27.2793 59.7093 25.44 51.3078 25.44V27.44C59.453 27.44 65.4753 29.2273 69.5336 32.6449L70.8219 31.1151ZM51.3078 25.44H28.8678V27.44H51.3078V25.44ZM27.8678 26.44V67.92H29.8678V26.44H27.8678ZM28.8678 68.92H51.3078V66.92H28.8678V68.92ZM51.3078 68.92C59.7093 68.92 66.2669 67.0807 70.8219 63.2449L69.5336 61.7151C65.4753 65.1327 59.453 66.92 51.3078 66.92V68.92ZM70.8219 63.2449C75.3931 59.3955 77.6378 53.9934 77.6378 47.18H75.6378C75.6378 53.5132 73.5758 58.3111 69.5336 61.7151L70.8219 63.2449ZM218.478 100.9H219.478V99.9H218.478V100.9ZM218.478 123V124H219.478V123H218.478ZM126.338 123H125.338V124H126.338V123ZM126.338 3.99999V2.99999H125.338V3.99999H126.338ZM216.268 3.99999H217.268V2.99999H216.268V3.99999ZM216.268 26.1V27.1H217.268V26.1H216.268ZM153.708 26.1V25.1H152.708V26.1H153.708ZM153.708 51.94H152.708V52.94H153.708V51.94ZM208.958 51.94H209.958V50.94H208.958V51.94ZM208.958 73.36V74.36H209.958V73.36H208.958ZM153.708 73.36V72.36H152.708V73.36H153.708ZM153.708 100.9H152.708V101.9H153.708V100.9ZM217.478 100.9V123H219.478V100.9H217.478ZM218.478 122H126.338V124H218.478V122ZM127.338 123V3.99999H125.338V123H127.338ZM126.338 4.99999H216.268V2.99999H126.338V4.99999ZM215.268 3.99999V26.1H217.268V3.99999H215.268ZM216.268 25.1H153.708V27.1H216.268V25.1ZM152.708 26.1V51.94H154.708V26.1H152.708ZM153.708 52.94H208.958V50.94H153.708V52.94ZM207.958 51.94V73.36H209.958V51.94H207.958ZM208.958 72.36H153.708V74.36H208.958V72.36ZM152.708 73.36V100.9H154.708V73.36H152.708ZM153.708 101.9H218.478V99.9H153.708V101.9ZM353.14 3.99999L354.058 4.39723L354.663 2.99999H353.14V3.99999ZM301.63 123V124H302.287L302.548 123.397L301.63 123ZM274.43 123L273.512 123.396L273.772 124H274.43V123ZM223.09 3.99999V2.99999H221.57L222.172 4.39613L223.09 3.99999ZM252.84 3.99999L253.76 3.60807L253.501 2.99999H252.84V3.99999ZM289.05 89L288.13 89.3919L289.044 91.5365L289.968 89.3966L289.05 89ZM325.77 3.99999V2.99999H325.113L324.852 3.60342L325.77 3.99999ZM352.222 3.60275L300.712 122.603L302.548 123.397L354.058 4.39723L352.222 3.60275ZM301.63 122H274.43V124H301.63V122ZM275.348 122.604L224.008 3.60386L222.172 4.39613L273.512 123.396L275.348 122.604ZM223.09 4.99999H252.84V2.99999H223.09V4.99999ZM251.92 4.39191L288.13 89.3919L289.97 88.6081L253.76 3.60807L251.92 4.39191ZM289.968 89.3966L326.688 4.39657L324.852 3.60342L288.132 88.6034L289.968 89.3966ZM325.77 4.99999H353.14V2.99999H325.77V4.99999ZM363.076 3.99999V2.99999H362.076V3.99999H363.076ZM390.616 3.99999H391.616V2.99999H390.616V3.99999ZM390.616 123V124H391.616V123H390.616ZM363.076 123H362.076V124H363.076V123ZM363.076 4.99999H390.616V2.99999H363.076V4.99999ZM389.616 3.99999V123H391.616V3.99999H389.616ZM390.616 122H363.076V124H390.616V122ZM364.076 123V3.99999H362.076V123H364.076ZM510.997 100.9H511.997V99.9H510.997V100.9ZM510.997 123V124H511.997V123H510.997ZM418.857 123H417.857V124H418.857V123ZM418.857 3.99999V2.99999H417.857V3.99999H418.857ZM508.787 3.99999H509.787V2.99999H508.787V3.99999ZM508.787 26.1V27.1H509.787V26.1H508.787ZM446.227 26.1V25.1H445.227V26.1H446.227ZM446.227 51.94H445.227V52.94H446.227V51.94ZM501.477 51.94H502.477V50.94H501.477V51.94ZM501.477 73.36V74.36H502.477V73.36H501.477ZM446.227 73.36V72.36H445.227V73.36H446.227ZM446.227 100.9H445.227V101.9H446.227V100.9ZM509.997 100.9V123H511.997V100.9H509.997ZM510.997 122H418.857V124H510.997V122ZM419.857 123V3.99999H417.857V123H419.857ZM418.857 4.99999H508.787V2.99999H418.857V4.99999ZM507.787 3.99999V26.1H509.787V3.99999H507.787ZM508.787 25.1H446.227V27.1H508.787V25.1ZM445.227 26.1V51.94H447.227V26.1H445.227ZM446.227 52.94H501.477V50.94H446.227V52.94ZM500.477 51.94V73.36H502.477V51.94H500.477ZM501.477 72.36H446.227V74.36H501.477V72.36ZM445.227 73.36V100.9H447.227V73.36H445.227ZM446.227 101.9H510.997V99.9H446.227V101.9ZM711.11 3.99999L712.06 4.31092L712.489 2.99999H711.11V3.99999ZM672.18 123V124H672.905L673.13 123.311L672.18 123ZM642.6 123L641.649 123.309L641.873 124H642.6V123ZM616.42 42.42L617.371 42.111L616.435 39.2304L615.472 42.102L616.42 42.42ZM589.39 123V124H590.109L590.338 123.318L589.39 123ZM559.98 123L559.03 123.312L559.256 124H559.98V123ZM520.88 3.99999V2.99999H519.498L519.93 4.31215L520.88 3.99999ZM549.44 3.99999L550.392 3.69423L550.169 2.99999H549.44V3.99999ZM576.3 87.64L575.348 87.9458L576.279 90.8464L577.248 87.958L576.3 87.64ZM604.35 3.99999V2.99999H603.63L603.402 3.68203L604.35 3.99999ZM629.85 3.99999L630.801 3.69299L630.578 2.99999H629.85V3.99999ZM657.05 88.32L656.098 88.627L657.041 91.5499L658 88.6322L657.05 88.32ZM684.76 3.99999V2.99999H684.036L683.81 3.68779L684.76 3.99999ZM710.159 3.68906L671.229 122.689L673.13 123.311L712.06 4.31092L710.159 3.68906ZM672.18 122H642.6V124H672.18V122ZM643.551 122.691L617.371 42.111L615.469 42.729L641.649 123.309L643.551 122.691ZM615.472 42.102L588.442 122.682L590.338 123.318L617.368 42.738L615.472 42.102ZM589.39 122H559.98V124H589.39V122ZM560.93 122.688L521.83 3.68784L519.93 4.31215L559.03 123.312L560.93 122.688ZM520.88 4.99999H549.44V2.99999H520.88V4.99999ZM548.488 4.30575L575.348 87.9458L577.252 87.3342L550.392 3.69423L548.488 4.30575ZM577.248 87.958L605.298 4.31796L603.402 3.68203L575.352 87.322L577.248 87.958ZM604.35 4.99999H629.85V2.99999H604.35V4.99999ZM628.898 4.307L656.098 88.627L658.001 88.013L630.801 3.69299L628.898 4.307ZM658 88.6322L685.71 4.31219L683.81 3.68779L656.1 88.0078L658 88.6322ZM684.76 4.99999H711.11V2.99999H684.76V4.99999ZM738.214 121.3L737.928 122.258L737.935 122.26L737.943 122.262L738.214 121.3ZM717.134 111.27L716.222 110.859L715.897 111.582L716.526 112.064L717.134 111.27ZM726.484 90.53L727.075 89.7236L726.08 88.9935L725.572 90.119L726.484 90.53ZM744.674 99.54L744.981 98.5883L744.674 99.54ZM783.094 99.54L783.612 100.395L783.622 100.39L783.631 100.384L783.094 99.54ZM785.304 83.22L784.637 83.9652L784.658 83.9836L784.679 84.0009L785.304 83.22ZM776.804 78.63L776.488 79.5787L776.497 79.5817L776.804 78.63ZM762.864 74.89L762.633 75.863L762.639 75.8644L762.864 74.89ZM740.594 68.43L740.943 67.4929L740.594 68.43ZM725.634 58.06L724.875 58.7108L724.884 58.721L725.634 58.06ZM725.124 20.32L725.953 20.8786L725.959 20.8708L725.124 20.32ZM741.954 6.89L741.557 5.97226L741.552 5.97448L741.954 6.89ZM791.934 4.67999L792.177 3.70985L791.934 4.67999ZM810.974 12.5L811.9 12.8766L812.217 12.0976L811.504 11.652L810.974 12.5ZM802.474 33.41L801.981 34.2799L802.971 34.8416L803.4 33.7866L802.474 33.41ZM752.324 27.8L751.769 26.9679L751.763 26.9719L751.758 26.976L752.324 27.8ZM753.174 46.84L752.737 47.7392L752.751 47.7463L752.766 47.7528L753.174 46.84ZM772.724 52.62L772.955 51.6471L772.947 51.6452L772.94 51.6435L772.724 52.62ZM794.994 59.08L795.343 58.1429L794.994 59.08ZM809.784 69.28L809.033 69.9399L809.042 69.95L809.784 69.28ZM810.294 106.85L809.467 106.288L809.465 106.291L810.294 106.85ZM793.294 120.11L792.897 119.192L793.294 120.11ZM765.584 124.04C756.267 124.04 747.235 122.805 738.485 120.338L737.943 122.262C746.873 124.781 756.088 126.04 765.584 126.04V124.04ZM738.5 120.342C729.851 117.758 722.945 114.461 717.742 110.476L716.526 112.064C721.977 116.239 729.124 119.628 737.928 122.258L738.5 120.342ZM718.046 111.681L727.396 90.941L725.572 90.119L716.222 110.859L718.046 111.681ZM725.893 91.3364C731.092 95.1494 737.255 98.1975 744.367 100.492L744.981 98.5883C738.04 96.3491 732.076 93.3906 727.075 89.7236L725.893 91.3364ZM744.367 100.492C751.488 102.789 758.618 103.94 765.754 103.94V101.94C758.837 101.94 751.914 100.825 744.981 98.5883L744.367 100.492ZM765.754 103.94C773.632 103.94 779.636 102.805 783.612 100.395L782.576 98.6848C779.072 100.808 773.516 101.94 765.754 101.94V103.94ZM783.631 100.384C787.608 97.8525 789.704 94.4416 789.704 90.19H787.704C787.704 93.6451 786.06 96.4675 782.557 98.6963L783.631 100.384ZM789.704 90.19C789.704 87.0443 788.426 84.4368 785.929 82.4391L784.679 84.0009C786.716 85.6298 787.704 87.669 787.704 90.19H789.704ZM785.971 82.4748C783.689 80.4328 780.722 78.8431 777.111 77.6783L776.497 79.5817C779.913 80.6836 782.613 82.1538 784.637 83.9652L785.971 82.4748ZM777.12 77.6813C773.677 76.5335 768.995 75.2786 763.089 73.9156L762.639 75.8644C768.519 77.2214 773.131 78.4598 776.488 79.5787L777.12 77.6813ZM763.095 73.9171C754.05 71.769 746.67 69.6266 740.943 67.4929L740.245 69.3671C746.078 71.54 753.544 73.7044 762.633 75.8629L763.095 73.9171ZM740.943 67.4929C735.322 65.3988 730.472 62.0389 726.384 57.399L724.884 58.721C729.183 63.6011 734.306 67.1545 740.245 69.3671L740.943 67.4929ZM726.393 57.4092C722.506 52.8745 720.514 46.7798 720.514 39.02H718.514C718.514 47.1269 720.602 53.7255 724.875 58.7108L726.393 57.4092ZM720.514 39.02C720.514 32.2988 722.328 26.2612 725.953 20.8786L724.295 19.7614C720.44 25.4854 718.514 31.9145 718.514 39.02H720.514ZM725.959 20.8708C729.573 15.3949 735.016 11.0307 742.356 7.80552L741.552 5.97448C733.932 9.32265 728.155 13.9118 724.289 19.7692L725.959 20.8708ZM742.351 7.80772C749.786 4.58953 758.88 2.96 769.664 2.96V0.959999C758.688 0.959999 749.308 2.61713 741.557 5.97227L742.351 7.80772ZM769.664 2.96C777.177 2.96 784.519 3.85695 791.691 5.65014L792.177 3.70985C784.843 1.87638 777.338 0.959999 769.664 0.959999V2.96ZM791.691 5.65014C798.86 7.44217 805.106 10.0118 810.444 13.348L811.504 11.652C805.962 8.18817 799.515 5.54449 792.177 3.70985L791.691 5.65014ZM810.048 12.1234L801.548 33.0334L803.4 33.7866L811.9 12.8766L810.048 12.1234ZM802.967 32.5401C791.846 26.2344 780.685 23.06 769.494 23.06V25.06C780.29 25.06 791.115 28.1189 801.981 34.2799L802.967 32.5401ZM769.494 23.06C761.715 23.06 755.754 24.3118 751.769 26.9679L752.879 28.632C756.374 26.3016 761.86 25.06 769.494 25.06V23.06ZM751.758 26.976C747.885 29.6385 745.884 33.2213 745.884 37.66H747.884C747.884 33.9387 749.51 30.9481 752.891 28.624L751.758 26.976ZM745.884 37.66C745.884 39.8807 746.458 41.8672 747.632 43.5802C748.8 45.2856 750.523 46.6626 752.737 47.7392L753.612 45.9408C751.631 44.9774 750.21 43.8044 749.281 42.4498C748.359 41.1028 747.884 39.5193 747.884 37.66H745.884ZM752.766 47.7528C757.167 49.7218 763.763 51.6657 772.508 53.5965L772.94 51.6435C764.232 49.721 757.795 47.8116 753.582 45.9272L752.766 47.7528ZM772.493 53.5929C781.538 55.741 788.918 57.8834 794.645 60.0171L795.343 58.1429C789.51 55.9699 782.044 53.8056 772.955 51.6471L772.493 53.5929ZM794.645 60.0171C800.27 62.1125 805.061 65.4171 809.033 69.9398L810.535 68.6202C806.347 63.8496 801.279 60.3541 795.343 58.1429L794.645 60.0171ZM809.042 69.95C813.028 74.3677 815.074 80.3956 815.074 88.15H817.074C817.074 80.0377 814.926 73.4857 810.526 68.61L809.042 69.95ZM815.074 88.15C815.074 94.7478 813.209 100.785 809.467 106.288L811.121 107.412C815.086 101.581 817.074 95.1522 817.074 88.15H815.074ZM809.465 106.291C805.854 111.652 800.356 115.964 792.897 119.192L793.691 121.028C801.419 117.683 807.254 113.154 811.123 107.409L809.465 106.291ZM792.897 119.192C785.462 122.41 776.368 124.04 765.584 124.04V126.04C776.56 126.04 785.94 124.383 793.691 121.028L792.897 119.192Z" fill="#C4C4C4"/>
</svg>
